<svg version="1.1" xmlns="http://www.w3.org/2000/svg" xmlns:xlink="http://www.w3.org/1999/xlink" xmlns:i="http://ns.adobe.com/AdobeIllustrator/10.0/" xmlns:sketch="http://www.bohemiancoding.com/sketch/ns" height="100%" width="100%" x="0px" y="0px" viewBox="0 0 640 480" xml:space="preserve" preserveAspectRatio="xMidYMid meet" class="">{{text2Gradient}}<rect x="0px" y="0px" width="100%" height="100%" fill="#000000"/><g class="logo-container-box logoContainerBox" transform="scale(0.99) translate(3.232369008690398,2.424257683031499)"><g class="containerBody" transform="scale(0.7822026726571003) translate(132.65883078240034,66.82586537348243)" ><g class="sampleIconBox" transform="scale(1) translate(0,0)"><g class="sampleIcons_1" transform="scale(1.875) translate(223.72390359242758,78)" fill="#ffffff"><path d="M84.486,31.247c0.336-0.325,0.402-0.84,0.158-1.239c-0.244-0.4-0.731-0.578-1.174-0.427  c-3.112,1.053-7.249,0.316-11.064-1.97c-2.516-1.506-5.309-2.295-8.117-2.389c-1.489-2.382-3.568-4.402-6.112-5.815  c-3.315-1.842-6.399-5.561-7.174-8.651C50.892,10.312,50.491,10,50.033,10c-0.008,0-0.016,0-0.024,0  c-0.467,0.012-0.864,0.346-0.956,0.804c-0.645,3.222-3.351,6.436-7.238,8.598c-2.563,1.426-4.643,3.45-6.128,5.835  c-2.808,0.099-5.596,0.889-8.092,2.385c-3.252,1.951-8.014,2.761-11.079,1.888c-0.451-0.126-0.929,0.071-1.152,0.483  c-0.224,0.41-0.134,0.921,0.218,1.229c2.468,2.169,3.898,6.119,3.827,10.567c-0.047,2.932,0.666,5.745,1.989,8.223  c-1.318,2.481-2.028,5.291-1.98,8.201c0.063,3.792-1.615,8.323-3.904,10.539c-0.336,0.325-0.402,0.84-0.158,1.239  c0.243,0.4,0.731,0.577,1.174,0.427c3.112-1.054,7.249-0.316,11.064,1.97c2.516,1.506,5.309,2.296,8.117,2.389  c1.489,2.382,3.568,4.402,6.112,5.814c3.315,1.842,6.399,5.561,7.174,8.651C49.108,89.688,49.509,90,49.967,90  c0.008,0,0.016,0,0.024,0c0.467-0.012,0.864-0.346,0.956-0.804c0.645-3.222,3.351-6.436,7.238-8.598  c2.563-1.426,4.643-3.45,6.128-5.836c2.807-0.099,5.597-0.888,8.092-2.385c3.251-1.952,8.013-2.764,11.079-1.888  c0.448,0.125,0.929-0.072,1.152-0.483c0.224-0.41,0.134-0.921-0.218-1.229c-2.468-2.169-3.898-6.119-3.827-10.567  c0.047-2.932-0.666-5.745-1.989-8.223c1.318-2.481,2.028-5.291,1.98-8.201C80.519,37.994,82.197,33.463,84.486,31.247z   M63.154,72.765c-2.371-0.09-4.725-0.741-6.849-1.968c-2.148-1.24-3.9-2.953-5.169-4.99c1.739-3.304,2.373-7.135,1.712-10.863  c1.771,1.499,3.846,2.63,6.148,3.304c1.362,0.4,2.745,0.614,4.123,0.668c1.042,1.956,1.667,4.162,1.734,6.501  C64.929,68.031,64.318,70.547,63.154,72.765z M35.141,65.859c0-2.477,0.606-4.847,1.732-6.963c3.732-0.145,7.368-1.518,10.267-3.956  c-0.412,2.282-0.354,4.644,0.213,6.973c0.336,1.378,0.849,2.676,1.491,3.895c-1.173,1.885-2.775,3.533-4.77,4.763  c-2.225,1.373-4.708,2.102-7.212,2.203C35.754,70.676,35.141,68.312,35.141,65.859z M36.846,27.235  c2.371,0.09,4.725,0.741,6.849,1.967c2.148,1.24,3.9,2.953,5.169,4.99c-1.739,3.304-2.373,7.134-1.712,10.863  c-1.771-1.499-3.846-2.63-6.148-3.304c-1.361-0.4-2.742-0.604-4.118-0.658c-1.045-1.958-1.671-4.168-1.739-6.511  C35.071,31.969,35.682,29.453,36.846,27.235z M50.704,38.56c0.755,3.103,0.491,6.273-0.707,9.162  c-1.518-3.684-1.429-7.733,0.01-11.266C50.283,37.136,50.527,37.832,50.704,38.56z M48.026,48.863  c-3.95-0.527-7.411-2.628-9.752-5.641c0.726,0.101,1.451,0.238,2.17,0.448C43.508,44.567,46.122,46.381,48.026,48.863z   M44.296,49.995c-2.184,0.784-4.204,2.015-5.938,3.67c-1.026,0.979-1.892,2.073-2.628,3.237c-2.219-0.073-4.447-0.636-6.51-1.748  c-2.301-1.241-4.174-3.028-5.513-5.146c1.264-2.008,3.004-3.721,5.128-4.947c2.149-1.24,4.507-1.901,6.906-1.982  C37.734,46.239,40.736,48.704,44.296,49.995z M48.027,51.144c-2.432,3.156-5.982,5.101-9.76,5.622  c0.451-0.578,0.931-1.138,1.472-1.654C42.049,52.906,44.927,51.552,48.027,51.144z M49.296,61.44  c-0.755-3.103-0.491-6.273,0.707-9.162c1.518,3.684,1.429,7.733-0.01,11.266C49.717,62.864,49.473,62.168,49.296,61.44z   M51.975,51.137c3.95,0.527,7.411,2.628,9.751,5.641C61,56.677,60.275,56.54,59.557,56.33  C56.492,55.433,53.878,53.619,51.975,51.137z M55.695,50.002c2.187-0.784,4.21-2.009,5.947-3.667  c1.026-0.98,1.893-2.074,2.629-3.239c2.219,0.074,4.446,0.638,6.509,1.75c2.301,1.241,4.174,3.028,5.513,5.146  c-1.264,2.008-3.004,3.721-5.128,4.947c-2.149,1.24-4.508,1.901-6.906,1.982C62.264,53.758,59.259,51.292,55.695,50.002z   M51.975,48.854c2.434-3.157,5.985-5.11,9.765-5.629c-0.453,0.581-0.936,1.144-1.48,1.664  C57.952,47.094,55.075,48.444,51.975,48.854z M63.123,41.112c-3.731,0.146-7.365,1.511-10.263,3.948  c0.413-2.282,0.355-4.645-0.212-6.975c-0.336-1.378-0.849-2.676-1.491-3.895c1.173-1.885,2.775-3.533,4.77-4.763  c2.225-1.373,4.708-2.101,7.212-2.202c1.107,2.098,1.72,4.462,1.72,6.914C64.859,36.621,64.252,38.994,63.123,41.112z   M42.787,21.149c3.348-1.862,5.931-4.466,7.306-7.276c1.637,3.105,4.553,5.861,7.113,7.283c1.888,1.048,3.484,2.477,4.726,4.155  c-2.455,0.265-4.866,1.064-7.055,2.415c-1.97,1.215-3.597,2.792-4.866,4.589c-1.383-1.951-3.172-3.607-5.315-4.845  c-2.075-1.198-4.343-1.91-6.65-2.153C39.287,23.638,40.886,22.207,42.787,21.149z M21.408,41.821  c0.062-3.83-0.902-7.368-2.649-9.965c3.518,0.142,7.354-1.012,9.865-2.52c1.851-1.11,3.887-1.778,5.961-2.015  c-0.998,2.258-1.512,4.746-1.437,7.319c0.067,2.313,0.62,4.509,1.541,6.506c-2.381,0.223-4.709,0.945-6.852,2.182  c-2.075,1.198-3.826,2.806-5.189,4.682C21.813,46.097,21.374,43.996,21.408,41.821z M28.621,70.673  c-2.978-1.784-6.169-2.719-9.064-2.719c-0.3,0-0.597,0.01-0.89,0.029c1.87-2.971,2.8-6.875,2.751-9.803  c-0.036-2.159,0.403-4.255,1.234-6.17c1.457,1.993,3.354,3.682,5.619,4.904c2.037,1.099,4.214,1.724,6.404,1.925  c-0.996,2.172-1.535,4.548-1.535,7.021c0,2.396,0.517,4.716,1.461,6.835C32.527,72.46,30.488,71.79,28.621,70.673z M57.213,78.851  c-3.348,1.862-5.931,4.466-7.306,7.276c-1.637-3.105-4.553-5.861-7.113-7.283c-1.888-1.048-3.484-2.478-4.727-4.155  c2.455-0.266,4.866-1.064,7.056-2.414c1.97-1.215,3.597-2.792,4.866-4.589c1.383,1.951,3.172,3.607,5.315,4.845  c2.075,1.198,4.343,1.91,6.65,2.152C60.714,76.362,59.114,77.793,57.213,78.851z M78.592,58.179  c-0.062,3.83,0.902,7.368,2.649,9.965c-3.52-0.151-7.354,1.012-9.865,2.52c-1.852,1.11-3.887,1.777-5.961,2.015  c0.998-2.258,1.512-4.746,1.437-7.319c-0.067-2.31-0.618-4.505-1.537-6.5c2.38-0.223,4.707-0.952,6.849-2.189  c2.075-1.198,3.826-2.806,5.189-4.682C78.187,53.903,78.626,56.004,78.592,58.179z M71.729,43.086  c-2.037-1.099-4.216-1.719-6.407-1.92c0.998-2.173,1.537-4.551,1.537-7.025c0-2.395-0.517-4.715-1.46-6.833  c2.074,0.235,4.113,0.903,5.979,2.02c3.286,1.969,6.834,2.898,9.954,2.689c-1.87,2.971-2.8,6.875-2.751,9.803  c0.036,2.159-0.403,4.255-1.234,6.17C75.891,45.996,73.993,44.307,71.729,43.086z"></path></g></g><g class="sampleTexts_1" transform="scale(1) translate(-0.000029754638660506316,16.415000915527344)"><g class="logo--name svgLogoName_1 logoNameBox" transform="scale(1) translate(183.27999755293132,193.5099983215332)" fill="#ffffff"><path d="M2.12-20.50L2.12-20.50L2.12-20.50Q2.36-20.74 2.72-20.74L2.72-20.74L2.72-20.74Q3.44-20.74 3.84-20.02L3.84-20.02L3.84-20.02Q4.24-19.30 4.24-17.30L4.24-17.30L4.24-17.30Q4.24-16.70 4.24-15.64L4.24-15.64L4.24-15.64Q4.24-14.57 4.22-13.31L4.22-13.31L4.22-13.31Q4.20-12.05 4.20-10.73L4.20-10.73L4.20-10.73Q4.20-9.41 4.18-8.27L4.18-8.27L4.18-8.27Q4.16-7.13 4.16-6.31L4.16-6.31L4.16-6.31Q4.16-5.49 4.16-5.25L4.16-5.25L4.16-5.25Q4.16-4.36 4.44-4.36L4.44-4.36L4.44-4.36Q4.60-4.36 4.86-4.86L4.86-4.86L4.86-4.86Q5.13-5.37 5.47-6.17L5.47-6.17L5.47-6.17Q5.81-6.97 6.21-7.95L6.21-7.95L6.21-7.95Q6.61-8.93 7.05-9.93L7.05-9.93L7.05-9.93Q7.77-11.53 8.33-12.91L8.33-12.91L8.33-12.91Q8.89-14.29 9.43-15.31L9.43-15.31L9.43-15.31Q9.97-16.34 10.59-16.90L10.59-16.90L10.59-16.90Q11.21-17.46 12.05-17.46L12.05-17.46L12.05-17.46Q13.21-17.46 13.73-16.40L13.73-16.40L13.73-16.40Q14.25-15.33 14.25-12.89L14.25-12.89L14.25-12.89Q14.25-11.93 14.23-10.55L14.23-10.55L14.23-10.55Q14.21-9.17 14.21-7.89L14.21-7.89L14.21-7.89Q14.21-6.61 14.19-5.61L14.19-5.61L14.19-5.61Q14.17-4.60 14.17-4.44L14.17-4.44L14.17-4.44Q14.17-3.92 14.25-3.92L14.25-3.92L14.25-3.92Q14.33-3.92 14.51-4.32L14.51-4.32L14.51-4.32Q14.69-4.72 14.95-5.41L14.95-5.41L14.95-5.41Q15.21-6.09 15.56-6.99L15.56-6.99L15.56-6.99Q15.90-7.89 16.26-8.85L16.26-8.85L16.26-8.85Q16.98-10.73 17.50-12.15L17.50-12.15L17.50-12.15Q18.02-13.57 18.50-14.53L18.50-14.53L18.50-14.53Q18.98-15.50 19.48-16.00L19.48-16.00L19.48-16.00Q19.98-16.50 20.58-16.50L20.58-16.50L20.58-16.50Q20.74-16.50 21.12-16.44L21.12-16.44L21.12-16.44Q21.50-16.38 21.90-16.16L21.90-16.16L21.90-16.16Q22.30-15.94 22.58-15.52L22.58-15.52L22.58-15.52Q22.86-15.09 22.86-14.33L22.86-14.33L22.86-14.33Q22.86-13.89 22.90-12.61L22.90-12.61L22.90-12.61Q22.94-11.33 23.02-9.83L23.02-9.83L23.02-9.83Q23.10-8.33 23.16-6.93L23.16-6.93L23.16-6.93Q23.22-5.53 23.30-4.84L23.30-4.84L23.30-4.84Q23.34-3.92 23.66-3.38L23.66-3.38L23.66-3.38Q23.98-2.84 24.30-2.50L24.30-2.50L24.30-2.50Q24.62-2.16 24.90-2.00L24.90-2.00L24.90-2.00Q25.18-1.84 25.18-1.72L25.18-1.72L25.18-1.72Q25.18-1.52 24.68-1.34L24.68-1.34L24.68-1.34Q24.18-1.16 23.70-1.16L23.70-1.16L23.70-1.16Q22.14-1.16 21.50-2.12L21.50-2.12L21.50-2.12Q20.86-3.08 20.68-4.76L20.68-4.76L20.68-4.76Q20.50-6.45 20.52-8.69L20.52-8.69L20.52-8.69Q20.54-10.93 20.34-13.53L20.34-13.53L20.34-13.53Q20.26-13.97 20.18-14.19L20.18-14.19L20.18-14.19Q20.10-14.41 19.78-14.41L19.78-14.41L19.78-14.41Q19.50-14.41 19.14-13.73L19.14-13.73L19.14-13.73Q18.78-13.05 18.38-12.03L18.38-12.03L18.38-12.03Q17.98-11.01 17.56-9.81L17.56-9.81L17.56-9.81Q17.14-8.61 16.74-7.53L16.74-7.53L16.74-7.53Q16.46-6.81 16.06-5.65L16.06-5.65L16.06-5.65Q15.66-4.48 15.19-3.38L15.19-3.38L15.19-3.38Q14.73-2.28 14.21-1.50L14.21-1.50L14.21-1.50Q13.69-0.72 13.13-0.72L13.13-0.72L13.13-0.72Q12.53-0.72 12.27-1.18L12.27-1.18L12.27-1.18Q12.01-1.64 11.93-2.64L11.93-2.64L11.93-2.64Q11.85-3.64 11.87-5.21L11.87-5.21L11.87-5.21Q11.89-6.77 11.89-8.93L11.89-8.93L11.89-13.45L11.89-13.45Q11.89-14.57 11.63-14.83L11.63-14.83L11.63-14.83Q11.37-15.09 11.05-15.09L11.05-15.09L11.05-15.09Q10.61-15.09 10.29-14.71L10.29-14.71L10.29-14.71Q9.97-14.33 9.53-13.29L9.53-13.29L9.53-13.29Q9.33-12.85 8.95-11.95L8.95-11.95L8.95-11.95Q8.57-11.05 8.09-9.93L8.09-9.93L8.09-9.93Q7.61-8.81 7.09-7.59L7.09-7.59L7.09-7.59Q6.57-6.37 6.09-5.29L6.09-5.29L6.09-5.29Q5.61-4.20 5.23-3.38L5.23-3.38L5.23-3.38Q4.84-2.56 4.68-2.28L4.68-2.28L4.68-2.28Q4.16-1.60 3.80-1.38L3.80-1.38L3.80-1.38Q3.44-1.16 2.96-1.16L2.96-1.16L2.96-1.16Q2.76-1.16 2.54-1.26L2.54-1.26L2.54-1.26Q2.32-1.36 2.12-1.62L2.12-1.62L2.12-1.62Q1.92-1.88 1.78-2.38L1.78-2.38L1.78-2.38Q1.64-2.88 1.64-3.68L1.64-3.68L1.64-17.38L1.64-17.38Q1.64-18.22 1.40-18.52L1.40-18.52L1.40-18.52Q1.16-18.82 0.86-18.90L0.86-18.90L0.86-18.90Q0.56-18.98 0.32-18.98L0.32-18.98L0.32-18.98Q0.08-18.98 0.08-19.18L0.08-19.18L0.08-19.18Q0.08-19.38 0.38-19.60L0.38-19.60L0.38-19.60Q0.68-19.82 1.04-20.00L1.04-20.00L1.04-20.00Q1.40-20.18 1.72-20.32L1.72-20.32L1.72-20.32Q2.04-20.46 2.12-20.50ZM40.08-19.78L40.08-19.78L40.08-19.78Q40.60-19.66 40.60-19.10L40.60-19.10L40.60-19.10Q40.60-18.94 40.50-18.68L40.50-18.68L40.50-18.68Q40.40-18.42 40.26-18.16L40.26-18.16L40.26-18.16Q40.12-17.90 39.96-17.72L39.96-17.72L39.96-17.72Q39.80-17.54 39.68-17.54L39.68-17.54L39.68-17.54Q39.48-17.54 39.20-17.68L39.20-17.68L39.20-17.68Q38.92-17.82 38.40-18.00L38.40-18.00L38.40-18.00Q37.88-18.18 37.04-18.32L37.04-18.32L37.04-18.32Q36.20-18.46 34.83-18.46L34.83-18.46L34.83-18.46Q32.91-18.46 31.63-17.74L31.63-17.74L31.63-17.74Q30.35-17.02 30.35-15.74L30.35-15.74L30.35-15.74Q30.35-14.81 31.13-14.19L31.13-14.19L31.13-14.19Q31.91-13.57 32.97-13.21L32.97-13.21L32.97-13.21Q34.03-12.85 35.13-12.69L35.13-12.69L35.13-12.69Q36.24-12.53 36.84-12.53L36.84-12.53L36.84-12.53Q37.28-12.53 37.42-12.39L37.42-12.39L37.42-12.39Q37.56-12.25 37.56-12.13L37.56-12.13L37.56-12.13Q37.56-11.81 37.30-11.75L37.30-11.75L37.30-11.75Q37.04-11.69 36.64-11.57L36.64-11.57L36.64-11.57Q35.59-11.21 34.51-10.67L34.51-10.67L34.51-10.67Q33.43-10.13 32.53-9.39L32.53-9.39L32.53-9.39Q31.63-8.65 31.07-7.73L31.07-7.73L31.07-7.73Q30.51-6.81 30.51-5.73L30.51-5.73L30.51-5.73Q30.51-3.92 31.97-2.74L31.97-2.74L31.97-2.74Q33.43-1.56 36.08-1.56L36.08-1.56L36.08-1.56Q39.08-1.56 41.08-2.46L41.08-2.46L41.08-2.46Q43.08-3.36 44.38-4.56L44.38-4.56L44.38-4.56Q45.68-5.77 46.41-6.99L46.41-6.99L46.41-6.99Q47.13-8.21 47.49-8.85L47.49-8.85L47.73-8.69L47.73-8.69Q47.05-6.73 45.98-5.04L45.98-5.04L45.98-5.04Q44.92-3.36 43.42-2.14L43.42-2.14L43.42-2.14Q41.92-0.92 39.92-0.22L39.92-0.22L39.92-0.22Q37.92 0.48 35.35 0.48L35.35 0.48L35.35 0.48Q33.79 0.48 32.47 0.10L32.47 0.10L32.47 0.10Q31.15-0.28 30.19-0.96L30.19-0.96L30.19-0.96Q29.23-1.64 28.71-2.64L28.71-2.64L28.71-2.64Q28.19-3.64 28.19-4.92L28.19-4.92L28.19-4.92Q28.19-6.41 28.87-7.49L28.87-7.49L28.87-7.49Q29.55-8.57 30.43-9.27L30.43-9.27L30.43-9.27Q31.31-9.97 32.17-10.35L32.17-10.35L32.17-10.35Q33.03-10.73 33.39-10.89L33.39-10.89L33.39-10.89Q32.15-11.09 31.19-11.57L31.19-11.57L31.19-11.57Q30.39-12.01 29.71-12.79L29.71-12.79L29.71-12.79Q29.03-13.57 29.03-14.93L29.03-14.93L29.03-14.93Q29.03-16.18 29.63-17.20L29.63-17.20L29.63-17.20Q30.23-18.22 31.25-18.90L31.25-18.90L31.25-18.90Q32.27-19.58 33.61-19.96L33.61-19.96L33.61-19.96Q34.95-20.34 36.48-20.34L36.48-20.34L36.48-20.34Q37.36-20.34 38.26-20.22L38.26-20.22L38.26-20.22Q39.16-20.10 40.08-19.78ZM56.66-17.30L57.06-17.30L57.06-17.30Q56.94-18.46 56.92-19.70L56.92-19.70L56.92-19.70Q56.90-20.94 56.90-22.30L56.90-22.30L56.90-22.30Q56.90-25.18 57.04-28.37L57.04-28.37L57.04-28.37Q57.18-31.55 57.48-34.63L57.48-34.63L57.48-34.63Q57.78-37.72 58.22-40.52L58.22-40.52L58.22-40.52Q58.66-43.32 59.30-45.44L59.30-45.44L59.30-45.44Q59.94-47.57 60.74-48.83L60.74-48.83L60.74-48.83Q61.54-50.09 62.54-50.09L62.54-50.09L62.54-50.09Q64.06-50.09 64.78-47.41L64.78-47.41L64.78-47.41Q65.50-44.72 65.50-39.12L65.50-39.12L65.50-39.12Q65.50-35.83 65.08-31.77L65.08-31.77L65.08-31.77Q64.66-27.71 63.62-23.46L63.62-23.46L63.62-23.46Q62.74-19.82 61.96-17.08L61.96-17.08L61.96-17.08Q61.18-14.33 60.50-12.29L60.50-12.29L60.50-12.29Q60.86-10.37 61.40-8.65L61.40-8.65L61.40-8.65Q61.94-6.93 62.62-5.65L62.62-5.65L62.62-5.65Q63.30-4.36 64.14-3.62L64.14-3.62L64.14-3.62Q64.98-2.88 65.98-2.88L65.98-2.88L65.98-2.88Q66.83-2.88 67.67-3.56L67.67-3.56L67.67-3.56Q68.51-4.24 69.25-5.17L69.25-5.17L69.25-5.17Q69.99-6.09 70.57-7.05L70.57-7.05L70.57-7.05Q71.15-8.01 71.47-8.61L71.47-8.61L71.83-8.45L71.83-8.45Q71.83-8.45 71.63-7.89L71.63-7.89L71.63-7.89Q71.43-7.33 71.03-6.47L71.03-6.47L71.03-6.47Q70.63-5.61 70.05-4.60L70.05-4.60L70.05-4.60Q69.47-3.60 68.75-2.74L68.75-2.74L68.75-2.74Q68.03-1.88 67.15-1.30L67.15-1.30L67.15-1.30Q66.26-0.72 65.26-0.72L65.26-0.72L65.26-0.72Q63.10-0.72 61.46-2.56L61.46-2.56L61.46-2.56Q59.82-4.40 58.70-7.89L58.70-7.89L58.70-7.89Q58.14-6.61 57.30-5.39L57.30-5.39L57.30-5.39Q56.46-4.16 55.41-3.22L55.41-3.22L55.41-3.22Q54.37-2.28 53.11-1.72L53.11-1.72L53.11-1.72Q51.85-1.16 50.49-1.16L50.49-1.16L50.49-1.16Q49.45-1.16 48.51-1.52L48.51-1.52L48.51-1.52Q47.57-1.88 46.89-2.58L46.89-2.58L46.89-2.58Q46.21-3.28 45.80-4.24L45.80-4.24L45.80-4.24Q45.40-5.21 45.40-6.41L45.40-6.41L45.40-6.41Q45.40-8.45 46.33-10.39L46.33-10.39L46.33-10.39Q47.25-12.33 48.81-13.87L48.81-13.87L48.81-13.87Q50.37-15.42 52.39-16.36L52.39-16.36L52.39-16.36Q54.41-17.30 56.66-17.30L56.66-17.30ZM61.82-48.21L61.82-48.21L61.82-48.21Q61.38-48.21 61.04-47.07L61.04-47.07L61.04-47.07Q60.70-45.92 60.42-44.04L60.42-44.04L60.42-44.04Q60.14-42.16 59.94-39.72L59.94-39.72L59.94-39.72Q59.74-37.28 59.60-34.71L59.60-34.71L59.60-34.71Q59.46-32.15 59.40-29.65L59.40-29.65L59.40-29.65Q59.34-27.15 59.34-25.10L59.34-25.10L59.34-25.10Q59.34-22.74 59.54-19.96L59.54-19.96L59.54-19.96Q59.74-17.18 60.18-14.41L60.18-14.41L60.18-14.41Q60.78-16.34 61.42-18.76L61.42-18.76L61.42-18.76Q62.06-21.18 62.56-23.96L62.56-23.96L62.56-23.96Q63.06-26.75 63.38-29.85L63.38-29.85L63.38-29.85Q63.70-32.95 63.70-36.32L63.70-36.32L63.70-36.32Q63.70-39.08 63.58-41.28L63.58-41.28L63.58-41.28Q63.46-43.48 63.24-45.02L63.24-45.02L63.24-45.02Q63.02-46.57 62.66-47.39L62.66-47.39L62.66-47.39Q62.30-48.21 61.82-48.21ZM52.05-3.60L52.05-3.60L52.05-3.60Q53.29-3.60 54.25-4.14L54.25-4.14L54.25-4.14Q55.21-4.68 55.97-5.51L55.97-5.51L55.97-5.51Q56.74-6.33 57.30-7.33L57.30-7.33L57.30-7.33Q57.86-8.33 58.30-9.25L58.30-9.25L58.30-9.25Q57.90-10.69 57.66-12.23L57.66-12.23L57.66-12.23Q57.42-13.77 57.22-15.50L57.22-15.50L57.22-15.50Q56.62-15.74 55.89-15.74L55.89-15.74L55.89-15.74Q53.81-15.74 52.31-15.07L52.31-15.07L52.31-15.07Q50.81-14.41 49.85-13.37L49.85-13.37L49.85-13.37Q48.89-12.33 48.43-11.05L48.43-11.05L48.43-11.05Q47.97-9.77 47.97-8.53L47.97-8.53L47.97-8.53Q47.97-6.41 49.11-5.00L49.11-5.00L49.11-5.00Q50.25-3.60 52.05-3.60ZM72.07-16.66L72.07-16.66L72.07-16.66Q72.39-16.66 72.69-16.48L72.69-16.48L72.69-16.48Q72.99-16.30 73.21-16.10L73.21-16.10L73.21-16.10Q73.43-15.90 73.57-15.68L73.57-15.68L73.57-15.68Q73.71-15.46 73.71-15.42L73.71-15.42L73.71-15.42Q73.71-15.38 73.61-14.99L73.61-14.99L73.61-14.99Q73.51-14.61 73.37-13.73L73.37-13.73L73.37-13.73Q73.23-12.85 73.13-11.43L73.13-11.43L73.13-11.43Q73.03-10.01 73.03-7.89L73.03-7.89L73.03-7.89Q73.03-5.04 73.73-3.92L73.73-3.92L73.73-3.92Q74.43-2.80 75.43-2.80L75.43-2.80L75.43-2.80Q76.43-2.80 77.42-3.40L77.42-3.40L77.42-3.40Q78.40-4.00 79.28-4.96L79.28-4.96L79.28-4.96Q80.16-5.93 80.94-7.15L80.94-7.15L80.94-7.15Q81.72-8.37 82.32-9.61L82.32-9.61L82.56-9.45L82.56-9.45Q82.40-9.05 82.08-8.23L82.08-8.23L82.08-8.23Q81.76-7.41 81.28-6.45L81.28-6.45L81.28-6.45Q80.80-5.49 80.14-4.46L80.14-4.46L80.14-4.46Q79.48-3.44 78.62-2.62L78.62-2.62L78.62-2.62Q77.76-1.80 76.73-1.26L76.73-1.26L76.73-1.26Q75.71-0.72 74.51-0.72L74.51-0.72L74.51-0.72Q73.67-0.72 72.97-1.04L72.97-1.04L72.97-1.04Q72.27-1.36 71.73-2.22L71.73-2.22L71.73-2.22Q71.19-3.08 70.89-4.60L70.89-4.60L70.89-4.60Q70.59-6.13 70.59-8.53L70.59-8.53L70.59-8.53Q70.59-9.77 70.69-11.19L70.69-11.19L70.69-11.19Q70.79-12.61 70.97-13.83L70.97-13.83L70.97-13.83Q71.15-15.05 71.43-15.86L71.43-15.86L71.43-15.86Q71.71-16.66 72.07-16.66ZM73.03-26.59L73.03-26.59L73.03-26.59Q74.03-26.59 74.47-25.89L74.47-25.89L74.47-25.89Q74.91-25.18 74.91-24.18L74.91-24.18L74.91-24.18Q74.91-23.02 74.27-22.38L74.27-22.38L74.27-22.38Q73.63-21.74 72.71-21.74L72.71-21.74L72.71-21.74Q72.03-21.74 71.39-22.26L71.39-22.26L71.39-22.26Q70.75-22.78 70.75-23.94L70.75-23.94L70.75-23.94Q70.75-25.22 71.39-25.91L71.39-25.91L71.39-25.91Q72.03-26.59 73.03-26.59ZM95.09-8.85L95.33-8.69L95.33-8.69Q95.05-7.89 94.45-6.53L94.45-6.53L94.45-6.53Q93.85-5.17 92.83-3.86L92.83-3.86L92.83-3.86Q91.81-2.56 90.35-1.64L90.35-1.64L90.35-1.64Q88.89-0.72 86.96-0.80L86.96-0.80L86.96-0.80Q85.24-0.92 84.08-1.80L84.08-1.80L84.08-1.80Q82.92-2.68 82.20-4.50L82.20-4.50L82.20-4.50Q81.48-6.33 81.16-9.11L81.16-9.11L81.16-9.11Q80.84-11.89 80.84-15.82L80.84-15.82L80.84-15.82Q80.84-19.58 81.04-22.60L81.04-22.60L81.04-22.60Q81.24-25.63 81.56-27.95L81.56-27.95L81.56-27.95Q79.72-27.87 78.34-27.87L78.34-27.87L78.34-27.87Q76.96-27.87 76.39-27.87L76.39-27.87L76.39-27.87Q75.23-27.87 74.09-28.03L74.09-28.03L74.09-28.03Q72.95-28.19 71.95-28.59L71.95-28.59L71.95-28.59Q70.95-28.99 70.11-29.65L70.11-29.65L70.11-29.65Q69.27-30.31 68.71-31.31L68.71-31.31L68.87-31.67L68.87-31.67Q68.91-31.59 69.25-31.29L69.25-31.29L69.25-31.29Q69.59-30.99 70.47-30.67L70.47-30.67L70.47-30.67Q71.35-30.35 72.87-30.09L72.87-30.09L72.87-30.09Q74.39-29.83 76.79-29.83L76.79-29.83L81.80-29.83L81.80-29.83Q82.44-33.43 83.10-35.21L83.10-35.21L83.10-35.21Q83.76-37.00 84.00-37.48L84.00-37.48L84.00-37.48Q84.32-38.16 84.94-38.64L84.94-38.64L84.94-38.64Q85.56-39.12 86.00-39.12L86.00-39.12L86.00-39.12Q86.84-39.12 87.37-37.52L87.37-37.52L87.37-37.52Q87.89-35.92 87.89-32.55L87.89-32.55L87.89-32.55Q87.89-31.95 87.85-31.29L87.85-31.29L87.85-31.29Q87.81-30.63 87.81-29.95L87.81-29.95L87.81-29.95Q89.73-29.99 91.47-30.03L91.47-30.03L91.47-30.03Q93.21-30.07 94.59-30.11L94.59-30.11L94.59-30.11Q95.97-30.15 96.91-30.19L96.91-30.19L96.91-30.19Q97.86-30.23 98.14-30.27L98.14-30.27L98.14-30.27Q98.34-30.27 98.82-30.31L98.82-30.31L98.82-30.31Q99.30-30.35 99.46-30.35L99.46-30.35L99.46-30.35Q100.10-30.35 100.10-29.95L100.10-29.95L100.10-29.95Q100.10-29.39 99.76-28.93L99.76-28.93L99.76-28.93Q99.42-28.47 98.38-28.39L98.38-28.39L98.38-28.39Q98.18-28.35 97.19-28.33L97.19-28.33L97.19-28.33Q96.21-28.31 94.73-28.27L94.73-28.27L94.73-28.27Q93.25-28.23 91.41-28.17L91.41-28.17L91.41-28.17Q89.57-28.11 87.65-28.03L87.65-28.03L87.65-28.03Q87.25-24.62 86.20-20.60L86.20-20.60L86.20-20.60Q85.16-16.58 83.28-11.97L83.28-11.97L83.28-11.97Q83.44-9.33 83.74-7.57L83.74-7.57L83.74-7.57Q84.04-5.81 84.56-4.74L84.56-4.74L84.56-4.74Q85.08-3.68 85.86-3.24L85.86-3.24L85.86-3.24Q86.64-2.80 87.73-2.80L87.73-2.80L87.73-2.80Q88.89-2.80 89.89-3.24L89.89-3.24L89.89-3.24Q90.89-3.68 91.71-4.34L91.71-4.34L91.71-4.34Q92.53-5.00 93.15-5.79L93.15-5.79L93.15-5.79Q93.77-6.57 94.19-7.25L94.19-7.25L94.19-7.25Q94.61-7.93 94.83-8.37L94.83-8.37L94.83-8.37Q95.05-8.81 95.09-8.85L95.09-8.85ZM86.08-28.03L86.08-28.03L86.08-28.03Q85.40-28.03 84.76-27.99L84.76-27.99L84.76-27.99Q84.12-27.95 83.44-27.95L83.44-27.95L83.44-27.95Q83.32-25.67 83.26-23.26L83.26-23.26L83.26-23.26Q83.20-20.86 83.20-18.70L83.20-18.70L83.20-14.17L83.20-14.17Q84.36-17.82 85.10-21.26L85.10-21.26L85.10-21.26Q85.84-24.70 86.08-28.03ZM83.60-29.83L83.60-29.83L83.60-29.83Q84.24-29.83 84.90-29.89L84.90-29.89L84.90-29.89Q85.56-29.95 86.24-29.95L86.24-29.95L86.24-31.31L86.24-31.31Q86.24-33.31 86.12-34.51L86.12-34.51L86.12-34.51Q86.00-35.71 85.86-36.38L85.86-36.38L85.86-36.38Q85.72-37.04 85.54-37.26L85.54-37.26L85.54-37.26Q85.36-37.48 85.24-37.48L85.24-37.48L85.24-37.48Q84.92-37.48 84.68-36.88L84.68-36.88L84.68-36.88Q84.44-36.28 84.24-35.25L84.24-35.25L84.24-35.25Q84.04-34.23 83.88-32.83L83.88-32.83L83.88-32.83Q83.72-31.43 83.60-29.83ZM107.83-13.85L107.83-13.85L107.83-13.85Q107.46-13.85 107.16-14.27L107.16-14.27L107.16-14.27Q106.86-14.69 106.38-15.17L106.38-15.17L106.38-15.17Q105.90-15.66 105.16-16.08L105.16-16.08L105.16-16.08Q104.42-16.50 103.22-16.50L103.22-16.50L103.22-16.50Q101.54-16.50 100.10-15.64L100.10-15.64L100.10-15.64Q98.66-14.77 97.62-13.47L97.62-13.47L97.62-13.47Q96.57-12.17 95.99-10.63L95.99-10.63L95.99-10.63Q95.41-9.09 95.41-7.73L95.41-7.73L95.41-7.73Q95.41-5.61 96.49-4.24L96.49-4.24L96.49-4.24Q97.58-2.88 99.38-2.88L99.38-2.88L99.38-2.88Q100.78-2.88 101.84-3.42L101.84-3.42L101.84-3.42Q102.90-3.96 103.62-4.84L103.62-4.84L103.62-4.84Q103.38-5.93 103.38-7.53L103.38-7.53L103.38-7.53Q103.38-9.25 103.64-10.33L103.64-10.33L103.64-10.33Q103.90-11.41 104.28-12.01L104.28-12.01L104.28-12.01Q104.66-12.61 105.06-12.83L105.06-12.83L105.06-12.83Q105.46-13.05 105.74-13.05L105.74-13.05L105.74-13.05Q106.06-13.05 106.48-12.61L106.48-12.61L106.48-12.61Q106.90-12.17 106.90-11.05L106.90-11.05L106.90-11.05Q106.90-9.65 106.40-8.11L106.40-8.11L106.40-8.11Q105.90-6.57 105.02-5.17L105.02-5.17L105.02-5.17Q105.50-3.92 106.50-3.36L106.50-3.36L106.50-3.36Q107.50-2.80 108.79-2.80L108.79-2.80L108.79-2.80Q109.91-2.80 110.89-3.30L110.89-3.30L110.89-3.30Q111.87-3.80 112.73-4.64L112.73-4.64L112.73-4.64Q113.59-5.49 114.35-6.59L114.35-6.59L114.35-6.59Q115.11-7.69 115.75-8.85L115.75-8.85L115.99-8.69L115.99-8.69Q115.51-7.17 114.71-5.73L114.71-5.73L114.71-5.73Q113.91-4.28 112.87-3.16L112.87-3.16L112.87-3.16Q111.83-2.04 110.61-1.38L110.61-1.38L110.61-1.38Q109.39-0.72 108.07-0.72L108.07-0.72L108.07-0.72Q107.06-0.72 105.88-1.38L105.88-1.38L105.88-1.38Q104.70-2.04 103.94-3.76L103.94-3.76L103.94-3.76Q102.70-2.28 101.10-1.30L101.10-1.30L101.10-1.30Q99.50-0.32 97.66-0.32L97.66-0.32L97.66-0.32Q96.61-0.32 95.77-0.80L95.77-0.80L95.77-0.80Q94.93-1.28 94.35-2.08L94.35-2.08L94.35-2.08Q93.77-2.88 93.45-3.96L93.45-3.96L93.45-3.96Q93.13-5.04 93.13-6.25L93.13-6.25L93.13-6.25Q93.13-8.29 94.03-10.33L94.03-10.33L94.03-10.33Q94.93-12.37 96.43-14.01L96.43-14.01L96.43-14.01Q97.94-15.66 99.88-16.68L99.88-16.68L99.88-16.68Q101.82-17.70 103.94-17.70L103.94-17.70L103.94-17.70Q105.50-17.70 106.56-17.36L106.56-17.36L106.56-17.36Q107.63-17.02 108.27-16.56L108.27-16.56L108.27-16.56Q108.91-16.10 109.19-15.62L109.19-15.62L109.19-15.62Q109.47-15.13 109.47-14.85L109.47-14.85L109.47-14.85Q109.47-14.29 108.89-14.07L108.89-14.07L108.89-14.07Q108.31-13.85 107.83-13.85ZM104.46-8.53L104.46-8.53L104.46-8.53Q104.46-7.21 104.70-6.25L104.70-6.25L104.70-6.25Q105.30-7.37 105.58-8.55L105.58-8.55L105.58-8.55Q105.86-9.73 105.86-10.57L105.86-10.57L105.86-10.57Q105.86-11.57 105.50-11.57L105.50-11.57L105.50-11.57Q105.14-11.57 104.80-10.69L104.80-10.69L104.80-10.69Q104.46-9.81 104.46-8.53ZM128.89-8.85L129.13-8.69L129.13-8.69Q128.85-7.89 128.25-6.53L128.25-6.53L128.25-6.53Q127.64-5.17 126.62-3.86L126.62-3.86L126.62-3.86Q125.60-2.56 124.14-1.64L124.14-1.64L124.14-1.64Q122.68-0.72 120.76-0.80L120.76-0.80L120.76-0.80Q119.04-0.92 117.88-1.80L117.88-1.80L117.88-1.80Q116.71-2.68 115.99-4.50L115.99-4.50L115.99-4.50Q115.27-6.33 114.95-9.11L114.95-9.11L114.95-9.11Q114.63-11.89 114.63-15.82L114.63-15.82L114.63-15.82Q114.63-19.58 114.83-22.60L114.83-22.60L114.83-22.60Q115.03-25.63 115.35-27.95L115.35-27.95L115.35-27.95Q113.51-27.87 112.13-27.87L112.13-27.87L112.13-27.87Q110.75-27.87 110.19-27.87L110.19-27.87L110.19-27.87Q109.03-27.87 107.89-28.03L107.89-28.03L107.89-28.03Q106.74-28.19 105.74-28.59L105.74-28.59L105.74-28.59Q104.74-28.99 103.90-29.65L103.90-29.65L103.90-29.65Q103.06-30.31 102.50-31.31L102.50-31.31L102.66-31.67L102.66-31.67Q102.70-31.59 103.04-31.29L103.04-31.29L103.04-31.29Q103.38-30.99 104.26-30.67L104.26-30.67L104.26-30.67Q105.14-30.35 106.66-30.09L106.66-30.09L106.66-30.09Q108.19-29.83 110.59-29.83L110.59-29.83L115.59-29.83L115.59-29.83Q116.23-33.43 116.89-35.21L116.89-35.21L116.89-35.21Q117.55-37.00 117.79-37.48L117.79-37.48L117.79-37.48Q118.12-38.16 118.74-38.64L118.74-38.64L118.74-38.64Q119.36-39.12 119.80-39.12L119.80-39.12L119.80-39.12Q120.64-39.12 121.16-37.52L121.16-37.52L121.16-37.52Q121.68-35.92 121.68-32.55L121.68-32.55L121.68-32.55Q121.68-31.95 121.64-31.29L121.64-31.29L121.64-31.29Q121.60-30.63 121.60-29.95L121.60-29.95L121.60-29.95Q123.52-29.99 125.26-30.03L125.26-30.03L125.26-30.03Q127.00-30.07 128.39-30.11L128.39-30.11L128.39-30.11Q129.77-30.15 130.71-30.19L130.71-30.19L130.71-30.19Q131.65-30.23 131.93-30.27L131.93-30.27L131.93-30.27Q132.13-30.27 132.61-30.31L132.61-30.31L132.61-30.31Q133.09-30.35 133.25-30.35L133.25-30.35L133.25-30.35Q133.89-30.35 133.89-29.95L133.89-29.95L133.89-29.95Q133.89-29.39 133.55-28.93L133.55-28.93L133.55-28.93Q133.21-28.47 132.17-28.39L132.17-28.39L132.17-28.39Q131.97-28.35 130.99-28.33L130.99-28.33L130.99-28.33Q130.01-28.31 128.53-28.27L128.53-28.27L128.53-28.27Q127.04-28.23 125.20-28.17L125.20-28.17L125.20-28.17Q123.36-28.11 121.44-28.03L121.44-28.03L121.44-28.03Q121.04-24.62 120.00-20.60L120.00-20.60L120.00-20.60Q118.96-16.58 117.07-11.97L117.07-11.97L117.07-11.97Q117.23-9.33 117.53-7.57L117.53-7.57L117.53-7.57Q117.83-5.81 118.36-4.74L118.36-4.74L118.36-4.74Q118.88-3.68 119.66-3.24L119.66-3.24L119.66-3.24Q120.44-2.80 121.52-2.80L121.52-2.80L121.52-2.80Q122.68-2.80 123.68-3.24L123.68-3.24L123.68-3.24Q124.68-3.68 125.50-4.34L125.50-4.34L125.50-4.34Q126.32-5.00 126.94-5.79L126.94-5.79L126.94-5.79Q127.56-6.57 127.98-7.25L127.98-7.25L127.98-7.25Q128.41-7.93 128.63-8.37L128.63-8.37L128.63-8.37Q128.85-8.81 128.89-8.85L128.89-8.85ZM119.88-28.03L119.88-28.03L119.88-28.03Q119.20-28.03 118.56-27.99L118.56-27.99L118.56-27.99Q117.92-27.95 117.23-27.95L117.23-27.95L117.23-27.95Q117.11-25.67 117.05-23.26L117.05-23.26L117.05-23.26Q116.99-20.86 116.99-18.70L116.99-18.70L116.99-14.17L116.99-14.17Q118.16-17.82 118.90-21.26L118.90-21.26L118.90-21.26Q119.64-24.70 119.88-28.03ZM117.39-29.83L117.39-29.83L117.39-29.83Q118.04-29.83 118.70-29.89L118.70-29.89L118.70-29.89Q119.36-29.95 120.04-29.95L120.04-29.95L120.04-31.31L120.04-31.31Q120.04-33.31 119.92-34.51L119.92-34.51L119.92-34.51Q119.80-35.71 119.66-36.38L119.66-36.38L119.66-36.38Q119.52-37.04 119.34-37.26L119.34-37.26L119.34-37.26Q119.16-37.48 119.04-37.48L119.04-37.48L119.04-37.48Q118.72-37.48 118.48-36.88L118.48-36.88L118.48-36.88Q118.24-36.28 118.04-35.25L118.04-35.25L118.04-35.25Q117.83-34.23 117.67-32.83L117.67-32.83L117.67-32.83Q117.51-31.43 117.39-29.83ZM129.49-16.66L129.49-16.66L129.49-16.66Q129.81-16.66 130.11-16.48L130.11-16.48L130.11-16.48Q130.41-16.30 130.63-16.10L130.63-16.10L130.63-16.10Q130.85-15.90 130.99-15.68L130.99-15.68L130.99-15.68Q131.13-15.46 131.13-15.42L131.13-15.42L131.13-15.42Q131.13-15.38 131.03-14.99L131.03-14.99L131.03-14.99Q130.93-14.61 130.79-13.73L130.79-13.73L130.79-13.73Q130.65-12.85 130.55-11.43L130.55-11.43L130.55-11.43Q130.45-10.01 130.45-7.89L130.45-7.89L130.45-7.89Q130.45-5.04 131.15-3.92L131.15-3.92L131.15-3.92Q131.85-2.80 132.85-2.80L132.85-2.80L132.85-2.80Q133.85-2.80 134.83-3.40L134.83-3.40L134.83-3.40Q135.81-4.00 136.69-4.96L136.69-4.96L136.69-4.96Q137.57-5.93 138.35-7.15L138.35-7.15L138.35-7.15Q139.14-8.37 139.74-9.61L139.74-9.61L139.98-9.45L139.98-9.45Q139.82-9.05 139.50-8.23L139.50-8.23L139.50-8.23Q139.18-7.41 138.70-6.45L138.70-6.45L138.70-6.45Q138.21-5.49 137.55-4.46L137.55-4.46L137.55-4.46Q136.89-3.44 136.03-2.62L136.03-2.62L136.03-2.62Q135.17-1.80 134.15-1.26L134.15-1.26L134.15-1.26Q133.13-0.72 131.93-0.72L131.93-0.72L131.93-0.72Q131.09-0.72 130.39-1.04L130.39-1.04L130.39-1.04Q129.69-1.36 129.15-2.22L129.15-2.22L129.15-2.22Q128.61-3.08 128.31-4.60L128.31-4.60L128.31-4.60Q128.00-6.13 128.00-8.53L128.00-8.53L128.00-8.53Q128.00-9.77 128.10-11.19L128.10-11.19L128.10-11.19Q128.21-12.61 128.39-13.83L128.39-13.83L128.39-13.83Q128.57-15.05 128.85-15.86L128.85-15.86L128.85-15.86Q129.13-16.66 129.49-16.66ZM130.45-26.59L130.45-26.59L130.45-26.59Q131.45-26.59 131.89-25.89L131.89-25.89L131.89-25.89Q132.33-25.18 132.33-24.18L132.33-24.18L132.33-24.18Q132.33-23.02 131.69-22.38L131.69-22.38L131.69-22.38Q131.05-21.74 130.13-21.74L130.13-21.74L130.13-21.74Q129.45-21.74 128.81-22.26L128.81-22.26L128.81-22.26Q128.17-22.78 128.17-23.94L128.17-23.94L128.17-23.94Q128.17-25.22 128.81-25.91L128.81-25.91L128.81-25.91Q129.45-26.59 130.45-26.59ZM145.38-2.52L145.38-2.52L145.38-2.52Q146.34-2.52 147.26-2.94L147.26-2.94L147.26-2.94Q148.18-3.36 148.91-4.18L148.91-4.18L148.91-4.18Q149.63-5.00 150.05-6.21L150.05-6.21L150.05-6.21Q150.47-7.41 150.47-9.01L150.47-9.01L150.47-9.01Q150.47-10.33 150.15-11.51L150.15-11.51L150.15-11.51Q149.83-12.69 149.21-13.57L149.21-13.57L149.21-13.57Q148.58-14.45 147.60-14.97L147.60-14.97L147.60-14.97Q146.62-15.50 145.30-15.50L145.30-15.50L145.30-15.50Q144.38-15.50 143.46-15.15L143.46-15.15L143.46-15.15Q142.54-14.81 141.82-14.07L141.82-14.07L141.82-14.07Q141.10-13.33 140.66-12.19L140.66-12.19L140.66-12.19Q140.22-11.05 140.22-9.45L140.22-9.45L140.22-9.45Q140.22-8.17 140.54-6.95L140.54-6.95L140.54-6.95Q140.86-5.73 141.48-4.72L141.48-4.72L141.48-4.72Q142.10-3.72 143.08-3.12L143.08-3.12L143.08-3.12Q144.06-2.52 145.38-2.52ZM143.98-0.48L143.98-0.48L143.98-0.48Q141.34-0.48 139.66-2.22L139.66-2.22L139.66-2.22Q137.97-3.96 137.97-7.29L137.97-7.29L137.97-7.29Q137.97-9.53 138.82-11.43L138.82-11.43L138.82-11.43Q139.66-13.33 141.00-14.71L141.00-14.71L141.00-14.71Q142.34-16.10 143.98-16.86L143.98-16.86L143.98-16.86Q145.62-17.62 147.18-17.62L147.18-17.62L147.18-17.62Q149.71-17.62 151.23-15.90L151.23-15.90L151.23-15.90Q152.75-14.17 152.75-10.81L152.75-10.81L152.75-10.81Q152.75-8.57 151.97-6.69L151.97-6.69L151.97-6.69Q151.19-4.80 149.93-3.42L149.93-3.42L149.93-3.42Q148.67-2.04 147.10-1.26L147.10-1.26L147.10-1.26Q145.54-0.48 143.98-0.48ZM158.67-17.86L158.67-17.86L158.67-17.86Q158.88-17.86 159.00-17.54L159.00-17.54L159.00-17.54Q159.12-17.22 159.18-16.78L159.18-16.78L159.18-16.78Q159.24-16.34 159.24-15.84L159.24-15.84L159.24-15.84Q159.24-15.33 159.24-14.93L159.24-14.93L159.24-14.93Q159.24-13.89 159.18-12.79L159.18-12.79L159.18-12.79Q159.12-11.69 159.06-10.67L159.06-10.67L159.06-10.67Q159.00-9.65 158.96-8.79L158.96-8.79L158.96-8.79Q158.92-7.93 158.92-7.37L158.92-7.37L158.92-7.37Q158.92-6.33 159.00-5.71L159.00-5.71L159.00-5.71Q159.08-5.08 159.40-5.08L159.40-5.08L159.40-5.08Q159.60-5.08 159.92-5.61L159.92-5.61L159.92-5.61Q160.24-6.13 160.62-6.87L160.62-6.87L160.62-6.87Q161.00-7.61 161.36-8.45L161.36-8.45L161.36-8.45Q161.72-9.29 162.04-9.93L162.04-9.93L162.04-9.93Q162.44-10.77 162.94-11.79L162.94-11.79L162.94-11.79Q163.44-12.81 164-13.71L164-13.71L164-13.71Q164.56-14.61 165.18-15.21L165.18-15.21L165.18-15.21Q165.80-15.82 166.48-15.82L166.48-15.82L166.48-15.82Q166.92-15.82 167.26-15.58L167.26-15.58L167.26-15.58Q167.60-15.33 167.84-14.95L167.84-14.95L167.84-14.95Q168.08-14.57 168.22-14.15L168.22-14.15L168.22-14.15Q168.36-13.73 168.44-13.37L168.44-13.37L168.44-13.37Q168.56-12.45 168.70-10.47L168.70-10.47L168.70-10.47Q168.84-8.49 169.08-6.25L169.08-6.25L169.08-6.25Q169.29-4.00 170.17-2.98L170.17-2.98L170.17-2.98Q171.05-1.96 172.45-1.96L172.45-1.96L172.45-1.96Q173.01-1.96 173.35-2.04L173.35-2.04L173.35-2.04Q173.69-2.12 173.93-2.12L173.93-2.12L173.93-2.12Q174.13-2.12 174.01-1.72L174.01-1.72L174.01-1.72Q173.97-1.64 173.83-1.50L173.83-1.50L173.83-1.50Q173.69-1.36 173.37-1.20L173.37-1.20L173.37-1.20Q173.05-1.04 172.51-0.92L172.51-0.92L172.51-0.92Q171.97-0.80 171.21-0.80L171.21-0.80L171.21-0.80Q169.93-0.80 169.08-1.22L169.08-1.22L169.08-1.22Q168.24-1.64 167.72-2.56L167.72-2.56L167.72-2.56Q167.20-3.48 166.96-4.94L166.96-4.94L166.96-4.94Q166.72-6.41 166.64-8.45L166.64-8.45L166.64-8.45Q166.56-9.41 166.50-10.31L166.50-10.31L166.50-10.31Q166.44-11.21 166.30-11.91L166.30-11.91L166.30-11.91Q166.16-12.61 165.92-13.03L165.92-13.03L165.92-13.03Q165.68-13.45 165.24-13.45L165.24-13.45L165.24-13.45Q164.88-13.45 164.38-12.73L164.38-12.73L164.38-12.73Q163.88-12.01 163.40-11.03L163.40-11.03L163.40-11.03Q162.92-10.05 162.50-9.01L162.50-9.01L162.50-9.01Q162.08-7.97 161.80-7.37L161.80-7.37L161.80-7.37Q160.92-5.49 160.34-4.28L160.34-4.28L160.34-4.28Q159.76-3.08 159.08-1.96L159.08-1.96L159.08-1.96Q158.88-1.64 158.65-1.44L158.65-1.44L158.65-1.44Q158.43-1.24 158.11-1.24L158.11-1.24L158.11-1.24Q157.63-1.24 157.35-2.04L157.35-2.04L157.35-2.04Q157.07-2.84 156.93-3.88L156.93-3.88L156.93-3.88Q156.79-4.92 156.75-5.99L156.75-5.99L156.75-5.99Q156.71-7.05 156.71-7.61L156.71-7.61L156.71-7.61Q156.71-8.25 156.73-9.17L156.73-9.17L156.73-9.17Q156.75-10.09 156.79-10.97L156.79-10.97L156.79-10.97Q156.83-11.85 156.85-12.57L156.85-12.57L156.85-12.57Q156.87-13.29 156.87-13.53L156.87-13.53L156.87-13.53Q156.87-13.77 156.85-14.19L156.85-14.19L156.85-14.19Q156.83-14.61 156.83-15.03L156.83-15.03L156.83-15.03Q156.83-15.46 156.81-15.80L156.81-15.80L156.81-15.80Q156.79-16.14 156.79-16.26L156.79-16.26L156.79-16.26Q156.79-16.58 156.97-16.80L156.97-16.80L156.97-16.80Q157.15-17.02 157.35-17.14L157.35-17.14L157.35-17.14Q157.55-17.26 157.99-17.56L157.99-17.56L157.99-17.56Q158.43-17.86 158.67-17.86ZM202.24-13.85L202.24-13.85L202.24-13.85Q201.88-13.85 201.58-14.27L201.58-14.27L201.58-14.27Q201.28-14.69 200.80-15.17L200.80-15.17L200.80-15.17Q200.32-15.66 199.57-16.08L199.57-16.08L199.57-16.08Q198.83-16.50 197.63-16.50L197.63-16.50L197.63-16.50Q195.95-16.50 194.51-15.64L194.51-15.64L194.51-15.64Q193.07-14.77 192.03-13.47L192.03-13.47L192.03-13.47Q190.99-12.17 190.41-10.63L190.41-10.63L190.41-10.63Q189.83-9.09 189.83-7.73L189.83-7.73L189.83-7.73Q189.83-5.61 190.91-4.24L190.91-4.24L190.91-4.24Q191.99-2.88 193.79-2.88L193.79-2.88L193.79-2.88Q195.19-2.88 196.25-3.42L196.25-3.42L196.25-3.42Q197.31-3.96 198.03-4.84L198.03-4.84L198.03-4.84Q197.79-5.93 197.79-7.53L197.79-7.53L197.79-7.53Q197.79-9.25 198.05-10.33L198.05-10.33L198.05-10.33Q198.31-11.41 198.69-12.01L198.69-12.01L198.69-12.01Q199.07-12.61 199.47-12.83L199.47-12.83L199.47-12.83Q199.88-13.05 200.16-13.05L200.16-13.05L200.16-13.05Q200.48-13.05 200.90-12.61L200.90-12.61L200.90-12.61Q201.32-12.17 201.32-11.05L201.32-11.05L201.32-11.05Q201.32-9.65 200.82-8.11L200.82-8.11L200.82-8.11Q200.32-6.57 199.43-5.17L199.43-5.17L199.43-5.17Q199.92-3.92 200.92-3.36L200.92-3.36L200.92-3.36Q201.92-2.80 203.20-2.80L203.20-2.80L203.20-2.80Q204.32-2.80 205.30-3.30L205.30-3.30L205.30-3.30Q206.28-3.80 207.14-4.64L207.14-4.64L207.14-4.64Q208.00-5.49 208.76-6.59L208.76-6.59L208.76-6.59Q209.52-7.69 210.17-8.85L210.17-8.85L210.41-8.69L210.41-8.69Q209.92-7.17 209.12-5.73L209.12-5.73L209.12-5.73Q208.32-4.28 207.28-3.16L207.28-3.16L207.28-3.16Q206.24-2.04 205.02-1.38L205.02-1.38L205.02-1.38Q203.80-0.72 202.48-0.72L202.48-0.72L202.48-0.72Q201.48-0.72 200.30-1.38L200.30-1.38L200.30-1.38Q199.11-2.04 198.35-3.76L198.35-3.76L198.35-3.76Q197.11-2.28 195.51-1.30L195.51-1.30L195.51-1.30Q193.91-0.32 192.07-0.32L192.07-0.32L192.07-0.32Q191.03-0.32 190.19-0.80L190.19-0.80L190.19-0.80Q189.34-1.28 188.76-2.08L188.76-2.08L188.76-2.08Q188.18-2.88 187.86-3.96L187.86-3.96L187.86-3.96Q187.54-5.04 187.54-6.25L187.54-6.25L187.54-6.25Q187.54-8.29 188.44-10.33L188.44-10.33L188.44-10.33Q189.34-12.37 190.85-14.01L190.85-14.01L190.85-14.01Q192.35-15.66 194.29-16.68L194.29-16.68L194.29-16.68Q196.23-17.70 198.35-17.70L198.35-17.70L198.35-17.70Q199.92-17.70 200.98-17.36L200.98-17.36L200.98-17.36Q202.04-17.02 202.68-16.56L202.68-16.56L202.68-16.56Q203.32-16.10 203.60-15.62L203.60-15.62L203.60-15.62Q203.88-15.13 203.88-14.85L203.88-14.85L203.88-14.85Q203.88-14.29 203.30-14.07L203.30-14.07L203.30-14.07Q202.72-13.85 202.24-13.85ZM198.87-8.53L198.87-8.53L198.87-8.53Q198.87-7.21 199.11-6.25L199.11-6.25L199.11-6.25Q199.71-7.37 200.00-8.55L200.00-8.55L200.00-8.55Q200.28-9.73 200.28-10.57L200.28-10.57L200.28-10.57Q200.28-11.57 199.92-11.57L199.92-11.57L199.92-11.57Q199.55-11.57 199.21-10.69L199.21-10.69L199.21-10.69Q198.87-9.81 198.87-8.53ZM212.49-24.18L212.49-24.18L212.49-24.18Q212.69-24.18 212.63-23.40L212.63-23.40L212.63-23.40Q212.57-22.62 212.43-21.40L212.43-21.40L212.43-21.40Q212.29-20.18 212.13-18.70L212.13-18.70L212.13-18.70Q211.97-17.22 211.97-15.82L211.97-15.82L211.97-15.82Q211.97-12.97 212.03-10.49L212.03-10.49L212.03-10.49Q212.09-8.01 212.21-5.65L212.21-5.65L212.21-5.65Q213.53-7.85 214.91-9.65L214.91-9.65L214.91-9.65Q216.29-11.45 217.69-12.73L217.69-12.73L217.69-12.73Q219.09-14.01 220.50-14.71L220.50-14.71L220.50-14.71Q221.90-15.42 223.30-15.42L223.30-15.42L223.30-15.42Q224.42-15.42 225.18-14.79L225.18-14.79L225.18-14.79Q225.94-14.17 225.94-12.61L225.94-12.61L225.94-12.61Q225.94-11.49 225.48-10.35L225.48-10.35L225.48-10.35Q225.02-9.21 224.24-8.07L224.24-8.07L224.24-8.07Q223.46-6.93 222.48-5.85L222.48-5.85L222.48-5.85Q221.50-4.76 220.50-3.80L220.50-3.80L220.50-3.80Q218.09-1.56 215.09 0.56L215.09 0.56L214.69 0.08L214.69 0.08Q217.05-1.96 218.93-3.92L218.93-3.92L218.93-3.92Q219.73-4.76 220.50-5.67L220.50-5.67L220.50-5.67Q221.26-6.57 221.86-7.47L221.86-7.47L221.86-7.47Q222.46-8.37 222.84-9.19L222.84-9.19L222.84-9.19Q223.22-10.01 223.22-10.73L223.22-10.73L223.22-10.73Q223.22-10.97 223.16-11.37L223.16-11.37L223.16-11.37Q223.10-11.77 222.86-12.15L222.86-12.15L222.86-12.15Q222.62-12.53 222.16-12.79L222.16-12.79L222.16-12.79Q221.70-13.05 220.94-13.05L220.94-13.05L220.94-13.05Q220.01-13.05 218.97-12.41L218.97-12.41L218.97-12.41Q217.93-11.77 216.83-10.59L216.83-10.59L216.83-10.59Q215.73-9.41 214.59-7.71L214.59-7.71L214.59-7.71Q213.45-6.01 212.33-3.92L212.33-3.92L212.33-3.92Q212.49-1.04 212.69 1.64L212.69 1.64L212.69 1.64Q212.89 4.32 213.07 6.99L213.07 6.99L213.07 6.99Q213.25 9.65 213.35 12.41L213.35 12.41L213.35 12.41Q213.45 15.17 213.45 18.22L213.45 18.22L213.45 18.22Q213.45 25.26 212.67 30.55L212.67 30.55L212.67 30.55Q211.89 35.83 210.67 39.38L210.67 39.38L210.67 39.38Q209.44 42.92 207.90 44.70L207.90 44.70L207.90 44.70Q206.36 46.49 204.84 46.49L204.84 46.49L204.84 46.49Q203.96 46.49 203.10 45.76L203.10 45.76L203.10 45.76Q202.24 45.04 201.58 43.66L201.58 43.66L201.58 43.66Q200.92 42.28 200.50 40.28L200.50 40.28L200.50 40.28Q200.08 38.28 200.08 35.67L200.08 35.67L200.08 35.67Q200.08 31.87 200.80 27.23L200.80 27.23L200.80 27.23Q201.52 22.58 202.82 17.72L202.82 17.72L202.82 17.72Q204.12 12.85 205.88 8.03L205.88 8.03L205.88 8.03Q207.64 3.20 209.68-1.00L209.68-1.00L209.68-5.00L209.68-5.00Q209.68-9.73 210.06-13.31L210.06-13.31L210.06-13.31Q210.45-16.90 210.93-19.32L210.93-19.32L210.93-19.32Q211.41-21.74 211.87-22.96L211.87-22.96L211.87-22.96Q212.33-24.18 212.49-24.18ZM210.61 19.86L210.61 19.86L210.61 19.86Q210.61 16.34 210.51 13.95L210.51 13.95L210.51 13.95Q210.41 11.57 210.27 9.63L210.27 9.63L210.27 9.63Q210.13 7.69 209.98 5.77L209.98 5.77L209.98 5.77Q209.84 3.84 209.76 1.24L209.76 1.24L209.76 1.24Q208.24 4.68 206.92 8.63L206.92 8.63L206.92 8.63Q205.60 12.57 204.58 16.78L204.58 16.78L204.58 16.78Q203.56 20.98 202.98 25.26L202.98 25.26L202.98 25.26Q202.40 29.55 202.40 33.63L202.40 33.63L202.40 33.63Q202.40 35.19 202.56 37.12L202.56 37.12L202.56 37.12Q202.72 39.04 203.14 40.72L203.14 40.72L203.14 40.72Q203.56 42.40 204.22 43.54L204.22 43.54L204.22 43.54Q204.88 44.68 205.92 44.68L205.92 44.68L205.92 44.68Q206.72 44.68 207.40 43.68L207.40 43.68L207.40 43.68Q208.08 42.68 208.60 40.92L208.60 40.92L208.60 40.92Q209.12 39.16 209.50 36.78L209.50 36.78L209.50 36.78Q209.88 34.39 210.13 31.63L210.13 31.63L210.13 31.63Q210.37 28.87 210.49 25.87L210.49 25.87L210.49 25.87Q210.61 22.86 210.61 19.86ZM232.07-24.18L232.07-24.18L232.07-24.18Q232.27-24.18 232.21-23.40L232.21-23.40L232.21-23.40Q232.15-22.62 232.01-21.40L232.01-21.40L232.01-21.40Q231.87-20.18 231.71-18.70L231.71-18.70L231.71-18.70Q231.55-17.22 231.55-15.82L231.55-15.82L231.55-15.82Q231.55-12.97 231.61-10.49L231.61-10.49L231.61-10.49Q231.67-8.01 231.79-5.65L231.79-5.65L231.79-5.65Q233.11-7.85 234.49-9.65L234.49-9.65L234.49-9.65Q235.87-11.45 237.27-12.73L237.27-12.73L237.27-12.73Q238.67-14.01 240.07-14.71L240.07-14.71L240.07-14.71Q241.48-15.42 242.88-15.42L242.88-15.42L242.88-15.42Q244.00-15.42 244.76-14.79L244.76-14.79L244.76-14.79Q245.52-14.17 245.52-12.61L245.52-12.61L245.52-12.61Q245.52-11.49 245.06-10.35L245.06-10.35L245.06-10.35Q244.60-9.21 243.82-8.07L243.82-8.07L243.82-8.07Q243.04-6.93 242.06-5.85L242.06-5.85L242.06-5.85Q241.08-4.76 240.07-3.80L240.07-3.80L240.07-3.80Q237.67-1.56 234.67 0.56L234.67 0.56L234.27 0.08L234.27 0.08Q236.63-1.96 238.51-3.92L238.51-3.92L238.51-3.92Q239.31-4.76 240.07-5.67L240.07-5.67L240.07-5.67Q240.83-6.57 241.44-7.47L241.44-7.47L241.44-7.47Q242.04-8.37 242.42-9.19L242.42-9.19L242.42-9.19Q242.80-10.01 242.80-10.73L242.80-10.73L242.80-10.73Q242.80-10.97 242.74-11.37L242.74-11.37L242.74-11.37Q242.68-11.77 242.44-12.15L242.44-12.15L242.44-12.15Q242.20-12.53 241.74-12.79L241.74-12.79L241.74-12.79Q241.28-13.05 240.51-13.05L240.51-13.05L240.51-13.05Q239.59-13.05 238.55-12.41L238.55-12.41L238.55-12.41Q237.51-11.77 236.41-10.59L236.41-10.59L236.41-10.59Q235.31-9.41 234.17-7.71L234.17-7.71L234.17-7.71Q233.03-6.01 231.91-3.92L231.91-3.92L231.91-3.92Q232.07-1.04 232.27 1.64L232.27 1.64L232.27 1.64Q232.47 4.32 232.65 6.99L232.65 6.99L232.65 6.99Q232.83 9.65 232.93 12.41L232.93 12.41L232.93 12.41Q233.03 15.17 233.03 18.22L233.03 18.22L233.03 18.22Q233.03 25.26 232.25 30.55L232.25 30.55L232.25 30.55Q231.47 35.83 230.24 39.38L230.24 39.38L230.24 39.38Q229.02 42.92 227.48 44.70L227.48 44.70L227.48 44.70Q225.94 46.49 224.42 46.49L224.42 46.49L224.42 46.49Q223.54 46.49 222.68 45.76L222.68 45.76L222.68 45.76Q221.82 45.04 221.16 43.66L221.16 43.66L221.16 43.66Q220.50 42.28 220.07 40.28L220.07 40.28L220.07 40.28Q219.65 38.28 219.65 35.67L219.65 35.67L219.65 35.67Q219.65 31.87 220.38 27.23L220.38 27.23L220.38 27.23Q221.10 22.58 222.40 17.72L222.40 17.72L222.40 17.72Q223.70 12.85 225.46 8.03L225.46 8.03L225.46 8.03Q227.22 3.20 229.26-1.00L229.26-1.00L229.26-5.00L229.26-5.00Q229.26-9.73 229.64-13.31L229.64-13.31L229.64-13.31Q230.02-16.90 230.50-19.32L230.50-19.32L230.50-19.32Q230.99-21.74 231.45-22.96L231.45-22.96L231.45-22.96Q231.91-24.18 232.07-24.18ZM230.18 19.86L230.18 19.86L230.18 19.86Q230.18 16.34 230.08 13.95L230.08 13.95L230.08 13.95Q229.98 11.57 229.84 9.63L229.84 9.63L229.84 9.63Q229.70 7.69 229.56 5.77L229.56 5.77L229.56 5.77Q229.42 3.84 229.34 1.24L229.34 1.24L229.34 1.24Q227.82 4.68 226.50 8.63L226.50 8.63L226.50 8.63Q225.18 12.57 224.16 16.78L224.16 16.78L224.16 16.78Q223.14 20.98 222.56 25.26L222.56 25.26L222.56 25.26Q221.98 29.55 221.98 33.63L221.98 33.63L221.98 33.63Q221.98 35.19 222.14 37.12L222.14 37.12L222.14 37.12Q222.30 39.04 222.72 40.72L222.72 40.72L222.72 40.72Q223.14 42.40 223.80 43.54L223.80 43.54L223.80 43.54Q224.46 44.68 225.50 44.68L225.50 44.68L225.50 44.68Q226.30 44.68 226.98 43.68L226.98 43.68L226.98 43.68Q227.66 42.68 228.18 40.92L228.18 40.92L228.18 40.92Q228.70 39.16 229.08 36.78L229.08 36.78L229.08 36.78Q229.46 34.39 229.70 31.63L229.70 31.63L229.70 31.63Q229.94 28.87 230.06 25.87L230.06 25.87L230.06 25.87Q230.18 22.86 230.18 19.86Z"/></g><g id="" class="logo--name svgSloganText_1 sloganBox" transform="scale(1) translate(-26.880004835128773,292.15)" fill="#ffffff"><path d="M9.78 10.45L3.85 11.49L3.85-13.10L3.85-13.10Q3.85-16.22 3.43-18.33L3.43-18.33L3.43-18.33Q3.02-20.44 2.55-21.74L2.55-21.74L2.55-21.74Q1.98-23.24 1.30-24.18L1.30-24.18L5.98-26.05L5.98-26.05Q6.60-25.43 7.12-24.49L7.12-24.49L7.12-24.49Q7.54-23.71 7.96-22.59L7.96-22.59L7.96-22.59Q8.37-21.48 8.58-19.97L8.58-19.97L8.58-19.97Q9.46-23.09 11.39-24.70L11.39-24.70L11.39-24.70Q13.31-26.31 16.74-26.31L16.74-26.31L16.74-26.31Q19.19-26.31 20.98-25.40L20.98-25.40L20.98-25.40Q22.78-24.49 23.95-22.80L23.95-22.80L23.95-22.80Q25.12-21.11 25.69-18.72L25.69-18.72L25.69-18.72Q26.26-16.33 26.26-13.42L26.26-13.42L26.26-13.42Q26.26-10.45 25.38-7.93L25.38-7.93L25.38-7.93Q24.49-5.41 22.85-3.59L22.85-3.59L22.85-3.59Q21.22-1.77 18.93-0.73L18.93-0.73L18.93-0.73Q16.64 0.31 13.83 0.31L13.83 0.31L13.83 0.31Q12.84 0.31 11.83 0.21L11.83 0.21L11.83 0.21Q10.82 0.10 9.78 0L9.78 0L9.78 10.45ZM15.76-22.15L15.76-22.15Q14.46-22.15 13.36-21.27L13.36-21.27L13.36-21.27Q12.27-20.38 11.47-18.93L11.47-18.93L11.47-18.93Q10.66-17.47 10.22-15.65L10.22-15.65L10.22-15.65Q9.78-13.83 9.78-11.91L9.78-11.91L9.78-4.42L9.78-4.42Q10.30-4.26 11.34-4.06L11.34-4.06L11.34-4.06Q12.38-3.85 13.16-3.85L13.16-3.85L13.16-3.85Q15.13-3.85 16.43-4.52L16.43-4.52L16.43-4.52Q17.73-5.20 18.51-6.40L18.51-6.40L18.51-6.40Q19.29-7.59 19.60-9.26L19.60-9.26L19.60-9.26Q19.92-10.92 19.92-12.90L19.92-12.90L19.92-12.90Q19.92-14.72 19.81-16.38L19.81-16.38L19.81-16.38Q19.71-18.04 19.27-19.34L19.27-19.34L19.27-19.34Q18.82-20.64 17.99-21.40L17.99-21.40L17.99-21.40Q17.16-22.15 15.76-22.15L15.76-22.15ZM43.11-20.49L43.11-20.49Q42.17-20.49 41.24-20.02L41.24-20.02L41.24-20.02Q40.30-19.55 39.57-18.75L39.57-18.75L39.57-18.75Q38.84-17.94 38.38-16.80L38.38-16.80L38.38-16.80Q37.91-15.65 37.91-14.25L37.91-14.25L37.91 0L31.98 0L31.98-13.10L31.98-13.10Q31.98-16.22 31.56-18.33L31.56-18.33L31.56-18.33Q31.15-20.44 30.68-21.74L30.68-21.74L30.68-21.74Q30.11-23.24 29.43-24.18L29.43-24.18L34.11-26.05L34.11-26.05Q34.58-25.48 35.10-24.65L35.10-24.65L35.10-24.65Q35.52-23.92 35.93-22.93L35.93-22.93L35.93-22.93Q36.35-21.94 36.61-20.59L36.61-20.59L36.61-20.59Q37.65-23.61 39.62-24.93L39.62-24.93L39.62-24.93Q41.60-26.26 44.10-26.26L44.10-26.26L44.10-26.26Q45.29-26.26 46.33-25.97L46.33-25.97L46.33-25.97Q47.37-25.69 47.32-25.69L47.32-25.69L45.66-19.92L45.66-19.92Q45.71-19.92 45.06-20.20L45.06-20.20L45.06-20.20Q44.41-20.49 43.11-20.49L43.11-20.49ZM71.60-24.80L71.60-12.53L71.60-12.53Q71.60-9.41 71.99-7.31L71.99-7.31L71.99-7.31Q72.38-5.20 72.85-3.90L72.85-3.90L72.85-3.90Q73.42-2.34 74.10-1.46L74.10-1.46L69.47 0.42L69.47 0.42Q68.80-0.26 68.22-1.20L68.22-1.20L68.22-1.20Q67.76-2.03 67.34-3.20L67.34-3.20L67.34-3.20Q66.92-4.37 66.82-5.98L66.82-5.98L66.82-5.98Q65.94-2.86 63.99-1.27L63.99-1.27L63.99-1.27Q62.04 0.31 58.71 0.31L58.71 0.31L58.71 0.31Q56.26 0.31 54.47-0.60L54.47-0.60L54.47-0.60Q52.68-1.51 51.48-3.20L51.48-3.20L51.48-3.20Q50.28-4.89 49.71-7.28L49.71-7.28L49.71-7.28Q49.14-9.67 49.14-12.58L49.14-12.58L49.14-12.58Q49.14-15.55 50.05-18.07L50.05-18.07L50.05-18.07Q50.96-20.59 52.60-22.41L52.60-22.41L52.60-22.41Q54.24-24.23 56.52-25.27L56.52-25.27L56.52-25.27Q58.81-26.31 61.57-26.31L61.57-26.31L61.57-26.31Q63.13-26.31 64.82-26.08L64.82-26.08L64.82-26.08Q66.51-25.84 67.96-25.58L67.96-25.58L67.96-25.58Q69.42-25.32 70.43-25.09L70.43-25.09L70.43-25.09Q71.45-24.86 71.60-24.80L71.60-24.80ZM59.70-3.85L59.70-3.85Q61.00-3.85 62.09-4.73L62.09-4.73L62.09-4.73Q63.18-5.62 63.99-7.05L63.99-7.05L63.99-7.05Q64.79-8.48 65.23-10.32L65.23-10.32L65.23-10.32Q65.68-12.17 65.68-14.09L65.68-14.09L65.68-21.58L65.68-21.58Q65.16-21.74 64.12-21.94L64.12-21.94L64.12-21.94Q63.08-22.15 62.24-22.15L62.24-22.15L62.24-22.15Q60.27-22.15 58.99-21.48L58.99-21.48L58.99-21.48Q57.72-20.80 56.94-19.60L56.94-19.60L56.94-19.60Q56.16-18.41 55.85-16.74L55.85-16.74L55.85-16.74Q55.54-15.08 55.54-13.10L55.54-13.10L55.54-13.10Q55.54-11.28 55.64-9.62L55.64-9.62L55.64-9.62Q55.74-7.96 56.19-6.66L56.19-6.66L56.19-6.66Q56.63-5.36 57.46-4.60L57.46-4.60L57.46-4.60Q58.29-3.85 59.70-3.85L59.70-3.85ZM95.94-22.98L92.61-19.81L92.61-19.81Q91.83-20.70 91.03-21.32L91.03-21.32L91.03-21.32Q90.22-21.94 88.87-21.94L88.87-21.94L88.87-21.94Q88.09-21.94 87.13-21.71L87.13-21.71L87.13-21.71Q86.16-21.48 85.33-20.57L85.33-20.57L85.33-20.57Q84.50-19.66 83.95-17.89L83.95-17.89L83.95-17.89Q83.41-16.12 83.41-13.10L83.41-13.10L83.41-13.10Q83.41-10.04 83.95-8.24L83.95-8.24L83.95-8.24Q84.50-6.45 85.36-5.46L85.36-5.46L85.36-5.46Q86.22-4.47 87.20-4.19L87.20-4.19L87.20-4.19Q88.19-3.90 89.13-3.90L89.13-3.90L89.13-3.90Q89.86-3.90 90.64-4.03L90.64-4.03L90.64-4.03Q91.42-4.16 92.14-4.34L92.14-4.34L92.14-4.34Q92.87-4.52 93.42-4.68L93.42-4.68L93.42-4.68Q93.96-4.84 94.22-4.94L94.22-4.94L95.68-1.20L95.68-1.20Q95.52-1.14 94.98-0.88L94.98-0.88L94.98-0.88Q94.43-0.62 93.50-0.36L93.50-0.36L93.50-0.36Q92.56-0.10 91.26 0.13L91.26 0.13L91.26 0.13Q89.96 0.36 88.35 0.36L88.35 0.36L88.35 0.36Q85.33 0.36 83.20-0.55L83.20-0.55L83.20-0.55Q81.07-1.46 79.69-3.12L79.69-3.12L79.69-3.12Q78.31-4.78 77.66-7.12L77.66-7.12L77.66-7.12Q77.01-9.46 77.01-12.32L77.01-12.32L77.01-12.32Q77.01-15.76 77.92-18.41L77.92-18.41L77.92-18.41Q78.83-21.06 80.44-22.85L80.44-22.85L80.44-22.85Q82.06-24.65 84.24-25.58L84.24-25.58L84.24-25.58Q86.42-26.52 88.92-26.52L88.92-26.52L88.92-26.52Q91.36-26.52 93.05-25.58L93.05-25.58L93.05-25.58Q94.74-24.65 95.94-22.98L95.94-22.98ZM97.03-21.68L97.03-25.90L101.71-25.90L102.75-31.98L107.64-33.07L107.64-25.90L114.04-25.90L113.31-21.68L107.64-21.68L107.64-6.29L107.64-6.29Q107.64-4.94 108.37-4.55L108.37-4.55L108.37-4.55Q109.10-4.16 109.98-4.16L109.98-4.16L109.98-4.16Q110.71-4.16 111.44-4.26L111.44-4.26L111.44-4.26Q112.16-4.37 112.74-4.52L112.74-4.52L112.74-4.52Q113.41-4.68 114.04-4.89L114.04-4.89L115.02-0.99L114.56-0.83L114.56-0.83Q114.09-0.62 113.18-0.39L113.18-0.39L113.18-0.39Q112.27-0.16 111.05 0.03L111.05 0.03L111.05 0.03Q109.82 0.21 108.37 0.21L108.37 0.21L108.37 0.21Q106.91 0.21 105.69-0.10L105.69-0.10L105.69-0.10Q104.47-0.42 103.58-1.12L103.58-1.12L103.58-1.12Q102.70-1.82 102.21-2.91L102.21-2.91L102.21-2.91Q101.71-4.00 101.71-5.62L101.71-5.62L101.71-21.68L97.03-21.68ZM124.12 0.21L124.12 0.21Q121.37 0.21 119.91-1.43L119.91-1.43L119.91-1.43Q118.46-3.07 118.46-5.67L118.46-5.67L118.46-25.90L124.38-25.90L124.38-6.19L124.38-6.19Q124.38-4.99 124.75-4.58L124.75-4.58L124.75-4.58Q125.11-4.16 125.84-4.16L125.84-4.16L125.84-4.16Q126.05-4.16 126.28-4.16L126.28-4.16L126.28-4.16Q126.52-4.16 126.72-4.21L126.72-4.21L126.72-4.21Q126.93-4.21 127.19-4.26L127.19-4.26L127.82-0.52L127.82-0.52Q127.45-0.31 126.88-0.16L126.88-0.16L126.88-0.16Q126.41 0 125.71 0.10L125.71 0.10L125.71 0.10Q125.01 0.21 124.12 0.21L124.12 0.21ZM121.52-37.44L121.52-37.44Q123.19-37.44 124.07-36.45L124.07-36.45L124.07-36.45Q124.96-35.46 124.96-33.90L124.96-33.90L124.96-33.90Q124.96-32.34 124.05-31.30L124.05-31.30L124.05-31.30Q123.14-30.26 121.37-30.26L121.37-30.26L121.37-30.26Q119.70-30.26 118.79-31.28L118.79-31.28L118.79-31.28Q117.88-32.29 117.88-33.75L117.88-33.75L117.88-33.75Q117.88-35.36 118.79-36.40L118.79-36.40L118.79-36.40Q119.70-37.44 121.52-37.44L121.52-37.44ZM149.34-22.98L146.02-19.81L146.02-19.81Q145.24-20.70 144.43-21.32L144.43-21.32L144.43-21.32Q143.62-21.94 142.27-21.94L142.27-21.94L142.27-21.94Q141.49-21.94 140.53-21.71L140.53-21.71L140.53-21.71Q139.57-21.48 138.74-20.57L138.74-20.57L138.74-20.57Q137.90-19.66 137.36-17.89L137.36-17.89L137.36-17.89Q136.81-16.12 136.81-13.10L136.81-13.10L136.81-13.10Q136.81-10.04 137.36-8.24L137.36-8.24L137.36-8.24Q137.90-6.45 138.76-5.46L138.76-5.46L138.76-5.46Q139.62-4.47 140.61-4.19L140.61-4.19L140.61-4.19Q141.60-3.90 142.53-3.90L142.53-3.90L142.53-3.90Q143.26-3.90 144.04-4.03L144.04-4.03L144.04-4.03Q144.82-4.16 145.55-4.34L145.55-4.34L145.55-4.34Q146.28-4.52 146.82-4.68L146.82-4.68L146.82-4.68Q147.37-4.84 147.63-4.94L147.63-4.94L149.08-1.20L149.08-1.20Q148.93-1.14 148.38-0.88L148.38-0.88L148.38-0.88Q147.84-0.62 146.90-0.36L146.90-0.36L146.90-0.36Q145.96-0.10 144.66 0.13L144.66 0.13L144.66 0.13Q143.36 0.36 141.75 0.36L141.75 0.36L141.75 0.36Q138.74 0.36 136.60-0.55L136.60-0.55L136.60-0.55Q134.47-1.46 133.09-3.12L133.09-3.12L133.09-3.12Q131.72-4.78 131.07-7.12L131.07-7.12L131.07-7.12Q130.42-9.46 130.42-12.32L130.42-12.32L130.42-12.32Q130.42-15.76 131.33-18.41L131.33-18.41L131.33-18.41Q132.24-21.06 133.85-22.85L133.85-22.85L133.85-22.85Q135.46-24.65 137.64-25.58L137.64-25.58L137.64-25.58Q139.83-26.52 142.32-26.52L142.32-26.52L142.32-26.52Q144.77-26.52 146.46-25.58L146.46-25.58L146.46-25.58Q148.15-24.65 149.34-22.98L149.34-22.98ZM151.74-12.32L151.74-12.32Q151.74-15.81 152.70-18.46L152.70-18.46L152.70-18.46Q153.66-21.11 155.35-22.91L155.35-22.91L155.35-22.91Q157.04-24.70 159.33-25.61L159.33-25.61L159.33-25.61Q161.62-26.52 164.27-26.52L164.27-26.52L164.27-26.52Q166.61-26.52 168.25-25.95L168.25-25.95L168.25-25.95Q169.88-25.38 170.92-24.39L170.92-24.39L170.92-24.39Q171.96-23.40 172.46-22.05L172.46-22.05L172.46-22.05Q172.95-20.70 172.95-19.14L172.95-19.14L172.95-19.14Q172.95-17.26 171.91-15.57L171.91-15.57L171.91-15.57Q170.87-13.88 168.92-12.61L168.92-12.61L168.92-12.61Q166.97-11.34 164.22-10.58L164.22-10.58L164.22-10.58Q161.46-9.83 158.03-9.78L158.03-9.78L158.03-9.78Q158.18-8.58 158.52-7.51L158.52-7.51L158.52-7.51Q158.86-6.45 159.51-5.64L159.51-5.64L159.51-5.64Q160.16-4.84 161.20-4.37L161.20-4.37L161.20-4.37Q162.24-3.90 163.80-3.90L163.80-3.90L163.80-3.90Q164.94-3.90 166.24-4.16L166.24-4.16L166.24-4.16Q167.54-4.42 168.64-4.78L168.64-4.78L168.64-4.78Q169.94-5.20 171.18-5.72L171.18-5.72L172.74-2.03L172.74-2.03Q171.39-1.35 169.83-0.83L169.83-0.83L169.83-0.83Q168.48-0.36 166.71 0L166.71 0L166.71 0Q164.94 0.36 162.97 0.36L162.97 0.36L162.97 0.36Q159.95 0.36 157.82-0.55L157.82-0.55L157.82-0.55Q155.69-1.46 154.34-3.12L154.34-3.12L154.34-3.12Q152.98-4.78 152.36-7.12L152.36-7.12L152.36-7.12Q151.74-9.46 151.74-12.32L151.74-12.32ZM163.80-22.46L163.80-22.46Q162.08-22.46 160.97-21.66L160.97-21.66L160.97-21.66Q159.85-20.85 159.17-19.58L159.17-19.58L159.17-19.58Q158.50-18.30 158.21-16.72L158.21-16.72L158.21-16.72Q157.92-15.13 157.87-13.52L157.87-13.52L157.87-13.52Q160.37-13.62 162.11-14.17L162.11-14.17L162.11-14.17Q163.85-14.72 164.94-15.52L164.94-15.52L164.94-15.52Q166.04-16.33 166.53-17.26L166.53-17.26L166.53-17.26Q167.02-18.20 167.02-19.14L167.02-19.14L167.02-19.14Q167.02-20.64 166.14-21.55L166.14-21.55L166.14-21.55Q165.26-22.46 163.80-22.46L163.80-22.46ZM226.72 0L220.84 0L220.84-16.95L220.84-16.95Q220.84-19.14 220.17-20.41L220.17-20.41L220.17-20.41Q219.49-21.68 217.83-21.68L217.83-21.68L217.83-21.68Q216.84-21.68 215.83-21.14L215.83-21.14L215.83-21.14Q214.81-20.59 213.98-19.55L213.98-19.55L213.98-19.55Q213.15-18.51 212.63-17.06L212.63-17.06L212.63-17.06Q212.11-15.60 212.11-13.83L212.11-13.83L212.11 0L206.23 0L206.23-16.95L206.23-16.95Q206.23-19.14 205.56-20.41L205.56-20.41L205.56-20.41Q204.88-21.68 203.22-21.68L203.22-21.68L203.22-21.68Q202.18-21.68 201.16-21.09L201.16-21.09L201.16-21.09Q200.15-20.49 199.34-19.34L199.34-19.34L199.34-19.34Q198.54-18.20 198.04-16.56L198.04-16.56L198.04-16.56Q197.55-14.92 197.55-12.90L197.55-12.90L197.55 0L191.62 0L191.62-13.10L191.62-13.10Q191.62-16.22 191.20-18.33L191.20-18.33L191.20-18.33Q190.79-20.44 190.32-21.74L190.32-21.74L190.32-21.74Q189.75-23.24 189.07-24.18L189.07-24.18L193.75-26.05L193.75-26.05Q194.27-25.48 194.79-24.65L194.79-24.65L194.79-24.65Q195.21-23.92 195.62-22.85L195.62-22.85L195.62-22.85Q196.04-21.79 196.30-20.44L196.30-20.44L196.30-20.44Q197.60-23.56 199.97-24.93L199.97-24.93L199.97-24.93Q202.33-26.31 204.98-26.31L204.98-26.31L204.98-26.31Q207.64-26.31 209.12-24.96L209.12-24.96L209.12-24.96Q210.60-23.61 211.33-21.48L211.33-21.48L211.33-21.48Q212.73-24.08 214.94-25.19L214.94-25.19L214.94-25.19Q217.15-26.31 219.60-26.31L219.60-26.31L219.60-26.31Q221.62-26.31 223.00-25.66L223.00-25.66L223.00-25.66Q224.38-25.01 225.19-23.84L225.19-23.84L225.19-23.84Q225.99-22.67 226.36-21.03L226.36-21.03L226.36-21.03Q226.72-19.40 226.72-17.37L226.72-17.37L226.72 0ZM238.68 0.21L238.68 0.21Q235.92 0.21 234.47-1.43L234.47-1.43L234.47-1.43Q233.01-3.07 233.01-5.67L233.01-5.67L233.01-25.90L238.94-25.90L238.94-6.19L238.94-6.19Q238.94-4.99 239.30-4.58L239.30-4.58L239.30-4.58Q239.67-4.16 240.40-4.16L240.40-4.16L240.40-4.16Q240.60-4.16 240.84-4.16L240.84-4.16L240.84-4.16Q241.07-4.16 241.28-4.21L241.28-4.21L241.28-4.21Q241.49-4.21 241.75-4.26L241.75-4.26L242.37-0.52L242.37-0.52Q242.01-0.31 241.44-0.16L241.44-0.16L241.44-0.16Q240.97 0 240.27 0.10L240.27 0.10L240.27 0.10Q239.56 0.21 238.68 0.21L238.68 0.21ZM236.08-37.44L236.08-37.44Q237.74-37.44 238.63-36.45L238.63-36.45L238.63-36.45Q239.51-35.46 239.51-33.90L239.51-33.90L239.51-33.90Q239.51-32.34 238.60-31.30L238.60-31.30L238.60-31.30Q237.69-30.26 235.92-30.26L235.92-30.26L235.92-30.26Q234.26-30.26 233.35-31.28L233.35-31.28L233.35-31.28Q232.44-32.29 232.44-33.75L232.44-33.75L232.44-33.75Q232.44-35.36 233.35-36.40L233.35-36.40L233.35-36.40Q234.26-37.44 236.08-37.44L236.08-37.44ZM268.53 0L262.65 0L262.65-16.80L262.65-16.80Q262.65-18.98 261.87-20.31L261.87-20.31L261.87-20.31Q261.09-21.63 259.22-21.63L259.22-21.63L259.22-21.63Q258.02-21.63 256.91-21.03L256.91-21.03L256.91-21.03Q255.79-20.44 254.90-19.29L254.90-19.29L254.90-19.29Q254.02-18.15 253.47-16.51L253.47-16.51L253.47-16.51Q252.93-14.87 252.93-12.84L252.93-12.84L252.93 0L247.00 0L247.00-13.10L247.00-13.10Q247.00-16.22 246.58-18.33L246.58-18.33L246.58-18.33Q246.17-20.44 245.70-21.74L245.70-21.74L245.70-21.74Q245.13-23.24 244.45-24.18L244.45-24.18L249.13-26.05L249.13-26.05Q249.65-25.48 250.17-24.65L250.17-24.65L250.17-24.65Q250.59-23.92 251.00-22.85L251.00-22.85L251.00-22.85Q251.42-21.79 251.68-20.44L251.68-20.44L251.68-20.44Q253.03-23.56 255.58-24.93L255.58-24.93L255.58-24.93Q258.13-26.31 260.94-26.31L260.94-26.31L260.94-26.31Q264.94-26.31 266.73-23.89L266.73-23.89L266.73-23.89Q268.53-21.48 268.53-17.37L268.53-17.37L268.53 0ZM298.48-1.46L293.85 0.42L293.85 0.42Q293.75 0.36 293.38-0.08L293.38-0.08L293.38-0.08Q293.02-0.52 292.58-1.30L292.58-1.30L292.58-1.30Q292.14-2.08 291.72-3.25L291.72-3.25L291.72-3.25Q291.30-4.42 291.20-5.98L291.20-5.98L291.20-5.98Q290.32-2.86 288.37-1.27L288.37-1.27L288.37-1.27Q286.42 0.31 283.09 0.31L283.09 0.31L283.09 0.31Q280.64 0.31 278.85-0.60L278.85-0.60L278.85-0.60Q277.06-1.51 275.86-3.20L275.86-3.20L275.86-3.20Q274.66-4.89 274.09-7.28L274.09-7.28L274.09-7.28Q273.52-9.67 273.52-12.58L273.52-12.58L273.52-12.58Q273.52-15.55 274.43-18.07L274.43-18.07L274.43-18.07Q275.34-20.59 276.98-22.41L276.98-22.41L276.98-22.41Q278.62-24.23 280.90-25.27L280.90-25.27L280.90-25.27Q283.19-26.31 285.95-26.31L285.95-26.31L285.95-26.31Q286.88-26.31 287.95-26.21L287.95-26.21L287.95-26.21Q289.02-26.10 290.06-25.95L290.06-25.95L290.06-37.70L295.98-36.66L295.98-12.53L295.98-12.53Q295.98-9.41 296.35-7.36L296.35-7.36L296.35-7.36Q296.71-5.30 297.18-4.03L297.18-4.03L297.18-4.03Q297.65-2.76 298.04-2.18L298.04-2.18L298.04-2.18Q298.43-1.61 298.48-1.46L298.48-1.46ZM284.08-3.90L284.08-3.90Q285.38-3.90 286.47-4.78L286.47-4.78L286.47-4.78Q287.56-5.67 288.37-7.10L288.37-7.10L288.37-7.10Q289.17-8.53 289.61-10.35L289.61-10.35L289.61-10.35Q290.06-12.17 290.06-14.09L290.06-14.09L290.06-21.58L290.06-21.58Q289.54-21.74 288.50-21.94L288.50-21.94L288.50-21.94Q287.46-22.15 286.62-22.15L286.62-22.15L286.62-22.15Q284.65-22.15 283.37-21.48L283.37-21.48L283.37-21.48Q282.10-20.80 281.32-19.60L281.32-19.60L281.32-19.60Q280.54-18.41 280.23-16.74L280.23-16.74L280.23-16.74Q279.92-15.08 279.92-13.10L279.92-13.10L279.92-13.10Q279.92-11.28 280.02-9.62L280.02-9.62L280.02-9.62Q280.12-7.96 280.57-6.68L280.57-6.68L280.57-6.68Q281.01-5.41 281.84-4.65L281.84-4.65L281.84-4.65Q282.67-3.90 284.08-3.90L284.08-3.90ZM319.18-35.36L316.63-31.98L316.63-31.98Q316.47-32.14 315.67-32.55L315.67-32.55L315.67-32.55Q314.86-32.97 314.13-32.97L314.13-32.97L314.13-32.97Q313.66-32.97 312.99-32.84L312.99-32.84L312.99-32.84Q312.31-32.71 311.69-32.27L311.69-32.27L311.69-32.27Q311.06-31.82 310.62-30.99L310.62-30.99L310.62-30.99Q310.18-30.16 310.18-28.81L310.18-28.81L310.18-28.81Q310.18-28.24 310.26-27.51L310.26-27.51L310.26-27.51Q310.34-26.78 310.60-25.90L310.60-25.90L317.04-25.90L316.32-21.68L310.91-21.68L310.91-1.30L310.91-1.30Q310.91 1.82 310.10 3.93L310.10 3.93L310.10 3.93Q309.30 6.03 308.00 7.46L308.00 7.46L308.00 7.46Q306.70 8.89 305.11 9.85L305.11 9.85L305.11 9.85Q303.52 10.82 301.96 11.60L301.96 11.60L299.57 7.64L299.57 7.64Q301.50 6.66 302.59 5.54L302.59 5.54L302.59 5.54Q303.68 4.42 304.23 3.30L304.23 3.30L304.23 3.30Q304.77 2.18 304.88 1.14L304.88 1.14L304.88 1.14Q304.98 0.10 304.98-0.73L304.98-0.73L304.98-21.68L300.30-21.68L300.30-25.90L304.82-25.90L304.82-25.90Q304.62-26.68 304.54-27.51L304.54-27.51L304.54-27.51Q304.46-28.34 304.46-29.07L304.46-29.07L304.46-29.07Q304.46-31.15 305.21-32.76L305.21-32.76L305.21-32.76Q305.97-34.37 307.24-35.41L307.24-35.41L307.24-35.41Q308.52-36.45 310.21-37.00L310.21-37.00L310.21-37.00Q311.90-37.54 313.72-37.54L313.72-37.54L313.72-37.54Q315.74-37.54 317.04-36.89L317.04-36.89L317.04-36.89Q318.34-36.24 319.18-35.36L319.18-35.36ZM336.65-13.21L336.65-25.90L342.58-25.90L342.58-12.53L342.58-12.53Q342.58-9.41 342.97-7.31L342.97-7.31L342.97-7.31Q343.36-5.20 343.82-3.90L343.82-3.90L343.82-3.90Q344.40-2.34 345.07-1.46L345.07-1.46L340.44 0.42L340.44 0.42Q339.82-0.16 339.30-1.04L339.30-1.04L339.30-1.04Q338.88-1.77 338.44-2.83L338.44-2.83L338.44-2.83Q338.00-3.90 337.84-5.36L337.84-5.36L337.84-5.36Q336.44-2.29 333.89-0.99L333.89-0.99L333.89-0.99Q331.34 0.31 328.59 0.31L328.59 0.31L328.59 0.31Q324.48 0.31 322.74-2.08L322.74-2.08L322.74-2.08Q321.00-4.47 321.00-8.63L321.00-8.63L321.00-25.90L326.92-25.90L326.92-8.74L326.92-8.74Q326.92-6.55 327.70-5.30L327.70-5.30L327.70-5.30Q328.48-4.06 330.36-4.06L330.36-4.06L330.36-4.06Q331.50-4.06 332.62-4.71L332.62-4.71L332.62-4.71Q333.74-5.36 334.65-6.55L334.65-6.55L334.65-6.55Q335.56-7.75 336.10-9.44L336.10-9.44L336.10-9.44Q336.65-11.13 336.65-13.21L336.65-13.21ZM355.32 0.21L355.32 0.21Q352.35 0.21 350.95-1.43L350.95-1.43L350.95-1.43Q349.54-3.07 349.54-5.62L349.54-5.62L349.54-36.66L355.47-37.75L355.47-6.19L355.47-6.19Q355.47-4.99 355.94-4.52L355.94-4.52L355.94-4.52Q356.41-4.06 357.29-4.06L357.29-4.06L357.29-4.06Q357.81-4.06 358.31-4.11L358.31-4.11L358.31-4.11Q358.80-4.16 359.22-4.26L359.22-4.26L359.22-4.26Q359.68-4.37 360.05-4.47L360.05-4.47L360.78-0.73L360.78-0.73Q360.10-0.47 359.27-0.26L359.27-0.26L359.27-0.26Q358.54-0.05 357.55 0.08L357.55 0.08L357.55 0.08Q356.56 0.21 355.32 0.21L355.32 0.21ZM386.93 0L381.06 0L381.06-16.80L381.06-16.80Q381.06-18.98 380.28-20.31L380.28-20.31L380.28-20.31Q379.50-21.63 377.62-21.63L377.62-21.63L377.62-21.63Q376.43-21.63 375.31-21.03L375.31-21.03L375.31-21.03Q374.19-20.44 373.31-19.29L373.31-19.29L373.31-19.29Q372.42-18.15 371.88-16.51L371.88-16.51L371.88-16.51Q371.33-14.87 371.33-12.84L371.33-12.84L371.33 0L365.40 0L365.40-13.10L365.40-13.10Q365.40-16.22 364.99-18.33L364.99-18.33L364.99-18.33Q364.57-20.44 364.10-21.74L364.10-21.74L364.10-21.74Q363.53-23.24 362.86-24.18L362.86-24.18L367.54-26.05L367.54-26.05Q368.06-25.48 368.58-24.65L368.58-24.65L368.58-24.65Q368.99-23.92 369.41-22.85L369.41-22.85L369.41-22.85Q369.82-21.79 370.08-20.44L370.08-20.44L370.08-20.44Q371.44-23.56 373.98-24.93L373.98-24.93L373.98-24.93Q376.53-26.31 379.34-26.31L379.34-26.31L379.34-26.31Q383.34-26.31 385.14-23.89L385.14-23.89L385.14-23.89Q386.93-21.48 386.93-17.37L386.93-17.37L386.93 0ZM391.92-12.32L391.92-12.32Q391.92-15.81 392.89-18.46L392.89-18.46L392.89-18.46Q393.85-21.11 395.54-22.91L395.54-22.91L395.54-22.91Q397.23-24.70 399.52-25.61L399.52-25.61L399.52-25.61Q401.80-26.52 404.46-26.52L404.46-26.52L404.46-26.52Q406.80-26.52 408.43-25.95L408.43-25.95L408.43-25.95Q410.07-25.38 411.11-24.39L411.11-24.39L411.11-24.39Q412.15-23.40 412.65-22.05L412.65-22.05L412.65-22.05Q413.14-20.70 413.14-19.14L413.14-19.14L413.14-19.14Q413.14-17.26 412.10-15.57L412.10-15.57L412.10-15.57Q411.06-13.88 409.11-12.61L409.11-12.61L409.11-12.61Q407.16-11.34 404.40-10.58L404.40-10.58L404.40-10.58Q401.65-9.83 398.22-9.78L398.22-9.78L398.22-9.78Q398.37-8.58 398.71-7.51L398.71-7.51L398.71-7.51Q399.05-6.45 399.70-5.64L399.70-5.64L399.70-5.64Q400.35-4.84 401.39-4.37L401.39-4.37L401.39-4.37Q402.43-3.90 403.99-3.90L403.99-3.90L403.99-3.90Q405.13-3.90 406.43-4.16L406.43-4.16L406.43-4.16Q407.73-4.42 408.82-4.78L408.82-4.78L408.82-4.78Q410.12-5.20 411.37-5.72L411.37-5.72L412.93-2.03L412.93-2.03Q411.58-1.35 410.02-0.83L410.02-0.83L410.02-0.83Q408.67-0.36 406.90 0L406.90 0L406.90 0Q405.13 0.36 403.16 0.36L403.16 0.36L403.16 0.36Q400.14 0.36 398.01-0.55L398.01-0.55L398.01-0.55Q395.88-1.46 394.52-3.12L394.52-3.12L394.52-3.12Q393.17-4.78 392.55-7.12L392.55-7.12L392.55-7.12Q391.92-9.46 391.92-12.32L391.92-12.32ZM403.99-22.46L403.99-22.46Q402.27-22.46 401.15-21.66L401.15-21.66L401.15-21.66Q400.04-20.85 399.36-19.58L399.36-19.58L399.36-19.58Q398.68-18.30 398.40-16.72L398.40-16.72L398.40-16.72Q398.11-15.13 398.06-13.52L398.06-13.52L398.06-13.52Q400.56-13.62 402.30-14.17L402.30-14.17L402.30-14.17Q404.04-14.72 405.13-15.52L405.13-15.52L405.13-15.52Q406.22-16.33 406.72-17.26L406.72-17.26L406.72-17.26Q407.21-18.20 407.21-19.14L407.21-19.14L407.21-19.14Q407.21-20.64 406.33-21.55L406.33-21.55L406.33-21.55Q405.44-22.46 403.99-22.46L403.99-22.46ZM425.72-26.52L425.72-26.52L425.72-26.52Q427.23-26.52 428.69-26.21L428.69-26.21L428.69-26.21Q430.14-25.90 431.29-25.48L431.29-25.48L431.29-25.48Q432.64-25.01 433.78-24.49L433.78-24.49L432.02-20.44L432.02-20.44Q430.98-20.90 429.94-21.27L429.94-21.27L429.94-21.27Q429.05-21.58 427.99-21.87L427.99-21.87L427.99-21.87Q426.92-22.15 425.88-22.15L425.88-22.15L425.88-22.15Q424.68-22.15 423.83-21.58L423.83-21.58L423.83-21.58Q422.97-21.01 422.97-19.86L422.97-19.86L422.97-19.86Q422.97-16.90 427.28-15.24L427.28-15.24L427.28-15.24Q428.90-14.61 430.20-13.91L430.20-13.91L430.20-13.91Q431.50-13.21 432.41-12.27L432.41-12.27L432.41-12.27Q433.32-11.34 433.78-10.11L433.78-10.11L433.78-10.11Q434.25-8.89 434.25-7.23L434.25-7.23L434.25-7.23Q434.25-5.77 433.65-4.37L433.65-4.37L433.65-4.37Q433.06-2.96 431.89-1.87L431.89-1.87L431.89-1.87Q430.72-0.78 429.03-0.13L429.03-0.13L429.03-0.13Q427.34 0.52 425.20 0.52L425.20 0.52L425.20 0.52Q423.49 0.52 421.82 0.13L421.82 0.13L421.82 0.13Q420.16-0.26 418.83-0.73L418.83-0.73L418.83-0.73Q417.51-1.20 416.73-1.61L416.73-1.61L415.95-1.98L417.87-6.34L418.55-5.98L418.55-5.98Q419.22-5.56 420.26-5.10L420.26-5.10L420.26-5.10Q421.30-4.63 422.50-4.24L422.50-4.24L422.50-4.24Q423.70-3.85 424.68-3.85L424.68-3.85L424.68-3.85Q426.50-3.85 427.39-4.58L427.39-4.58L427.39-4.58Q428.27-5.30 428.27-6.50L428.27-6.50L428.27-6.50Q428.27-7.85 427.31-8.97L427.31-8.97L427.31-8.97Q426.35-10.09 424.42-10.82L424.42-10.82L424.42-10.82Q420.42-12.32 418.68-14.25L418.68-14.25L418.68-14.25Q416.94-16.17 416.94-19.24L416.94-19.24L416.94-19.24Q416.94-20.70 417.61-22.02L417.61-22.02L417.61-22.02Q418.29-23.35 419.46-24.36L419.46-24.36L419.46-24.36Q420.63-25.38 422.24-25.95L422.24-25.95L422.24-25.95Q423.85-26.52 425.72-26.52ZM447.15-26.52L447.15-26.52L447.15-26.52Q448.66-26.52 450.11-26.21L450.11-26.21L450.11-26.21Q451.57-25.90 452.71-25.48L452.71-25.48L452.71-25.48Q454.06-25.01 455.21-24.49L455.21-24.49L453.44-20.44L453.44-20.44Q452.40-20.90 451.36-21.27L451.36-21.27L451.36-21.27Q450.48-21.58 449.41-21.87L449.41-21.87L449.41-21.87Q448.34-22.15 447.30-22.15L447.30-22.15L447.30-22.15Q446.11-22.15 445.25-21.58L445.25-21.58L445.25-21.58Q444.39-21.01 444.39-19.86L444.39-19.86L444.39-19.86Q444.39-16.90 448.71-15.24L448.71-15.24L448.71-15.24Q450.32-14.61 451.62-13.91L451.62-13.91L451.62-13.91Q452.92-13.21 453.83-12.27L453.83-12.27L453.83-12.27Q454.74-11.34 455.21-10.11L455.21-10.11L455.21-10.11Q455.68-8.89 455.68-7.23L455.68-7.23L455.68-7.23Q455.68-5.77 455.08-4.37L455.08-4.37L455.08-4.37Q454.48-2.96 453.31-1.87L453.31-1.87L453.31-1.87Q452.14-0.78 450.45-0.13L450.45-0.13L450.45-0.13Q448.76 0.52 446.63 0.52L446.63 0.52L446.63 0.52Q444.91 0.52 443.25 0.13L443.25 0.13L443.25 0.13Q441.58-0.26 440.26-0.73L440.26-0.73L440.26-0.73Q438.93-1.20 438.15-1.61L438.15-1.61L437.37-1.98L439.30-6.34L439.97-5.98L439.97-5.98Q440.65-5.56 441.69-5.10L441.69-5.10L441.69-5.10Q442.73-4.63 443.92-4.24L443.92-4.24L443.92-4.24Q445.12-3.85 446.11-3.85L446.11-3.85L446.11-3.85Q447.93-3.85 448.81-4.58L448.81-4.58L448.81-4.58Q449.70-5.30 449.70-6.50L449.70-6.50L449.70-6.50Q449.70-7.85 448.73-8.97L448.73-8.97L448.73-8.97Q447.77-10.09 445.85-10.82L445.85-10.82L445.85-10.82Q441.84-12.32 440.10-14.25L440.10-14.25L440.10-14.25Q438.36-16.17 438.36-19.24L438.36-19.24L438.36-19.24Q438.36-20.70 439.04-22.02L439.04-22.02L439.04-22.02Q439.71-23.35 440.88-24.36L440.88-24.36L440.88-24.36Q442.05-25.38 443.66-25.95L443.66-25.95L443.66-25.95Q445.28-26.52 447.15-26.52Z"/></g></g></g></g></svg>