<svg id="Capa_1" enable-background="new 0 0 512.116 512.116" height="512" viewBox="0 0 512.116 512.116" width="512" xmlns="http://www.w3.org/2000/svg"><g><g><path d="m381.812 391.635c5.07-.987 8.983-4.901 9.97-9.971 3.509-18.031 2.209-36.46-3.758-53.293-2.862-8.074-6.623-15.584-11.08-22.382 3.883-.809 7.773-1.861 11.64-3.158 3.935-1.319 6.055-5.578 4.736-9.512-1.32-3.934-5.583-6.055-9.513-4.735-16.136 5.409-32.515 5.839-46.084 1.222l-.145-.05c-6.318-2.157-12.33-5.056-17.946-8.575 3.126-7.831 4.863-16.36 4.863-25.292 0-8.935-1.726-17.473-4.854-25.304 5.602-3.507 11.594-6.398 17.886-8.546l.159-.054c16.739-5.698 37.32-3.733 56.465 5.392 13.224 6.303 24.748 16.14 33.419 28.512-4.482 6.394-9.735 12.13-15.635 17.067-3.182 2.663-3.603 7.402-.94 10.584 2.665 3.182 7.402 3.602 10.585.94 7.392-6.187 13.912-13.434 19.377-21.539 2.889-4.284 2.889-9.82.001-14.103-10.268-15.23-24.218-27.342-40.342-35.027-7.733-3.685-15.704-6.344-23.662-8.005 4.457-6.799 8.206-14.324 11.069-22.399 5.967-16.834 7.266-35.263 3.757-53.294-.986-5.07-4.899-8.984-9.97-9.971-18.033-3.51-36.46-2.21-53.293 3.758-8.075 2.862-15.599 6.612-22.4 11.068-1.661-7.958-4.32-15.929-8.005-23.662-7.685-16.123-19.797-30.073-35.027-40.342-4.283-2.888-9.819-2.888-14.102 0-15.23 10.268-27.342 24.218-35.027 40.342-3.686 7.734-6.345 15.706-8.005 23.665-3.33-2.184-6.832-4.205-10.501-6.029-3.714-1.847-8.226-.333-10.073 3.383s-.333 8.226 3.383 10.073c5.555 2.762 10.647 6.026 15.203 9.669-.209 9.434 1.075 18.589 3.941 27.01.013.04.027.082.041.121 2.418 7.082 5.634 13.833 9.514 20.167-7.03 4.813-13.115 10.905-17.93 17.931-6.338-3.877-13.101-7.079-20.184-9.497-.002-.001-.118-.041-.12-.042-8.433-2.87-17.602-4.154-27.051-3.94-5.797-7.255-10.576-15.879-13.963-25.433-4.895-13.807-6.087-28.914-3.47-43.792 7.714-1.357 15.511-1.696 23.199-1.006 4.142.359 7.785-2.68 8.155-6.813.371-4.133-2.68-7.784-6.812-8.155-9.633-.863-19.399-.352-29.023 1.522-5.071.987-8.985 4.9-9.972 9.971-3.508 18.03-2.208 36.459 3.759 53.293 2.863 8.076 6.613 15.601 11.072 22.399-7.96 1.661-15.932 4.32-23.666 8.005-16.123 7.685-30.073 19.796-40.34 35.026-2.889 4.284-2.889 9.819-.001 14.103 10.269 15.23 24.218 27.342 40.341 35.027 7.736 3.687 15.709 6.367 23.67 8.028-4.455 6.796-8.214 14.305-11.076 22.377-5.967 16.835-7.267 35.264-3.758 53.294.986 5.07 4.901 8.984 9.971 9.971 6.615 1.287 13.28 1.927 19.904 1.927 11.43 0 22.731-1.907 33.389-5.686 8.074-2.862 15.598-6.611 22.4-11.065 1.661 7.957 4.319 15.928 8.004 23.66 7.685 16.123 19.797 30.073 35.027 40.342 2.142 1.444 4.596 2.166 7.051 2.166 2.454 0 4.909-.722 7.051-2.166 15.23-10.268 27.342-24.219 35.027-40.342 3.688-7.738 6.348-15.715 8.009-23.677 6.801 4.46 14.318 8.22 22.396 11.084 10.659 3.778 21.956 5.686 33.388 5.686 6.623-.001 13.292-.641 19.906-1.928zm-77.682-212.454c.003-.009.032-.095.035-.104 2.869-8.429 4.153-17.593 3.941-27.038 7.256-5.801 15.874-10.589 25.433-13.977 13.806-4.893 28.913-6.086 43.791-3.47 2.617 14.879 1.426 29.985-3.469 43.792-3.388 9.559-8.176 18.178-13.975 25.432-9.445-.212-18.61 1.071-27.04 3.941-.002.001-.118.041-.12.042-7.083 2.418-13.839 5.631-20.174 9.512-4.817-7.031-10.904-13.127-17.936-17.942 3.88-6.339 7.093-13.098 9.514-20.188zm-76.607-61.41c6.302-13.224 16.142-24.749 28.512-33.42 12.37 8.671 22.209 20.196 28.512 33.42 9.124 19.145 11.09 39.726 5.389 56.475-.002.007-.031.091-.033.097-2.157 6.317-5.044 12.336-8.56 17.952-7.835-3.129-16.369-4.869-25.307-4.869-8.935 0-17.466 1.739-25.298 4.865-3.512-5.604-6.402-11.601-8.552-17.897l-.055-.159c-5.697-16.739-3.732-37.32 5.392-56.464zm-109.606 166.629c-13.224-6.302-24.746-16.14-33.418-28.512 8.671-12.371 20.195-22.209 33.418-28.512 19.146-9.124 39.726-11.09 56.429-5.405l.145.05c6.313 2.155 12.327 5.043 17.94 8.557-3.13 7.833-4.856 16.373-4.856 25.31 0 8.932 1.737 17.461 4.863 25.292-5.604 3.513-11.599 6.408-17.895 8.558l-.159.054c-16.742 5.698-37.323 3.732-56.467-5.392zm90.029 48.18c-.015.039-.028.078-.041.118-2.869 8.43-4.153 17.595-3.941 27.04-7.257 5.8-15.875 10.587-25.432 13.975-13.806 4.894-28.911 6.087-43.792 3.469-2.617-14.878-1.425-29.984 3.47-43.791 3.388-9.559 8.189-18.16 13.987-25.415.656.015 1.311.03 1.964.03 8.305 0 17.034-1.255 25.064-3.988.002-.001.118-.041.12-.042 7.083-2.418 13.842-5.622 20.175-9.503 4.811 7.024 10.9 13.105 17.922 17.919-3.877 6.339-7.077 13.104-9.496 20.188zm76.601 61.425c-6.302 13.224-16.142 24.749-28.512 33.42-12.37-8.671-22.21-20.196-28.512-33.419-9.124-19.145-11.09-39.726-5.393-56.465l.037-.108c2.156-6.314 5.054-12.322 8.568-17.936 7.83 3.127 16.366 4.852 25.3 4.852 8.937 0 17.476-1.726 25.309-4.856 3.505 5.603 6.393 11.596 8.541 17.888l.055.159c5.697 16.739 3.731 37.32-5.393 56.465zm-28.512-84.683c-29.463 0-53.433-23.971-53.433-53.434s23.97-53.434 53.433-53.434c29.464 0 53.434 23.971 53.434 53.434s-23.97 53.434-53.434 53.434zm77.504 64.391c-9.56-3.389-18.173-8.182-25.43-13.98.213-9.433-1.067-18.583-3.928-26.99l-.057-.166c-2.418-7.083-5.617-13.848-9.497-20.184 7.023-4.814 13.112-10.895 17.923-17.919-.106.174 11.84 5.87 12.859 6.34 2.46 1.134 4.912 2.132 7.375 2.994 8.034 2.812 16.187 4.188 25.107 4.188.649 0 1.304-.027 1.956-.042 5.81 7.262 10.62 15.868 14.012 25.437 4.895 13.806 6.086 28.913 3.469 43.792-14.875 2.614-29.983 1.424-43.789-3.47z"/><path d="m220.964 58.91c1.327 0 2.689-.063 4.078-.191 13.554-1.25 24.353-10.289 31.035-22.109 6.682 11.82 17.481 20.859 31.035 22.109 1.39.128 2.75.191 4.078.191 12.805 0 22.497-5.88 25.753-15.893 2.399-7.376.456-15.485-5.071-21.164-5.393-5.542-12.971-7.561-20.273-5.404-3.98 1.176-6.251 5.356-5.076 9.335 1.177 3.979 5.359 6.25 9.335 5.075 2.579-.763 4.392.597 5.245 1.474 1.273 1.307 2.348 3.579 1.55 6.034-1.961 6.027-11.332 5.647-14.162 5.386-12.209-1.126-25.432-16.284-24.888-36.236.27-9.886-15.319-9.774-15.053 0 .544 19.952-12.679 35.11-24.888 36.236-2.829.262-12.2.642-14.162-5.386-.798-2.455.277-4.727 1.55-6.034.853-.877 2.667-2.237 5.245-1.474 3.981 1.177 8.158-1.096 9.335-5.075 1.176-3.979-1.096-8.159-5.076-9.335-7.302-2.157-14.88-.137-20.273 5.404-5.527 5.678-7.47 13.788-5.071 21.164 3.257 10.014 12.948 15.893 25.754 15.893z"/><path d="m287.112 453.057c-13.554 1.25-24.353 10.289-31.035 22.109-6.682-11.82-17.481-20.859-31.035-22.109-14.801-1.361-26.237 4.651-29.831 15.701-2.399 7.376-.456 15.485 5.071 21.164 5.393 5.542 12.972 7.562 20.273 5.404 3.98-1.176 6.251-5.356 5.076-9.336-1.176-3.979-5.357-6.249-9.335-5.075-2.578.762-4.392-.597-5.245-1.474-1.273-1.307-2.348-3.579-1.55-6.034 1.961-6.027 11.334-5.646 14.162-5.386 12.209 1.126 25.432 16.284 24.888 36.236-.097 3.562 2.499 6.807 5.973 7.554 3.538.761 7.181-1.294 8.538-4.616.38-.93.569-1.934.542-2.939-.544-19.952 12.679-35.11 24.888-36.236 2.832-.261 12.201-.642 14.162 5.386.798 2.455-.277 4.727-1.55 6.034-.853.877-2.666 2.236-5.245 1.474-3.982-1.176-8.158 1.096-9.335 5.075-1.176 3.98 1.096 8.159 5.076 9.336 7.303 2.158 14.88.137 20.273-5.404 5.527-5.678 7.47-13.788 5.071-21.164-3.595-11.05-15.028-17.064-29.832-15.7z"/><path d="m62.515 148.405c3.075 1.565 6.323 2.328 9.621 2.328 7.81 0 15.894-4.28 22.576-12.32 8.699-10.466 9.944-24.491 6.313-37.572 4.464 1.239 9.039 1.913 13.544 1.913 8.697 0 17.137-2.499 24.032-8.23 11.436-9.505 15.264-21.842 9.992-32.197-3.519-6.912-10.627-11.272-18.551-11.379-.101-.001-.201-.002-.3-.002-7.609 0-14.267 3.915-17.857 10.517-1.982 3.646-.634 8.208 3.012 10.19 3.645 1.983 8.208.633 10.19-3.012 1.283-2.36 3.568-2.662 4.752-2.667 1.825.025 4.191.871 5.362 3.172 2.876 5.648-4.023 12.007-6.206 13.822-9.428 7.838-29.498 6.468-43.221-8.024-2.421-2.556-6.205-3.028-9.137-1.376-.009.005-.017.01-.026.015-4.371 2.462-5.239 8.445-1.48 12.005 14.492 13.723 15.861 33.792 8.024 43.221-1.814 2.182-8.169 9.084-13.822 6.206-2.301-1.171-3.147-3.538-3.172-5.362-.017-1.224.308-3.469 2.667-4.751 3.646-1.982 4.995-6.544 3.012-10.19-1.982-3.646-6.544-4.996-10.189-3.013-6.689 3.637-10.62 10.424-10.515 18.157.108 7.921 4.468 15.029 11.379 18.549z"/><path d="m449.639 363.371c-10.356-5.272-22.693-1.443-32.197 9.992-8.701 10.469-9.945 24.499-6.31 37.583-13.082-3.636-27.11-2.396-37.58 6.307-11.436 9.505-15.264 21.842-9.992 32.197 7.337 14.41 28.892 15.239 36.708.865 1.982-3.646.634-8.208-3.012-10.19-3.647-1.985-8.208-.634-10.19 3.012-1.253 2.305-3.425 2.667-4.666 2.667-.03 0-.059 0-.086 0-1.825-.025-4.191-.871-5.362-3.172-2.876-5.648 4.023-12.007 6.206-13.822 5.712-4.748 13.943-5.445 21-4.199 4.388.775 8.626 2.357 12.495 4.563 2.172 1.238 4.228 2.676 6.143 4.283 2.806 2.355 4.985 5.704 9.06 5.704 1.991 0 3.98-.787 5.457-2.348 2.853-3.013 2.723-7.769-.291-10.622-14.492-13.723-15.861-33.793-8.024-43.221 1.815-2.182 8.171-9.082 13.822-6.206 2.301 1.171 3.147 3.538 3.172 5.362.017 1.224-.308 3.469-2.667 4.751-3.646 1.982-4.995 6.544-3.013 10.19 1.981 3.646 6.542 4.994 10.19 3.013 6.689-3.637 10.62-10.424 10.515-18.157-.107-7.925-4.467-15.033-11.378-18.552z"/><path d="m58.908 286.922c-1.25-13.556-10.28-24.362-22.098-31.045 11.813-6.682 20.848-17.476 22.098-31.024 1.365-14.807-4.651-26.238-15.701-29.832-7.376-2.398-15.484-.455-21.164 5.072-5.541 5.393-7.562 12.972-5.403 20.273 1.177 3.979 5.358 6.251 9.335 5.076 3.98-1.177 6.252-5.356 5.076-9.335-.761-2.575.597-4.391 1.474-5.245 1.306-1.272 3.575-2.348 6.035-1.549 6.026 1.96 5.645 11.335 5.384 14.162-1.125 12.208-16.293 25.43-36.235 24.887-4.82-.131-8.426 4.305-7.587 8.904.654 3.583 3.812 6.263 7.587 6.149 19.975-.537 35.11 12.679 36.235 24.887.261 2.827.643 12.202-5.384 14.162-2.457.798-4.727-.277-6.035-1.549-.877-.854-2.235-2.671-1.474-5.245 1.176-3.979-1.096-8.159-5.076-9.336-3.981-1.178-8.158 1.096-9.335 5.076-2.158 7.301-.138 14.88 5.403 20.273 4.07 3.962 9.389 6.082 14.791 6.082 2.135 0 4.283-.331 6.372-1.01 11.051-3.594 17.067-15.025 15.702-29.833z"/><path d="m509.385 250.223c-1.357-1.2-3.118-1.91-4.939-1.861-19.936.53-35.11-12.679-36.235-24.887-.261-2.827-.643-12.202 5.384-14.162 2.459-.798 4.728.277 6.035 1.549.878.854 2.235 2.671 1.474 5.245-1.176 3.979 1.096 8.159 5.075 9.335 3.982 1.178 8.159-1.096 9.335-5.076 2.158-7.301.138-14.88-5.403-20.273-5.678-5.527-13.79-7.471-21.164-5.072-11.05 3.594-17.066 15.025-15.701 29.832 1.25 13.553 10.289 24.348 22.106 31.03-11.82 6.682-20.856 17.483-22.106 31.039-1.365 14.807 4.651 26.238 15.701 29.832 2.09.679 4.236 1.011 6.372 1.011 5.402 0 10.722-2.121 14.791-6.082 5.541-5.393 7.562-12.972 5.403-20.273-1.177-3.979-5.357-6.25-9.335-5.076-3.98 1.177-6.252 5.356-5.075 9.336.761 2.575-.597 4.391-1.474 5.245-1.306 1.272-3.576 2.347-6.035 1.549-6.026-1.96-5.645-11.335-5.384-14.162 1.124-12.209 16.294-25.426 36.235-24.887 3.011.081 5.948-1.832 7.167-4.574.311-.699.47-1.46.498-2.238.087-2.353-1.019-4.872-2.725-6.38z"/><path d="m138.602 417.252c-10.471-8.702-24.498-9.941-37.581-6.304 3.636-13.084 2.393-27.115-6.309-37.585-9.504-11.435-21.837-15.264-32.197-9.992-6.911 3.519-11.271 10.627-11.378 18.55-.105 7.733 3.826 14.521 10.515 18.157 3.645 1.982 8.207.632 10.189-3.013 1.982-3.646.634-8.208-3.012-10.19-2.359-1.282-2.684-3.528-2.667-4.751.024-1.824.871-4.191 3.172-5.362 5.647-2.877 12.008 4.023 13.822 6.206 7.837 9.429 6.468 29.498-8.024 43.221-1.424 1.349-2.274 3.229-2.344 5.19-.232 6.535 7.936 10.208 12.675 5.721.73-.691 1.436-1.417 2.131-2.157.017.015.034.029.05.044 13.619-12.742 32.342-13.668 41.352-6.18 2.183 1.815 9.082 8.174 6.206 13.823-1.171 2.301-3.538 3.146-5.362 3.171-1.184.001-3.469-.308-4.752-2.667-1.981-3.646-6.544-4.995-10.19-3.012-3.646 1.982-4.994 6.544-3.012 10.19 3.59 6.602 10.248 10.517 17.857 10.517.1 0 .201 0 .3-.002 7.924-.107 15.031-4.468 18.551-11.379 5.272-10.354 1.444-22.69-9.992-32.196z"/><path d="m373.552 94.524c6.896 5.732 15.334 8.229 24.032 8.229 4.505 0 9.08-.673 13.545-1.913-3.631 13.081-2.386 27.106 6.313 37.572 6.683 8.041 14.766 12.321 22.576 12.32 3.297 0 6.546-.763 9.621-2.328 6.911-3.519 11.271-10.627 11.378-18.551.105-7.733-3.826-14.521-10.515-18.157-3.647-1.983-8.208-.633-10.19 3.013s-.634 8.208 3.013 10.19c2.359 1.282 2.684 3.528 2.667 4.751-.024 1.824-.871 4.191-3.172 5.362-5.646 2.879-12.007-4.023-13.822-6.206-7.837-9.429-6.468-29.498 8.024-43.221 7.33-6.94-4.045-17.613-10.644-10.643-13.721 14.493-33.791 15.862-43.221 8.024-2.183-1.815-9.082-8.174-6.206-13.823 1.171-2.301 3.538-3.146 5.362-3.171h.086c1.24 0 3.412.363 4.666 2.667 1.981 3.645 6.542 4.994 10.19 3.012 3.646-1.982 4.994-6.544 3.012-10.19-3.637-6.689-10.447-10.605-18.157-10.515-7.924.107-15.031 4.468-18.551 11.379-5.271 10.356-1.443 22.693 9.993 32.199z"/></g></g></svg>