<?xml version="1.0" encoding="iso-8859-1"?>
<!-- Generator: Adobe Illustrator 16.0.0, SVG Export Plug-In . SVG Version: 6.00 Build 0)  -->
<!DOCTYPE svg PUBLIC "-//W3C//DTD SVG 1.1//EN" "http://www.w3.org/Graphics/SVG/1.1/DTD/svg11.dtd">
<svg version="1.1" id="Capa_1" xmlns="http://www.w3.org/2000/svg" xmlns:xlink="http://www.w3.org/1999/xlink" x="0px" y="0px"
	 width="191.707px" height="191.707px" viewBox="0 0 191.707 191.707" style="enable-background:new 0 0 191.707 191.707;"
	 xml:space="preserve">
<g>
	<path d="M185.461,79.775c-4.25-4.762-10.225-7.399-16.806-7.42c-0.032,0-0.069,0-0.105,0c-13.3,0-20.926,8.095-27.597,17.097
		c-1.587,1.938-4.624,4.493-8.532,2.296c-2.32-1.308-3.148-4.261-1.851-6.579c0.976-1.722,3.18-2.339,4.904-1.371
		c1.244,0.701,1.688,2.294,0.991,3.546c-0.227,0.401-0.596,0.675-1.028,0.812c-0.174-0.931-1.039-1.577-1.978-1.442
		c-0.971,0.146-1.635,1.042-1.487,2.015c0.016,0.103,0.116,0.145,0.143,0.242c-0.105,0.557,0.053,1.129,0.559,1.422
		c1.05,0.593,2.278,0.732,3.438,0.408s2.131-1.083,2.711-2.133c1.435-2.547,0.527-5.788-2.02-7.22
		c-3.032-1.706-6.866-0.627-8.58,2.397c-2.025,3.621-0.738,8.219,2.874,10.249c1.424,0.801,2.879,1.194,4.324,1.194
		c0.479,0,0.949-0.108,1.424-0.195c-1.366,1.911-2.722,3.823-4.129,5.601c-3.133,3.934-5.817,7.229-8.428,9.766
		c-0.3,0.021-0.601,0.096-0.833,0.312c-5.432,5.089-11.095,5.774-15.91,1.936c-3.76-3.001-4.387-8.49-1.392-12.256
		c2.31-2.885,6.533-3.375,9.418-1.07c1.065,0.849,1.729,2.062,1.894,3.412c0.163,1.35-0.227,2.689-1.076,3.744
		c-0.601,0.77-1.45,1.202-2.336,1.345c0.116-0.322,0.206-0.654,0.206-1.018c0-1.593-1.292-2.891-2.891-2.891
		c-1.598,0-2.884,1.298-2.884,2.891c0,0.517,0.168,0.98,0.405,1.392c0.011,0.38,0.148,0.749,0.47,1.002
		c2.806,2.23,6.903,1.772,9.139-1.033c2.679-3.364,2.12-8.279-1.239-10.948c-4.05-3.235-9.978-2.565-13.21,1.495
		c-3.887,4.881-3.096,12,1.714,15.939c-2.125-1.023-4.008-2.521-5.437-4.515c-2.336-3.27-3.262-7.403-2.558-11.354
		c1.123-6.27,7.124-10.465,13.405-9.331c0.722,0.118,1.439-0.358,1.565-1.092c0.127-0.735-0.353-1.437-1.091-1.566
		c-6.771-1.221-13.337,2.629-15.773,8.833c-2.438-6.196-9.022-10.048-15.778-8.833c-0.736,0.129-1.226,0.831-1.092,1.566
		c0.129,0.733,0.838,1.21,1.566,1.092c6.312-1.113,12.285,3.066,13.413,9.318c0.71,3.952-0.227,8.097-2.558,11.366
		c-1.432,1.999-3.316,3.48-5.444,4.515c4.822-3.935,5.611-11.054,1.724-15.944c-3.241-4.056-9.176-4.725-13.22-1.495
		c-1.625,1.295-2.658,3.148-2.89,5.216c-0.232,2.066,0.354,4.113,1.648,5.737c1.081,1.36,2.624,2.215,4.354,2.404
		c1.716,0.206,3.428-0.284,4.788-1.371c0.319-0.253,0.459-0.611,0.478-1.002c0.237-0.411,0.408-0.875,0.408-1.392
		c0-1.593-1.289-2.891-2.89-2.891c-1.593,0-2.882,1.298-2.882,2.891c0,0.358,0.087,0.695,0.206,1.018
		c-0.925-0.153-1.756-0.606-2.344-1.345c-0.849-1.065-1.231-2.395-1.081-3.744c0.153-1.351,0.823-2.563,1.891-3.407
		c2.896-2.304,7.122-1.824,9.424,1.065c2.99,3.755,2.365,9.255-1.4,12.256c-4.82,3.839-10.47,3.153-15.912-1.936
		c-0.232-0.216-0.53-0.29-0.82-0.312c-2.616-2.531-5.305-5.821-8.435-9.766c-1.411-1.777-2.766-3.694-4.132-5.606
		c0.469,0.087,0.944,0.195,1.426,0.195c1.44,0,2.903-0.388,4.324-1.189c3.607-2.036,4.899-6.637,2.869-10.254
		c-1.708-3.024-5.553-4.082-8.572-2.396c-1.237,0.69-2.128,1.824-2.51,3.19c-0.382,1.366-0.211,2.797,0.49,4.034
		c0.591,1.049,1.556,1.809,2.713,2.133c1.155,0.324,2.375,0.18,3.428-0.408c0.514-0.288,0.665-0.86,0.567-1.411
		c0.032-0.098,0.129-0.145,0.145-0.248c0.137-0.967-0.522-1.869-1.495-2.014c-0.938-0.14-1.798,0.506-1.978,1.442
		c-0.43-0.142-0.804-0.417-1.031-0.817c-0.34-0.604-0.433-1.305-0.243-1.975s0.627-1.226,1.231-1.566
		c1.716-0.967,3.926-0.351,4.894,1.366c1.3,2.323,0.475,5.276-1.843,6.584c-3.915,2.207-6.945-0.358-8.537-2.297
		C44.102,80.455,36.476,72.36,23.177,72.36c-0.032,0-0.066,0-0.103,0c-6.582,0.021-12.556,2.658-16.809,7.42
		c-4.704,5.271-6.924,12.659-6.094,20.276c0.628,5.732,3.452,10.9,7.95,14.518c3.878,3.111,8.598,4.768,13.495,4.768
		c0.168,0,0.34-0.021,0.514-0.031c0.031,0,0.053,0.036,0.079,0.036c0.061,0,0.113,0,0.174-0.011c0.071-0.01,0.129-0.036,0.206-0.047
		c0.469-0.021,0.943-0.021,1.413-0.074c4.667-0.512,8.852-2.805,11.789-6.454c2.938-3.66,4.277-8.243,3.771-12.909
		c-0.865-7.845-7.913-13.543-15.792-12.688c-0.738,0.082-1.278,0.744-1.197,1.484c0.079,0.746,0.744,1.279,1.484,1.2
		c6.349-0.659,12.119,3.931,12.814,10.288c0.433,3.944-0.704,7.826-3.188,10.916c-0.453,0.569-0.98,1.055-1.5,1.54
		c1.376-2.826,1.804-6.271,1.058-9.798c-0.63-2.979-2.387-5.54-4.939-7.196c-2.56-1.664-5.622-2.231-8.593-1.592
		c-2.462,0.521-4.574,1.969-5.94,4.076c-1.366,2.106-1.83,4.611-1.305,7.063c0.427,2.03,1.613,3.776,3.359,4.904
		c1.743,1.14,3.823,1.529,5.875,1.097c1.706-0.358,3.169-1.36,4.113-2.821c0.751-1.154,0.989-2.494,0.92-3.844
		c0-0.053,0.032-0.105,0.032-0.158c0-0.074-0.032-0.138-0.037-0.211c-0.023-0.222,0.037-0.443-0.013-0.665
		c-0.021-0.1-0.113-0.137-0.156-0.231c-0.417-1.055-1.437-1.804-2.639-1.825c-1.595-0.021-2.906,1.256-2.927,2.848
		c-0.019,1.419,1.015,2.558,2.36,2.816c-0.551,0.728-1.308,1.255-2.209,1.445c-1.339,0.289-2.7,0.031-3.839-0.707
		c-1.134-0.738-1.911-1.883-2.188-3.206c-0.372-1.751-0.042-3.533,0.931-5.042c0.976-1.5,2.479-2.533,4.237-2.905
		c2.278-0.475,4.612-0.048,6.563,1.216c1.949,1.268,3.288,3.209,3.768,5.497c0.746,3.522,0.185,6.95-1.551,9.387
		c-1.442,2.025-3.694,3.312-6.489,3.786c-4.617,0.222-9.11-1.149-12.746-4.07c-3.937-3.164-6.41-7.679-6.961-12.704
		c-0.749-6.863,1.226-13.495,5.413-18.183c3.741-4.18,9.001-6.497,14.805-6.519c0.026,0,0.061,0,0.087,0
		c11.873,0,18.987,7.389,25.207,15.715c0.005,0.011,0,0.021,0.005,0.032c0.026,0.037,0.065,0.065,0.098,0.103
		c1.123,1.511,2.235,3.04,3.325,4.575c0.288,0.404,0.58,0.773,0.87,1.17c-2.144-0.411-4.324,0.032-6.354,1.382
		c-3.446,2.3-4.396,6.977-2.112,10.421c1.21,1.813,3.201,2.8,5.244,2.8c1.197,0,2.407-0.343,3.48-1.05
		c1.179-0.791,1.983-1.982,2.265-3.364c0.28-1.392,0.006-2.806-0.783-3.986c-1.379-2.057-4.182-2.621-6.254-1.239
		c-0.417,0.279-0.541,0.743-0.506,1.207c-0.05,0.121-0.179,0.211-0.19,0.354c-0.087,0.986,0.63,1.83,1.608,1.914
		c0.918,0.079,1.68-0.58,1.849-1.466c0.49,0.074,0.954,0.306,1.247,0.749c0.382,0.569,0.517,1.26,0.377,1.94
		s-0.535,1.266-1.112,1.656c-1.646,1.107-3.887,0.648-4.979-0.997c-1.463-2.209-0.854-5.205,1.355-6.671
		c3.937-2.603,7.291,0.085,8.946,1.909c0.008,0.011,0.013,0,0.019,0.011c0.037,0.047,0.079,0.116,0.119,0.158
		c7.667,9.671,14.293,18.003,25.568,16.289c4.493-0.686,8.446-3.132,11.135-6.892c1-1.398,1.701-2.953,2.252-4.567
		c0.552,1.608,1.247,3.164,2.252,4.567c2.689,3.754,6.64,6.206,11.132,6.892c11.285,1.714,17.898-6.628,25.566-16.289
		c0.036-0.042,0.084-0.116,0.115-0.158c0.006-0.011,0.011,0,0.017-0.011c1.655-1.835,5.015-4.532,8.943-1.909
		c2.21,1.456,2.816,4.462,1.36,6.666c-1.097,1.65-3.333,2.088-4.978,1.002c-0.575-0.38-0.981-0.976-1.113-1.656s0-1.371,0.375-1.94
		c0.306-0.443,0.765-0.675,1.249-0.749c0.169,0.886,0.939,1.54,1.852,1.466c0.976-0.084,1.688-0.928,1.608-1.914
		c-0.011-0.143-0.138-0.227-0.19-0.354c0.026-0.464-0.1-0.917-0.506-1.202c-2.052-1.366-4.867-0.812-6.254,1.245
		c-0.791,1.181-1.055,2.589-0.786,3.976c0.285,1.393,1.086,2.589,2.263,3.375c1.07,0.707,2.283,1.044,3.48,1.044
		c2.035,0,4.039-0.98,5.247-2.805c2.283-3.444,1.334-8.111-2.12-10.421c-2.025-1.345-4.208-1.785-6.354-1.371
		c0.29-0.403,0.58-0.777,0.87-1.181c1.092-1.535,2.204-3.064,3.327-4.575c0.026-0.037,0.063-0.066,0.101-0.103
		c0.005-0.011,0-0.021,0.005-0.032c6.223-8.326,13.331-15.715,25.207-15.715c0.026,0,0.059,0,0.09,0
		c5.806,0.016,11.063,2.334,14.803,6.519c4.192,4.693,6.164,11.319,5.41,18.183c-0.554,5.025-3.017,9.529-6.961,12.704
		c-3.633,2.921-8.137,4.292-12.74,4.07c-2.801-0.475-5.047-1.761-6.481-3.786c-1.734-2.437-2.305-5.864-1.55-9.392
		c0.479-2.283,1.819-4.229,3.771-5.498c1.956-1.266,4.281-1.69,6.56-1.215c1.751,0.372,3.259,1.403,4.234,2.906
		c0.976,1.492,1.303,3.274,0.934,5.047c-0.279,1.312-1.055,2.457-2.188,3.195c-1.139,0.749-2.494,1.007-3.839,0.718
		c-0.901-0.195-1.661-0.729-2.21-1.445c1.351-0.27,2.379-1.413,2.363-2.826c-0.021-1.593-1.324-2.869-2.927-2.843
		c-1.208,0.016-2.221,0.775-2.637,1.83c-0.037,0.084-0.132,0.116-0.158,0.231c-0.048,0.222,0.01,0.433-0.006,0.648
		c-0.005,0.08-0.042,0.143-0.042,0.222c0,0.059,0.031,0.111,0.037,0.169c-0.068,1.35,0.174,2.695,0.923,3.85
		c0.949,1.45,2.404,2.452,4.107,2.811c2.036,0.443,4.13,0.043,5.875-1.097c1.74-1.128,2.932-2.868,3.359-4.894
		c0.527-2.457,0.063-4.963-1.303-7.069c-1.366-2.112-3.485-3.56-5.943-4.076c-2.984-0.627-6.032-0.076-8.59,1.593
		c-2.558,1.664-4.314,4.216-4.947,7.201c-0.743,3.527-0.316,6.981,1.061,9.798c-0.527-0.496-1.055-0.981-1.514-1.546
		c-2.483-3.084-3.612-6.971-3.18-10.91c0.69-6.362,6.412-10.958,12.809-10.294c0.755,0.074,1.408-0.453,1.482-1.199
		c0.084-0.738-0.454-1.403-1.202-1.485c-7.853-0.902-14.93,4.838-15.784,12.683c-0.511,4.666,0.828,9.249,3.766,12.909
		c2.938,3.665,7.119,5.959,11.786,6.454c0.479,0.053,0.949,0.053,1.424,0.074c0.074,0.011,0.127,0.042,0.206,0.053
		c0.062,0.005,0.115,0.011,0.168,0.011c0.032,0,0.053-0.026,0.085-0.042c0.169,0.016,0.337,0.036,0.517,0.036
		c4.894,0,9.613-1.661,13.495-4.772c4.498-3.617,7.319-8.774,7.946-14.512C192.386,92.434,190.165,85.041,185.461,79.775z"/>
</g>
<g>
</g>
<g>
</g>
<g>
</g>
<g>
</g>
<g>
</g>
<g>
</g>
<g>
</g>
<g>
</g>
<g>
</g>
<g>
</g>
<g>
</g>
<g>
</g>
<g>
</g>
<g>
</g>
<g>
</g>
</svg>
