<svg height="511pt" viewBox="0 -98 511.99788 511" width="511pt" xmlns="http://www.w3.org/2000/svg"><path d="m493.886719 138.835938c-14.40625-13.558594-34.9375-18.785157-54.917969-13.980469-42.839844 10.300781-52.859375 67.082031-18.683594 88.003906 17.9375 10.984375 42.671875 7.695313 54.058594-10.898437 14.945312-24.414063-3.597656-53.8125-29.855469-49.296876-13.941406 1.167969-18.394531 19.546876-6.398437 26.890626 7.980468 4.886718 18.6875 1.105468 21.507812-8.1875 2.09375 1.949218 3.570313 4.46875 4.257813 7.316406 4.429687 18.417968-16.625 32.914062-35.660157 21.257812-22.742187-13.925781-15.367187-53.222656 14.316407-60.359375 15.222656-3.660156 30.164062.089844 40.992187 10.285157 34.007813 32.015624-2.839844 88.734374-47.335937 80.136718-12.378907-2.390625-23.65625-9.570312-33.996094-16.96875-92.691406-66.316406-193.21875-70.996094-292.453125 0-10.34375 7.398438-21.621094 14.578125-34 16.96875-44.347656 8.566406-81.421875-48.046875-47.332031-80.136718 10.828125-10.195313 25.773437-13.945313 40.992187-10.285157 19.316406 4.644531 31.253906 24.136719 26.609375 43.453125-5.433593 22.585938-35.144531 27.96875-45.523437 11.015625-5.117188-8.351562-3.417969-17.46875 1.785156-22.597656 2.8125 9.257813 13.496094 13.09375 21.503906 8.1875 11.632813-7.121094 7.882813-24.808594-5.464844-26.796875-26.046874-5.335938-46.128906 23.988281-30.742187 49.117188 17.402344 28.421874 64.578125 20.332031 73.167969-15.382813 6.597656-27.4375-10.359375-55.125-37.796875-61.722656-19.980469-4.804688-40.511719.421875-54.917969 13.980469-44.796875 42.171874 1.042969 117.566406 60.59375 106.042968 27.535156-5.324218 37.476562-21.875 76.972656-42.265625-16.140625 18.84375-22.359375 41.871094-16.800781 64.988281 8.019531 33.359376 41.515625 53.867188 74.871094 45.84375 42.839843-10.300781 52.855469-67.082031 18.683593-88.003906-30.558593-18.710937-65.867187 6.25-58.296874 37.71875 3.699218 15.398438 18.535156 24.890625 33.59375 22.558594 14.113281-1.121094 18.355468-19.617188 6.460937-26.898438-7.859375-4.8125-18.363281-1.222656-21.386719 7.792969-5.75-5.703125-5.746094-15.449219-1.511718-22.367187 10.417968-17.007813 40.105468-11.507813 45.523437 11.015625 4.644531 19.316406-7.292969 38.8125-26.609375 43.457031-51.449219 12.371094-87.3125-60.019531-25.53125-101.640625 39.75-26.78125 102.710938-26.988281 142.765625 0 25.421875 17.125 37.035156 42.167969 31.066406 66.980469-6.0625 25.222656-31.378906 40.722656-56.601562 34.660156-29.769531-7.160156-37.007813-46.46875-14.316407-60.359375 19.015626-11.648437 40.09375 2.824219 35.660157 21.257813-.644531 2.695312-2.015625 5.082031-3.929688 6.988281-3.007812-9.03125-13.519531-12.652344-21.398437-7.828125-6.851563 4.195312-9.003906 13.152344-4.808594 20.003906 8.441406 13.785156 39.113281 8.296875 44.863281-15.621094 7.535157-31.328125-27.550781-56.542968-58.296875-37.722656-34.269531 20.988281-24.011718 77.738281 18.683594 88.007812 59.445312 14.296876 103.847656-57.378906 58.070312-110.832031 38.019532 19.628907 49.949219 37.039063 76.972657 42.261719 59.144531 11.445312 105.804687-63.476562 60.59375-106.039062zm0 0"/><path d="m169.308594 84.753906c1.261718 3.988282 5.515625 6.203125 9.503906 4.9375 3.988281-1.25 6.199219-5.511718 4.9375-9.5-2.707031-8.585937-4.707031-18.078125-5.96875-28.296875 28.347656 9.394531 57.898438 27.109375 70.203125 54.199219-3.917969 11.046875-5.414063 22.886719-4.714844 34.445312-19.195312-4.746093-35.960937-16.175781-47.785156-34.699218-2.253906-3.535156-6.9375-4.5625-10.460937-2.3125-3.527344 2.242187-4.566407 6.929687-2.3125 10.453125 49.296874 77.269531 159.6875 51.378906 167.558593-72.515625.152344-2.382813-.828125-4.695313-2.644531-6.242188-1.816406-1.542968-4.261719-2.152344-6.59375-1.625-1.746094.402344-27.617188 6.472656-52.339844 23.0625-4.453125-15.851562-12.875-33.625-27.195312-53.074218-2.992188-4.082032-9.070313-4.121094-12.128906-.09375-9.570313 12.625-20.636719 34.199218-25.828126 53.554687-24.90625-16.574219-50.96875-22.53125-52.734374-22.914063-4.960938-1.09375-9.539063 2.910157-9.179688 7.917969 1.089844 15.628907 3.675781 30 7.683594 42.703125zm164.847656-33.34375c-5.558594 46.308594-28.863281 86.613282-75.578125 90.984375-1.886719-21.695312 4.550781-40.597656 19.257813-56.671875 14.523437-15.898437 35.777343-27.367187 56.320312-34.3125zm-78.605469-29.882812c10.953125 16.664062 17.15625 31.710937 20.105469 45.101562-7.332031 6.402344-14.109375 13.914063-19.5625 22.679688-5.441406-8.613282-12.15625-15.996094-19.410156-22.296875 3.371094-15.699219 10.53125-31.832031 18.867187-45.484375zm0 0"/></svg>