<?xml version="1.0" encoding="UTF-8" standalone="no"?>
<!-- Created with Inkscape (http://www.inkscape.org/) -->

<svg
   xmlns:dc="http://purl.org/dc/elements/1.1/"
   xmlns:cc="http://creativecommons.org/ns#"
   xmlns:rdf="http://www.w3.org/1999/02/22-rdf-syntax-ns#"
   xmlns:svg="http://www.w3.org/2000/svg"
   xmlns="http://www.w3.org/2000/svg"
   xmlns:xlink="http://www.w3.org/1999/xlink"
   xmlns:sodipodi="http://sodipodi.sourceforge.net/DTD/sodipodi-0.dtd"
   xmlns:inkscape="http://www.inkscape.org/namespaces/inkscape"
   width="210mm"
   height="297mm"
   viewBox="0 0 744.09448819 1052.3622047"
   id="svg2"
   version="1.1"
   inkscape:version="0.91 r13865"
   onload="var src; if (document.documentURI) src = document.documentURI; else if (this.getSrc) src = this.getSrc(); else src = document.location.href + ''; try {parent.preload.load(src);}catch(e) {}"
   sodipodi:docname="rysunek.svg">
  <defs
     id="defs4" />
  <sodipodi:namedview
     id="base"
     pagecolor="#ffffff"
     bordercolor="#666666"
     borderopacity="1.0"
     inkscape:pageopacity="0.0"
     inkscape:pageshadow="2"
     inkscape:zoom="2.8"
     inkscape:cx="336.38069"
     inkscape:cy="513.74588"
     inkscape:document-units="px"
     inkscape:current-layer="layer1"
     showgrid="false"
     inkscape:window-width="1536"
     inkscape:window-height="801"
     inkscape:window-x="-8"
     inkscape:window-y="-8"
     inkscape:window-maximized="1" />
  <metadata
     id="metadata7">
    <rdf:RDF>
      <cc:Work
         rdf:about="">
        <dc:format>image/svg+xml</dc:format>
        <dc:type
           rdf:resource="http://purl.org/dc/dcmitype/StillImage" />
        <dc:title></dc:title>
      </cc:Work>
    </rdf:RDF>
  </metadata>
  <g
     inkscape:label="Layer 1"
     inkscape:groupmode="layer"
     id="layer1">
    <image
       sodipodi:absref="C:\Users\lukas\OneDrive\Pulpit\Projekt końcowy CL\ornament\ornament2.png"
       xlink:href="ornament2.png"
       width="639.11237"
       height="639.11237"
       preserveAspectRatio="none"
       style="image-rendering:optimizeSpeed"
       id="image3655"
       x="60.443825"
       y="207.09172" />
    <path
       style="fill:#ffffff"
       d="m 180.13306,563.46121 c 0,-0.39286 -1.60714,-0.71429 -3.57142,-0.71429 -1.96429,0 -3.57143,-0.28398 -3.57143,-0.63107 0,-0.34709 -2.08929,-0.85482 -4.64286,-1.12829 -2.55357,-0.27346 -4.64286,-0.79305 -4.64286,-1.15463 0,-0.36159 -0.80357,-0.65744 -1.78571,-0.65744 -0.98214,0 -1.78572,-0.32143 -1.78572,-0.71428 0,-0.39286 -0.77678,-0.71429 -1.72619,-0.71429 -0.9494,0 -1.84024,-0.34216 -1.97964,-0.76036 -0.1394,-0.4182 -1.61261,-0.94267 -3.27381,-1.16548 -1.6612,-0.22281 -3.02036,-0.68422 -3.02036,-1.02535 0,-0.34113 -0.48214,-0.62024 -1.07142,-0.62024 -0.58929,0 -1.07143,-0.32143 -1.07143,-0.71428 0,-0.39286 -0.60847,-0.71429 -1.35215,-0.71429 -0.74369,0 -1.53717,-0.48214 -1.7633,-1.07143 -0.22613,-0.58928 -0.99313,-1.07143 -1.70445,-1.07143 -0.71132,0 -1.75665,-0.64285 -2.32296,-1.42857 -0.56631,-0.78571 -1.29369,-1.42857 -1.6164,-1.42857 -0.96792,0 -3.93781,-2.64996 -5.50557,-4.91248 -0.84617,-1.22115 -1.78414,-1.51609 -4.82143,-1.51609 -2.07399,0 -3.77089,0.32143 -3.77089,0.71429 0,0.39285 -1.60714,0.71428 -3.57142,0.71428 -1.96429,0 -3.57143,0.32143 -3.57143,0.71429 0,0.39285 -1.76786,0.71428 -3.92857,0.71428 -2.16072,0 -3.92858,-0.32143 -3.92858,-0.71428 0,-0.39286 -1.125,-0.71429 -2.5,-0.71429 -1.375,0 -2.5,-0.28035 -2.5,-0.62299 0,-0.34265 -1.2086,-0.81626 -2.68579,-1.05247 -1.49658,-0.23932 -3.147751,-1.07041 -3.729112,-1.87701 -0.573826,-0.79614 -1.454506,-1.44753 -1.957064,-1.44753 -1.182596,0 -3.770887,-2.58829 -3.770887,-3.77089 0,-0.50255 -0.651388,-1.38323 -1.44753,-1.95706 -0.806595,-0.58136 -1.637693,-2.23253 -1.877006,-3.72911 -0.236211,-1.47719 -0.709823,-2.6858 -1.05247,-2.6858 -0.342646,0 -0.622994,-2.89285 -0.622994,-6.42857 0,-3.53571 0.279626,-6.42857 0.621391,-6.42857 0.341765,0 0.781134,-1.41723 0.976374,-3.1494 0.282893,-2.50981 0.960383,-3.74281 3.336038,-6.07143 1.63958,-1.60711 3.450212,-2.92203 4.023626,-2.92203 0.573414,0 1.042571,-0.32142 1.042571,-0.71428 0,-0.39286 0.803572,-0.71429 1.785715,-0.71429 0.982138,0 1.785718,-0.32143 1.785718,-0.71428 0,-0.40817 2.14285,-0.71429 5,-0.71429 2.85714,0 5,0.30612 5,0.71429 0,0.39285 0.64285,0.71428 1.42857,0.71428 0.78571,0 1.42857,0.32143 1.42857,0.71429 0,0.39286 0.48214,0.71428 1.07143,0.71428 0.58928,0 1.07143,0.29977 1.07143,0.66616 0,0.36638 0.65606,0.87437 1.45791,1.12887 0.86544,0.27468 1.62742,1.31021 1.875,2.54814 0.2294,1.14697 0.69834,2.08541 1.04209,2.08541 0.34375,0 0.625,0.80357 0.625,1.78571 0,0.98214 0.32142,1.78571 0.71428,1.78571 0.39286,0 0.71429,0.48215 0.71429,1.07143 0,0.58929 0.28704,1.07143 0.63786,1.07143 0.77375,0 1.50499,-1.76366 1.50499,-3.62985 0,-0.75358 0.32143,-1.37015 0.71429,-1.37015 0.39286,0 0.71429,-0.48214 0.71429,-1.07143 0,-0.58928 0.32142,-1.07143 0.71428,-1.07143 0.39286,0 0.71429,-0.64285 0.71429,-1.42857 0,-0.78571 0.32143,-1.42857 0.71428,-1.42857 0.39286,0 0.71429,-0.46753 0.71429,-1.03896 0,-1.12787 3.23994,-4.67532 4.27005,-4.67532 0.34852,0 0.83772,-0.64286 1.08709,-1.42858 0.24938,-0.78571 1.07461,-1.42857 1.83385,-1.42857 0.75924,0 1.38044,-0.30686 1.38044,-0.68192 0,-0.37505 1.125,-0.89297 2.5,-1.15092 1.375,-0.25795 2.5,-0.75466 2.5,-1.10379 0,-0.34914 0.80357,-0.6348 1.78571,-0.6348 0.98214,0 1.78572,-0.32142 1.78572,-0.71428 0,-0.43956 3.57142,-0.71429 9.28571,-0.71429 5.71429,0 9.28571,0.27473 9.28571,0.71429 0,0.39286 1.125,0.71428 2.5,0.71428 1.375,0 2.5,0.28125 2.5,0.625 0,0.34375 0.97033,0.81907 2.15628,1.05626 2.33342,0.46668 7.84372,5.57827 7.84372,7.27617 0,0.57342 0.32143,1.04257 0.71429,1.04257 0.39286,0 0.71429,0.80358 0.71429,1.78572 0,0.98214 0.32142,1.78571 0.71428,1.78571 0.42017,0 0.71429,2.5 0.71429,6.07143 0,3.57143 -0.29412,6.07143 -0.71429,6.07143 -0.39286,0 -0.71428,0.96429 -0.71428,2.14286 0,1.17857 -0.32143,2.14285 -0.71429,2.14285 -0.39286,0 -0.71429,0.48215 -0.71429,1.07143 0,0.58929 -0.32142,1.07143 -0.71428,1.07143 -0.39286,0 -0.71429,0.50752 -0.71429,1.12782 0,1.29223 -5.89839,7.44361 -7.13748,7.44361 -0.84689,0 -2.86252,1.72444 -2.86252,2.44898 0,0.22449 3.69643,0.40816 8.21429,0.40816 5,0 8.21428,-0.2795 8.21428,-0.71428 0,-0.45549 5.95238,-0.71429 16.42858,-0.71429 10.47619,0 16.42857,0.2588 16.42857,0.71429 0,0.42606 2.73809,0.71428 6.78571,0.71428 3.73214,0 6.78572,0.28321 6.78572,0.62935 0,0.34613 3.05357,0.85827 6.78571,1.13808 3.73214,0.27981 6.78571,0.80018 6.78571,1.15638 0,0.35619 1.125,0.64762 2.5,0.64762 1.375,0 2.5,0.32143 2.5,0.71429 0,1.2866 3.23178,0.74797 4.28572,-0.71429 0.56631,-0.78571 1.60156,-1.42857 2.30054,-1.42857 0.69899,0 1.27089,-0.48214 1.27089,-1.07143 0,-0.66667 0.6746,-1.07143 1.78571,-1.07143 0.98214,0 1.78572,-0.32143 1.78572,-0.71428 0,-0.39286 0.48214,-0.71429 1.07142,-0.71429 0.58929,0 1.07143,-0.28566 1.07143,-0.63479 0,-0.34914 1.125,-0.84584 2.5,-1.1038 1.375,-0.25795 2.5,-0.77586 2.5,-1.15092 0,-0.37505 0.64286,-0.68192 1.42857,-0.68192 0.78572,0 1.42858,-0.32143 1.42858,-0.71428 0,-0.39286 0.48214,-0.71429 1.07142,-0.71429 0.58929,0 1.07143,-0.28566 1.07143,-0.63479 0,-0.34914 1.125,-0.84584 2.5,-1.1038 1.375,-0.25795 2.5,-0.77586 2.5,-1.15092 0,-0.37505 0.64286,-0.68192 1.42857,-0.68192 0.78572,0 1.42858,-0.32143 1.42858,-0.71428 0,-0.39286 0.48214,-0.71429 1.07142,-0.71429 0.58929,0 1.07143,-0.28493 1.07143,-0.63318 0,-0.34825 1.44643,-0.85009 3.21429,-1.1152 1.76786,-0.2651 3.21428,-0.78374 3.21428,-1.15253 0,-0.36878 0.80358,-0.67052 1.78572,-0.67052 0.98214,0 1.78571,-0.32143 1.78571,-0.71428 0,-0.39286 0.77679,-0.71429 1.7262,-0.71429 0.9494,0 1.83528,-0.32729 1.96862,-0.7273 0.13334,-0.40002 1.92798,-0.92694 3.9881,-1.17093 2.0601,-0.24399 3.74565,-0.72027 3.74565,-1.05841 0,-0.33813 0.80358,-0.61479 1.78572,-0.61479 0.98214,0 1.78571,-0.32143 1.78571,-0.71428 0,-0.39286 1.09822,-0.71429 2.44048,-0.71429 1.34226,0 2.54762,-0.31411 2.67857,-0.69803 0.13095,-0.38391 3.0506,-0.91347 6.4881,-1.1768 3.4375,-0.26333 6.25,-0.75279 6.25,-1.08769 0,-0.3349 6.10714,-0.60891 13.57142,-0.60891 7.86992,0 13.57143,0.27849 13.57143,0.66289 0,0.36459 1.76786,0.88377 3.92857,1.15373 2.16072,0.26997 3.92858,0.77524 3.92858,1.12283 0,0.34759 0.48214,0.63198 1.07142,0.63198 0.58929,0 1.07143,0.32143 1.07143,0.71429 0,0.39285 0.60847,0.71428 1.35215,0.71428 0.74369,0 1.54695,0.50762 1.78502,1.12803 0.36123,0.94135 0.0488,1.04518 -1.88787,0.62742 -1.2764,-0.27534 -2.42787,-0.78295 -2.55882,-1.12803 -0.13096,-0.34508 -0.69346,-0.62742 -1.25,-0.62742 -0.55655,0 -1.01191,-0.32143 -1.01191,-0.71428 0,-0.39286 -0.77678,-0.71429 -1.72619,-0.71429 -0.9494,0 -1.86031,-0.40178 -2.02423,-0.89286 -0.43187,-1.29376 -34.21164,-1.29376 -34.64263,0 -0.17809,0.53462 -1.5632,0.89286 -3.45218,0.89286 -1.73512,0 -3.15477,0.32143 -3.15477,0.71429 0,0.39285 -0.80357,0.71428 -1.78571,0.71428 -0.98214,0 -1.78571,0.28399 -1.78571,0.63108 0,0.34709 -2.08929,0.85481 -4.64286,1.12828 -2.55357,0.27346 -4.64286,0.79305 -4.64286,1.15464 0,0.36159 -0.48214,0.65743 -1.07143,0.65743 -0.58928,0 -1.07143,0.32143 -1.07143,0.71429 0,0.39285 -0.80357,0.71428 -1.78571,0.71428 -0.98214,0 -1.78571,0.27911 -1.78571,0.62024 0,0.34113 -1.35916,0.80254 -3.02036,1.02535 -1.66119,0.22281 -3.13441,0.74728 -3.27381,1.16548 -0.1394,0.4182 -0.86953,0.76036 -1.6225,0.76036 -0.75298,0 -1.36905,0.32143 -1.36905,0.71429 0,0.39285 -0.80357,0.71428 -1.78571,0.71428 -0.98215,0 -1.78572,0.30687 -1.78572,0.68192 0,0.37506 -1.125,0.89297 -2.5,1.15092 -1.375,0.25796 -2.5,0.75466 -2.5,1.1038 0,0.34913 -0.48214,0.63479 -1.07143,0.63479 -0.58928,0 -1.07142,0.32143 -1.07142,0.71429 0,0.39285 -0.64286,0.71428 -1.42858,0.71428 -0.78571,0 -1.42857,0.28659 -1.42857,0.63685 0,0.35027 -0.80357,0.83854 -1.78571,1.08504 -0.98214,0.2465 -1.78572,0.76349 -1.78572,1.14886 0,0.38538 -0.48214,0.70068 -1.07142,0.70068 -0.58929,0 -1.07143,0.32143 -1.07143,0.71429 0,0.39285 -0.5051,0.71428 -1.12245,0.71428 -1.36256,0 -3.1592,1.68937 -3.1742,2.9847 -0.008,0.70436 -0.20322,0.67199 -0.76867,-0.12755 -0.57022,-0.8063 -0.84738,-0.85049 -1.12001,-0.17858 -0.19927,0.49108 -0.94397,0.89286 -1.65492,0.89286 -1.22482,0 -2.57923,1.96147 -1.85471,2.686 0.18627,0.18627 1.80098,0.50349 3.58824,0.70495 1.78727,0.20145 3.24957,0.64589 3.24957,0.98766 0,0.34177 0.80358,0.62139 1.78572,0.62139 0.98214,0 1.78571,0.32143 1.78571,0.71429 0,0.39285 1.125,0.71428 2.5,0.71428 1.375,0 2.5,0.32143 2.5,0.71429 0,0.39286 0.64286,0.71428 1.42857,0.71428 0.78572,0 1.42858,-0.32142 1.42858,-0.71428 0,-0.39286 -0.32143,-0.71429 -0.71429,-0.71429 -0.39286,0 -0.71429,-0.32143 -0.71429,-0.71428 0,-0.39286 0.80358,-0.71429 1.78572,-0.71429 0.98214,0 1.78571,0.32143 1.78571,0.71429 0,0.39285 0.9375,0.71428 2.08334,0.71428 1.14583,0 2.21731,0.40179 2.38108,0.89286 0.22607,0.67793 4.05176,0.89286 15.89292,0.89286 11.84126,0 15.6668,-0.21492 15.89273,-0.89286 0.16365,-0.49107 1.39577,-0.89286 2.73803,-0.89286 1.34226,0 2.44047,-0.32143 2.44047,-0.71428 0,-0.39286 0.80358,-0.71429 1.78572,-0.71429 0.98214,0 1.78571,-0.32143 1.78571,-0.71428 0,-0.39286 0.64286,-0.71429 1.42857,-0.71429 0.78572,0 1.42858,0.18367 1.42858,0.40816 0,0.81104 -2.06458,2.44898 -3.08685,2.44898 -0.57531,0 -1.23104,0.48215 -1.45718,1.07143 -0.22612,0.58929 -1.06408,1.07143 -1.86213,1.07143 -0.79804,0 -1.45099,0.32143 -1.45099,0.71429 0,0.39285 -0.80357,0.71428 -1.78571,0.71428 -0.98214,0 -1.78572,0.32143 -1.78572,0.71429 0,0.39285 -1.125,0.71428 -2.5,0.71428 -1.375,0 -2.5,0.32143 -2.5,0.71429 0,0.44733 -4.40476,0.71428 -11.78571,0.71428 -7.38095,0 -11.78571,-0.26695 -11.78571,-0.71428 0,-0.39286 -1.76786,-0.71429 -3.92858,-0.71429 -2.16071,0 -3.92857,-0.32143 -3.92857,-0.71428 0,-0.39286 -1.28571,-0.71429 -2.85714,-0.71429 -1.57143,0 -2.85714,-0.28398 -2.85714,-0.63107 0,-0.34709 -2.08929,-0.85482 -4.64286,-1.12828 -2.55357,-0.27347 -4.64286,-0.79306 -4.64286,-1.15464 0,-0.36159 -1.125,-0.65744 -2.5,-0.65744 -1.375,0 -2.5,-0.32143 -2.5,-0.71428 0,-0.39286 -0.80357,-0.71429 -1.78571,-0.71429 -0.98214,0 -1.78572,-0.32143 -1.78572,-0.71428 0,-1.2264 -1.77892,-0.78167 -2.85714,0.71428 -0.56631,0.78572 -1.45618,1.42857 -1.97751,1.42857 -0.52131,0 -1.69257,0.80357 -2.60279,1.78572 -0.91022,0.98214 -2.15893,1.78571 -2.7749,1.78571 -0.61598,0 -1.32399,0.64286 -1.57337,1.42857 -0.24938,0.78572 -1.05165,1.42857 -1.78283,1.42857 -0.73118,0 -1.81156,0.48215 -2.40084,1.07143 -0.58929,0.58929 -1.41582,1.07143 -1.83674,1.07143 -0.42092,0 -0.7653,0.32143 -0.7653,0.71429 0,0.39285 -0.64286,0.71428 -1.42858,0.71428 -0.78571,0 -1.42857,0.30687 -1.42857,0.68192 0,0.37506 -1.125,0.89297 -2.5,1.15092 -1.375,0.25796 -2.5,0.75466 -2.5,1.1038 0,0.34913 -0.48214,0.63479 -1.07143,0.63479 -0.58928,0 -1.07142,0.32143 -1.07142,0.71429 0,0.39285 -0.80358,0.71428 -1.78572,0.71428 -0.98214,0 -1.78571,0.29585 -1.78571,0.65744 0,0.36158 -2.08929,0.88117 -4.64286,1.15463 -2.55357,0.27347 -4.64286,0.7812 -4.64286,1.12829 0,0.34709 -1.28571,0.63107 -2.85714,0.63107 -1.57143,0 -2.85714,0.32143 -2.85714,0.71429 0,0.45177 -5.11905,0.71428 -13.92857,0.71428 -8.80953,0 -13.92858,-0.26251 -13.92858,-0.71428 z m 28.45238,-3.60803 c 0.13096,-0.37273 1.33632,-0.67769 2.67857,-0.67769 1.34227,0 2.44048,-0.32143 2.44048,-0.71428 0,-0.39286 1.125,-0.71429 2.5,-0.71429 1.375,0 2.5,-0.27911 2.5,-0.62024 0,-0.34113 1.35916,-0.80253 3.02036,-1.02535 1.66119,-0.22281 3.13441,-0.74727 3.27381,-1.16547 0.1394,-0.4182 0.86953,-0.76037 1.6225,-0.76037 0.75298,0 1.36905,-0.32143 1.36905,-0.71428 0,-0.39286 0.80357,-0.71429 1.78571,-0.71429 0.98214,0 1.78572,-0.28658 1.78572,-0.63685 0,-0.35027 0.80357,-0.83854 1.78571,-1.08504 0.98214,-0.2465 1.78571,-0.76349 1.78571,-1.14886 0,-0.38537 0.64286,-0.70068 1.42858,-0.70068 0.78571,0 1.42857,-0.32143 1.42857,-0.71428 0,-0.39286 0.48214,-0.71429 1.07143,-0.71429 0.58928,0 1.07142,-0.29977 1.07142,-0.66615 0,-0.36638 0.72322,-0.89451 1.60715,-1.17361 0.88393,-0.27909 2.12698,-1.10433 2.76235,-1.83384 0.63537,-0.72952 1.68001,-1.3264 2.32143,-1.3264 0.64142,0 1.16622,-0.48214 1.16622,-1.07143 0,-0.7483 -0.75397,-1.07143 -2.5,-1.07143 -1.375,0 -2.5,-0.32142 -2.5,-0.71428 0,-0.39286 -1.76786,-0.71429 -3.92857,-0.71429 -2.16072,0 -3.92858,-0.32143 -3.92858,-0.71428 0,-0.39571 -1.88492,-0.71429 -4.22619,-0.71429 -2.74603,0 -4.33042,-0.31271 -4.52381,-0.89286 -0.23262,-0.69786 -7.8373,-0.89285 -34.82142,-0.89285 -26.98413,0 -34.58881,0.19499 -34.82143,0.89285 -0.20468,0.61404 -2.06349,0.89286 -5.95238,0.89286 -3.29365,0 -5.65477,0.29825 -5.65477,0.71429 0,0.39682 -1.90476,0.71428 -4.28571,0.71428 -4.75517,0 -5.19816,0.58106 -2.5,3.27922 0.98214,0.98215 1.78571,2.09254 1.78571,2.46754 0,0.375 0.6199,0.68181 1.37756,0.68181 0.75765,0 1.85969,0.48215 2.44898,1.07143 0.58928,0.58929 1.41581,1.07143 1.83673,1.07143 0.42092,0 0.76531,0.32143 0.76531,0.71429 0,0.39285 0.64285,0.71428 1.42857,0.71428 0.78571,0 1.42857,0.30687 1.42857,0.68192 0,0.37506 1.125,0.89297 2.5,1.15092 1.375,0.25796 2.5,0.75466 2.5,1.1038 0,0.34913 0.48214,0.63479 1.07143,0.63479 0.58928,0 1.07143,0.32143 1.07143,0.71429 0,0.39285 0.80357,0.71428 1.78571,0.71428 0.98214,0 1.78571,0.2983 1.78571,0.66289 0,0.36459 1.76786,0.88377 3.92858,1.15373 2.16071,0.26997 3.92857,0.77524 3.92857,1.12283 0,0.34759 1.125,0.63198 2.5,0.63198 1.375,0 2.5,0.32143 2.5,0.71429 0,0.39285 1.125,0.71428 2.5,0.71428 1.375,0 2.5,0.30735 2.5,0.683 0,1.4534 30.08457,1.44818 30.59523,-0.005 l 0,-2e-5 z m -83.45238,-19.9634 c 0,-0.39286 0.96429,-0.71429 2.14286,-0.71429 1.17857,0 2.14286,-0.32143 2.14286,-0.71428 0,-0.39286 -0.32143,-0.71429 -0.71429,-0.71429 -0.39285,0 -0.71428,-0.48214 -0.71428,-1.07143 0,-0.58928 -0.32143,-1.07143 -0.71429,-1.07143 -0.39286,0 -0.71428,-0.61607 -0.71428,-1.36904 0,-0.75298 -0.31828,-1.47619 -0.70728,-1.60715 -0.38901,-0.13095 -0.9221,-2.32738 -1.18464,-4.88095 -0.3259,-3.16967 -0.89473,-5.00941 -1.79272,-5.79807 -1.04671,-0.91927 -1.31536,-2.19578 -1.31536,-6.25 0,-2.80213 -0.28125,-5.09479 -0.625,-5.09479 -0.34375,0 -0.8195,-0.9725 -1.05723,-2.16112 -0.5535,-2.76748 -3.38917,-5.60315 -6.15665,-6.15665 -1.18862,-0.23773 -2.16112,-0.71348 -2.16112,-1.05723 0,-0.34375 -2.57143,-0.625 -5.71429,-0.625 -3.33333,0 -5.71429,0.29762 -5.71429,0.71429 0,0.39286 -0.467528,0.71429 -1.038956,0.71429 -0.571429,0 -1.857143,0.81818 -2.857143,1.81818 -1,1 -1.818182,2.28571 -1.818182,2.85714 0,0.57143 -0.321429,1.03896 -0.714286,1.03896 -0.392857,0 -0.714286,0.64286 -0.714286,1.42857 0,0.78572 -0.321428,1.42857 -0.714285,1.42857 -0.392858,0 -0.714286,1.125 -0.714286,2.5 0,1.375 -0.321429,2.5 -0.714286,2.5 -0.392857,0 -0.714286,1.60715 -0.714286,3.57143 0,1.96429 0.321429,3.57143 0.714286,3.57143 0.392857,0 0.714286,0.80357 0.714286,1.78572 0,0.98214 0.321428,1.78571 0.714286,1.78571 0.392857,0 0.714285,0.64286 0.714285,1.42857 0,0.78572 0.321429,1.42857 0.714286,1.42857 0.392857,0 0.714286,0.44815 0.714286,0.99589 0,1.68862 4.032459,5.41775 6.362311,5.88372 1.21501,0.243 2.20912,0.72307 2.20912,1.06682 0,0.34375 0.48214,0.625 1.07143,0.625 0.58928,0 1.07142,0.32143 1.07142,0.71429 0,0.39285 1.125,0.71428 2.5,0.71428 1.375,0 2.5,0.32143 2.5,0.71429 0,0.43084 2.9762,0.71428 7.5,0.71428 4.52381,0 7.5,-0.28344 7.5,-0.71428 z m 19.28572,-2.85714 c 0,-0.39286 1.84821,-0.71783 4.10714,-0.72215 5.14388,-0.01 9.46429,-0.70106 9.46429,-1.51417 0,-0.34146 -0.64286,-0.62083 -1.42857,-0.62083 -0.78572,0 -1.42858,-0.32143 -1.42858,-0.71428 0,-0.39286 -0.80357,-0.71429 -1.78571,-0.71429 -0.98214,0 -1.78571,-0.32143 -1.78571,-0.71428 0,-0.39286 -0.44815,-0.71429 -0.99589,-0.71429 -0.54774,0 -2.07453,-1.0076 -3.39286,-2.2391 -2.30942,-2.15732 -2.39697,-2.43561 -2.39697,-7.61905 0,-3.66904 0.28394,-5.47459 0.89286,-5.67756 0.49107,-0.1637 0.89286,-0.77594 0.89286,-1.36055 0,-2.64192 2.17163,-3.46088 9.17719,-3.46088 4.83683,0 6.86214,0.25915 7.07739,0.90561 0.16584,0.49809 0.75498,1.35906 1.30919,1.91326 0.55421,0.55421 1.00765,1.96812 1.00765,3.14201 0,1.1739 0.40179,2.32185 0.89286,2.55102 0.71429,0.33333 0.71429,0.5 0,0.83333 -0.49107,0.22917 -0.89286,1.36952 -0.89286,2.53411 0,1.34109 -0.65472,2.72422 -1.78571,3.77239 -2.84984,2.64114 -2.36664,3.99112 1.42857,3.99112 1.76786,0 3.21429,-0.32142 3.21429,-0.71428 0,-0.39286 0.33673,-0.71429 0.7483,-0.71429 0.93982,0 7.82313,-6.83093 7.82313,-7.7636 0,-0.37883 0.32728,-0.79787 0.7273,-0.93121 0.40002,-0.13334 0.92693,-1.92799 1.17092,-3.9881 0.24399,-2.06011 0.72028,-3.74566 1.05841,-3.74566 0.33814,0 0.61479,-0.80357 0.61479,-1.78571 0,-0.98215 -0.28162,-1.78572 -0.62583,-1.78572 -0.34421,0 -0.76882,-1.72419 -0.94358,-3.83153 -0.27936,-3.36874 -0.68177,-4.18836 -3.33159,-6.78572 -1.65762,-1.6248 -3.48301,-2.95418 -4.05642,-2.95418 -0.57342,0 -1.04258,-0.32142 -1.04258,-0.71428 0,-0.39286 -0.45535,-0.71429 -1.0119,-0.71429 -0.55655,0 -1.14579,-0.40178 -1.30942,-0.89285 -0.42741,-1.28264 -22.78509,-1.28264 -23.21367,0 -0.16409,0.49107 -0.91441,0.89285 -1.66739,0.89285 -0.75297,0 -1.36904,0.32143 -1.36904,0.71429 0,0.39286 -0.335,0.71428 -0.74444,0.71428 -1.57141,0 -7.82699,6.25558 -7.82699,7.827 0,0.40944 -0.32143,0.74443 -0.71429,0.74443 -0.39286,0 -0.71428,0.64286 -0.71428,1.42857 0,0.78572 -0.31763,1.42858 -0.70585,1.42858 -0.38821,0 -0.91144,1.28571 -1.16272,2.85714 -0.25128,1.57143 -0.73722,2.85714 -1.07987,2.85714 -0.34265,0 -0.62299,1.44643 -0.62299,3.21429 0,1.76785 -0.32143,3.21428 -0.71429,3.21428 -0.39286,0 -0.71428,1.125 -0.71428,2.5 0,1.375 0.32142,2.5 0.71428,2.5 0.39286,0 0.71429,1.125 0.71429,2.5 0,1.375 0.28493,2.5 0.63318,2.5 0.34825,0 0.84766,1.43025 1.1098,3.17833 0.3396,2.26459 0.87629,3.30519 1.86682,3.61957 0.76461,0.24267 1.3902,0.741 1.3902,1.10738 0,0.36638 2.57143,0.66615 5.71428,0.66615 3.33334,0 5.71429,-0.29762 5.71429,-0.71428 z"
       id="path3658"
       inkscape:connector-curvature="0" />
    <path
       style="fill:#ffffff"
       d="m 109.41878,528.46121 c 0,-0.39286 -0.47847,-0.71429 -1.06326,-0.71429 -1.55293,0 -3.93674,-2.25873 -3.93674,-3.73017 0,-0.69841 -0.32143,-1.26983 -0.71429,-1.26983 -0.39285,0 -0.71428,-1.125 -0.71428,-2.5 0,-1.375 0.32143,-2.5 0.71428,-2.5 0.39286,0 0.71429,-0.48214 0.71429,-1.07143 0,-0.58928 0.48214,-1.07143 1.07143,-1.07143 0.58928,0 1.07143,-0.32142 1.07143,-0.71428 0,-0.39286 1.125,-0.71429 2.5,-0.71429 1.375,0 2.5,0.32143 2.5,0.71429 0,0.39286 0.62829,0.71428 1.3962,0.71428 1.64878,0 2.58566,3.62263 1.94997,7.53992 -0.3473,2.14014 -0.20694,2.46008 1.07924,2.46008 1.41829,0 4.14601,-2.4216 4.14601,-3.68072 0,-0.33274 0.32143,-0.60499 0.71429,-0.60499 1.4031,0 0.67906,2.28797 -1.37363,4.34066 -1.40293,1.40293 -2.80894,2.08791 -4.28571,2.08791 -1.20879,0 -2.1978,0.32143 -2.1978,0.71429 0,0.39285 -0.80357,0.71428 -1.78572,0.71428 -0.98214,0 -1.78571,-0.32143 -1.78571,-0.71428 z"
       id="path3660"
       inkscape:connector-curvature="0" />
    <path
       style="fill:#ffffff"
       d="m 552.27592,563.46121 c 0,-0.39286 -1.44643,-0.71429 -3.21428,-0.71429 -1.76786,0 -3.21429,-0.27991 -3.21429,-0.62202 0,-0.34211 -1.92857,-0.84022 -4.28571,-1.1069 -2.35715,-0.26668 -4.28572,-0.79034 -4.28572,-1.16369 0,-0.37335 -0.80357,-0.67882 -1.78571,-0.67882 -0.98215,0 -1.78572,-0.32143 -1.78572,-0.71428 0,-0.39286 -0.64285,-0.71429 -1.42857,-0.71429 -0.78571,0 -1.42857,-0.30686 -1.42857,-0.68192 0,-0.37505 -1.125,-0.89297 -2.5,-1.15092 -1.375,-0.25795 -2.5,-0.75466 -2.5,-1.1038 0,-0.34913 -0.48214,-0.63479 -1.07143,-0.63479 -0.58928,0 -1.07143,-0.32143 -1.07143,-0.71428 0,-0.39286 -0.60847,-0.71429 -1.35215,-0.71429 -0.74368,0 -1.53716,-0.48214 -1.7633,-1.07143 -0.22613,-0.58928 -0.99313,-1.07143 -1.70445,-1.07143 -0.71131,0 -1.75664,-0.64285 -2.32295,-1.42857 -0.56632,-0.78571 -1.2937,-1.42857 -1.61641,-1.42857 -0.55547,0 -1.43442,-0.63382 -3.71451,-2.67857 -0.54758,-0.49107 -1.26904,-0.89286 -1.60323,-0.89286 -0.3342,0 -1.07097,-0.64285 -1.63728,-1.42857 -1.07822,-1.49595 -2.85715,-1.94068 -2.85715,-0.71428 0,0.39285 -0.96428,0.71428 -2.14285,0.71428 -1.17857,0 -2.14286,0.32143 -2.14286,0.71429 0,0.39285 -1.125,0.71428 -2.5,0.71428 -1.375,0 -2.5,0.30547 -2.5,0.67882 0,0.37335 -1.92857,0.89701 -4.28571,1.16369 -2.35715,0.26668 -4.28572,0.76478 -4.28572,1.1069 0,0.34211 -1.44643,0.62202 -3.21428,0.62202 -1.76786,0 -3.21429,0.32143 -3.21429,0.71429 0,0.39285 -1.60714,0.71428 -3.57143,0.71428 -1.96428,0 -3.57143,0.32143 -3.57143,0.71429 0,0.44733 -4.40476,0.71428 -11.78571,0.71428 -7.38095,0 -11.78572,-0.26695 -11.78572,-0.71428 0,-0.39286 -1.125,-0.71429 -2.5,-0.71429 -1.375,0 -2.5,-0.32143 -2.5,-0.71428 0,-0.39286 -0.96428,-0.71429 -2.14285,-0.71429 -1.17857,0 -2.14286,-0.28658 -2.14286,-0.63685 0,-0.35027 -0.80357,-0.83854 -1.78571,-1.08504 -0.98215,-0.2465 -1.78572,-0.76349 -1.78572,-1.14886 0,-0.38537 -0.34439,-0.70068 -0.7653,-0.70068 -0.80316,0 -2.80613,-1.74804 -2.80613,-2.44898 0,-0.22449 0.48215,-0.40816 1.07143,-0.40816 0.58929,0 1.07143,0.32143 1.07143,0.71429 0,0.39285 0.96429,0.71428 2.14286,0.71428 1.17857,0 2.14285,0.32143 2.14285,0.71429 0,0.39285 1.09822,0.71428 2.44048,0.71428 1.34226,0 2.57446,0.40179 2.73822,0.89286 0.22607,0.67793 4.05177,0.89286 15.89293,0.89286 11.84125,0 15.6668,-0.21492 15.89272,-0.89286 0.16366,-0.49107 1.07435,-0.89286 2.02375,-0.89286 0.9494,0 1.72619,-0.32143 1.72619,-0.71428 0,-0.39286 0.96429,-0.71429 2.14286,-0.71429 1.17857,0 2.14285,0.32143 2.14285,0.71429 0,0.39285 -0.32142,0.71428 -0.71428,0.71428 -0.39286,0 -0.71429,0.32143 -0.71429,0.71429 0,0.39286 0.48215,0.71428 1.07143,0.71428 0.58929,0 1.07143,-0.32142 1.07143,-0.71428 0,-0.39286 1.125,-0.71429 2.5,-0.71429 1.375,0 2.5,-0.32143 2.5,-0.71428 0,-0.39286 0.96429,-0.71429 2.14286,-0.71429 1.17857,0 2.14285,-0.27962 2.14285,-0.62139 0,-0.34177 1.46231,-0.78621 3.24958,-0.98766 1.78726,-0.20146 3.43267,-0.54938 3.65645,-0.77317 0.49885,-0.49885 -1.53266,-2.61778 -2.50977,-2.61778 -0.38818,0 -0.89328,-0.40178 -1.12245,-0.89286 -0.33333,-0.71428 -0.5,-0.71428 -0.83333,0 -0.66461,1.42418 -1.5345,1.03959 -2.0195,-0.89285 -0.28938,-1.15297 -0.94957,-1.78572 -1.86315,-1.78572 -0.77823,0 -1.41497,-0.32143 -1.41497,-0.71428 0,-0.39286 -0.34438,-0.71429 -0.76531,-0.71429 -0.42091,0 -1.24745,-0.48214 -1.83673,-1.07143 -0.58929,-0.58928 -1.69132,-1.07143 -2.44898,-1.07143 -0.75765,0 -1.37755,-0.32142 -1.37755,-0.71428 0,-0.39286 -0.48214,-0.71429 -1.07143,-0.71429 -0.58928,0 -1.07143,-0.32143 -1.07143,-0.71428 0,-0.39286 -0.64285,-0.71429 -1.42857,-0.71429 -0.78571,0 -1.42857,-0.30686 -1.42857,-0.68192 0,-0.37505 -1.125,-0.89297 -2.5,-1.15092 -1.375,-0.25795 -2.5,-0.75466 -2.5,-1.1038 0,-0.34913 -0.80357,-0.63479 -1.78571,-0.63479 -0.98215,0 -1.78572,-0.32143 -1.78572,-0.71428 0,-0.39286 -0.48214,-0.71429 -1.07143,-0.71429 -0.58928,0 -1.07143,-0.30173 -1.07143,-0.67052 0,-0.36878 -1.44642,-0.88742 -3.21428,-1.15253 -1.76786,-0.26511 -3.21429,-0.76694 -3.21429,-1.11519 0,-0.34826 -0.80357,-0.63319 -1.78571,-0.63319 -0.98214,0 -1.78572,-0.32143 -1.78572,-0.71428 0,-0.39286 -0.64285,-0.71429 -1.42857,-0.71429 -0.78571,0 -1.42857,-0.30547 -1.42857,-0.67882 0,-0.37334 -1.92857,-0.89701 -4.28571,-1.16369 -2.35715,-0.26668 -4.28572,-0.76478 -4.28572,-1.10689 0,-0.34212 -0.80357,-0.62203 -1.78571,-0.62203 -0.98214,0 -1.78572,-0.32143 -1.78572,-0.71428 0,-0.39286 -1.41964,-0.71429 -3.15476,-0.71429 -1.88896,0 -3.27412,-0.35824 -3.45223,-0.89286 -0.43105,-1.29375 -34.20911,-1.29375 -34.64192,0 -0.16429,0.49108 -1.07549,0.89286 -2.02489,0.89286 -0.94941,0 -1.7262,0.32143 -1.7262,0.71429 0,0.39285 -0.61607,0.71428 -1.36904,0.71428 -0.75298,0 -1.47619,0.31415 -1.60715,0.69811 -0.13095,0.38396 -1.36166,0.92207 -2.7349,1.19579 -2.3348,0.46539 -2.41922,0.42009 -1.30102,-0.69811 0.65768,-0.65768 1.70089,-1.19579 2.31824,-1.19579 0.61734,0 1.12245,-0.32143 1.12245,-0.71428 0,-0.39286 0.48214,-0.71429 1.07142,-0.71429 0.58929,0 1.07143,-0.2983 1.07143,-0.66289 0,-0.36459 1.76786,-0.88376 3.92857,-1.15373 2.16072,-0.26996 3.92858,-0.77523 3.92858,-1.12282 0,-0.34759 6.10714,-0.63199 13.57142,-0.63199 7.46429,0 13.57143,0.27522 13.57143,0.61159 0,0.33637 2.65179,0.83144 5.89286,1.10014 3.24107,0.26871 6,0.79707 6.13095,1.17413 0.13096,0.37706 1.33631,0.68557 2.67857,0.68557 1.34227,0 2.44048,0.32143 2.44048,0.71429 0,0.39285 0.96429,0.71428 2.14286,0.71428 1.17857,0 2.14285,0.27963 2.14285,0.62139 0,0.34177 1.51625,0.7923 3.36944,1.00118 1.8532,0.20888 3.48712,0.73283 3.63096,1.16432 0.14383,0.4315 1.0383,0.78454 1.9877,0.78454 0.9494,0 1.72619,0.32143 1.72619,0.71429 0,0.39285 0.96429,0.71428 2.14286,0.71428 1.17857,0 2.14285,0.31763 2.14285,0.70585 0,0.38821 1.28572,0.91144 2.85715,1.16272 1.57143,0.25128 2.85714,0.73722 2.85714,1.07987 0,0.34264 0.64286,0.62299 1.42857,0.62299 0.78572,0 1.42857,0.32143 1.42857,0.71429 0,0.39285 0.48215,0.71428 1.07143,0.71428 0.58929,0 1.07143,0.28566 1.07143,0.63479 0,0.34914 1.125,0.84585 2.5,1.1038 1.375,0.25795 2.5,0.77587 2.5,1.15092 0,0.37506 0.64286,0.68192 1.42857,0.68192 0.78572,0 1.42857,0.32143 1.42857,0.71429 0,0.39285 0.48215,0.71428 1.07143,0.71428 0.58929,0 1.07143,0.28566 1.07143,0.63479 0,0.34914 1.125,0.84585 2.5,1.1038 1.375,0.25795 2.5,0.77587 2.5,1.15092 0,0.37506 0.64286,0.68192 1.42857,0.68192 0.78572,0 1.42857,0.32143 1.42857,0.71429 0,0.39285 0.80357,0.71428 1.78572,0.71428 1.11111,0 1.78571,0.40476 1.78571,1.07143 0,0.58929 0.6212,1.07143 1.38044,1.07143 0.75924,0 1.58447,0.64286 1.83385,1.42857 0.31762,1.00074 1.08073,1.42857 2.54813,1.42857 1.1521,0 2.09472,-0.32143 2.09472,-0.71428 0,-0.39286 1.09822,-0.71429 2.44048,-0.71429 1.34226,0 2.54762,-0.30542 2.67857,-0.67872 0.13095,-0.37329 3.21131,-0.90155 6.84524,-1.17391 3.63393,-0.27236 6.60714,-0.77051 6.60714,-1.107 0,-0.33649 3.05357,-0.6118 6.78572,-0.6118 4.04762,0 6.78571,-0.28822 6.78571,-0.71428 0,-0.45503 5.83334,-0.71429 16.07143,-0.71429 10.23809,0 16.07143,0.25926 16.07143,0.71429 0,0.43478 3.21428,0.71428 8.21428,0.71428 4.51786,0 8.21429,-0.18367 8.21429,-0.40816 0,-0.68698 -1.9956,-2.44898 -2.77366,-2.44898 -0.89764,0 -4.3692,-3.39278 -4.3692,-4.27005 0,-0.34852 -0.64285,-0.83772 -1.42857,-1.08709 -0.78571,-0.24938 -1.42857,-1.04783 -1.42857,-1.77433 0,-0.7265 -0.34216,-1.43497 -0.76036,-1.57437 -0.4182,-0.1394 -0.94267,-1.61261 -1.16548,-3.27381 -0.22282,-1.66119 -0.68422,-3.02035 -1.02535,-3.02035 -0.34113,0 -0.62024,-2.73214 -0.62024,-6.07143 0,-3.33928 0.28494,-6.07143 0.63319,-6.07143 0.34825,0 0.85008,-1.44643 1.11519,-3.21428 0.26511,-1.76786 0.76914,-3.21429 1.12006,-3.21429 0.80968,0 4.27442,-3.43578 4.27442,-4.23869 0,-0.33128 1.125,-0.81337 2.5,-1.07133 1.375,-0.25795 2.5,-0.77586 2.5,-1.15092 0,-0.37505 1.125,-0.68192 2.5,-0.68192 1.375,0 2.5,-0.32142 2.5,-0.71428 0,-0.44092 3.69048,-0.71429 9.64286,-0.71429 5.95237,0 9.64285,0.27337 9.64285,0.71429 0,0.39286 0.80357,0.71428 1.78572,0.71428 0.98214,0 1.78571,0.30687 1.78571,0.68192 0,0.37506 1.125,0.89297 2.5,1.15092 1.375,0.25796 2.5,0.75466 2.5,1.1038 0,0.34914 0.33604,0.63479 0.74675,0.63479 0.41072,0 1.52024,0.72322 2.46562,1.60715 0.94536,0.88392 2.13611,1.99353 2.6461,2.46579 1.65988,1.53708 2.71296,2.99427 2.71296,3.75406 0,0.40944 0.32143,0.74443 0.71429,0.74443 0.39285,0 0.71428,0.64286 0.71428,1.42857 0,0.78572 0.30687,1.42857 0.68192,1.42857 0.37505,0 0.90653,1.1973 1.18106,2.66066 0.64414,3.43358 3.13702,6.144 3.13702,3.41077 0,-0.58928 0.28494,-1.07143 0.63319,-1.07143 0.34825,0 0.84054,-1.38278 1.09398,-3.07286 0.29101,-1.94058 1.01114,-3.45396 1.95434,-4.10714 0.82144,-0.56885 1.91333,-1.43607 2.42642,-1.92714 0.51309,-0.49107 1.27728,-0.89286 1.69819,-0.89286 0.42092,0 0.76531,-0.32142 0.76531,-0.71428 0,-0.39286 0.64286,-0.71429 1.42857,-0.71429 0.78572,0 1.42857,-0.32143 1.42857,-0.71428 0,-0.40817 2.14286,-0.71429 5,-0.71429 2.85715,0 5,0.30612 5,0.71429 0,0.39285 0.80357,0.71428 1.78572,0.71428 0.98214,0 1.78571,0.32143 1.78571,0.71429 0,0.39286 0.33499,0.71428 0.74444,0.71428 1.4566,0 6.39842,4.71434 6.39842,6.1039 0,0.57143 0.32143,1.03896 0.71428,1.03896 0.39286,0 0.71429,1.125 0.71429,2.5 0,1.375 0.32143,2.5 0.71429,2.5 0.42327,0 0.71428,2.61905 0.71428,6.42857 0,3.80953 -0.29101,6.42857 -0.71428,6.42857 -0.39286,0 -0.71429,0.80358 -0.71429,1.78572 0,0.98214 -0.28659,1.78571 -0.63685,1.78571 -0.35027,0 -0.83854,0.80357 -1.08504,1.78572 -0.2465,0.98214 -0.76349,1.78571 -1.14886,1.78571 -0.38537,0 -0.70068,0.6212 -0.70068,1.38044 0,0.75924 -0.64286,1.58447 -1.42857,1.83385 -0.78571,0.24937 -1.42857,0.75318 -1.42857,1.11956 0,0.36638 -0.36409,0.66615 -0.80907,0.66615 -0.445,0 -1.39103,0.671 -2.1023,1.4911 -0.74517,0.85919 -2.52125,1.65581 -4.19093,1.87977 -1.59374,0.21376 -2.8977,0.66776 -2.8977,1.00889 0,0.34113 -1.125,0.62024 -2.5,0.62024 -1.375,0 -2.5,0.32143 -2.5,0.71429 0,0.39285 -1.60714,0.71428 -3.57143,0.71428 -1.96429,0 -3.57143,-0.32143 -3.57143,-0.71428 0,-0.39286 -1.76786,-0.71429 -3.92857,-0.71429 -2.16071,0 -3.92857,-0.32143 -3.92857,-0.71428 0,-0.39286 -1.46842,-0.71429 -3.26317,-0.71429 -2.935,0 -3.57287,0.32324 -6.34288,3.21429 -1.69385,1.76785 -3.57877,3.21428 -4.18871,3.21428 -0.60993,0 -1.31301,0.64286 -1.56238,1.42857 -0.24938,0.78572 -1.05165,1.42857 -1.78283,1.42857 -0.73118,0 -1.81156,0.48215 -2.40085,1.07143 -0.58928,0.58929 -1.41582,1.07143 -1.83673,1.07143 -0.42092,0 -0.76531,0.32143 -0.76531,0.71429 0,0.39285 -0.64286,0.71428 -1.42857,0.71428 -0.78571,0 -1.42857,0.28035 -1.42857,0.623 0,0.34264 -1.28572,0.82858 -2.85714,1.07987 -1.57143,0.25128 -2.85715,0.7745 -2.85715,1.16272 0,0.38821 -0.64285,0.70584 -1.42857,0.70584 -0.78571,0 -1.42857,0.32143 -1.42857,0.71429 0,0.39285 -1.125,0.71428 -2.5,0.71428 -1.375,0 -2.5,0.30547 -2.5,0.67882 0,0.37335 -1.92857,0.89701 -4.28571,1.16369 -2.35715,0.26668 -4.28572,0.76479 -4.28572,1.1069 0,0.34211 -1.76786,0.62202 -3.92857,0.62202 -2.16071,0 -3.92857,0.32143 -3.92857,0.71429 0,0.45113 -5,0.71428 -13.57143,0.71428 -8.57143,0 -13.57143,-0.26315 -13.57143,-0.71428 z m 29.88095,-3.62096 c 0.13096,-0.36561 1.33632,-0.66476 2.67857,-0.66476 1.34227,0 2.44048,-0.32143 2.44048,-0.71428 0,-0.39286 1.125,-0.71429 2.5,-0.71429 1.375,0 2.5,-0.29127 2.5,-0.64726 0,-0.35599 1.60714,-0.86829 3.57143,-1.13845 1.96429,-0.27016 3.57143,-0.78247 3.57143,-1.13846 0,-0.35599 0.96428,-0.64726 2.14286,-0.64726 1.17857,0 2.14285,-0.32143 2.14285,-0.71428 0,-0.39286 0.48215,-0.71429 1.07143,-0.71429 0.58929,0 1.07143,-0.28566 1.07143,-0.63479 0,-0.34914 1.125,-0.84584 2.5,-1.1038 1.375,-0.25795 2.5,-0.77586 2.5,-1.15092 0,-0.37505 0.64286,-0.68192 1.42857,-0.68192 0.78572,0 1.42857,-0.32143 1.42857,-0.71428 0,-0.39286 0.48215,-0.71429 1.07143,-0.71429 0.58929,0 1.07143,-0.29977 1.07143,-0.66615 0,-0.36638 0.69029,-0.88524 1.53396,-1.15301 1.75182,-0.55601 6.32318,-4.90397 6.32318,-6.01417 0,-0.43224 -1.92396,-0.7381 -4.64285,-0.7381 -2.61905,0 -4.64286,-0.31135 -4.64286,-0.71428 0,-0.41199 -2.24207,-0.71429 -5.29762,-0.71429 -3.60318,0 -5.39281,-0.28558 -5.59522,-0.89286 -0.23262,-0.69786 -7.83728,-0.89285 -34.82142,-0.89285 -26.98411,0 -34.5888,0.19499 -34.82143,0.89285 -0.1934,0.58015 -1.77781,0.89286 -4.52383,0.89286 -2.34127,0 -4.2262,0.31858 -4.2262,0.71429 0,0.39285 -1.76785,0.71428 -3.92857,0.71428 -2.16071,0 -3.92857,0.32143 -3.92857,0.71429 0,0.39286 -1.125,0.71428 -2.5,0.71428 -1.74603,0 -2.5,0.32313 -2.5,1.07143 0,0.58929 0.6212,1.07143 1.38044,1.07143 0.75924,0 1.58447,0.64286 1.83385,1.42857 0.24938,0.78572 1.05165,1.42857 1.78283,1.42857 0.73117,0 1.81155,0.48215 2.40084,1.07143 0.58928,0.58929 1.41582,1.07143 1.83673,1.07143 0.42093,0 0.76531,0.32143 0.76531,0.71429 0,0.39285 0.60847,0.71428 1.35215,0.71428 0.74369,0 1.53717,0.48215 1.7633,1.07143 0.22613,0.58929 1.06409,1.07143 1.86214,1.07143 0.79804,0 1.45098,0.32143 1.45098,0.71429 0,0.39285 0.80357,0.71428 1.78572,0.71428 0.98214,0 1.78571,0.32143 1.78571,0.71429 0,0.39285 0.64286,0.71428 1.42857,0.71428 0.78572,0 1.42857,0.31763 1.42857,0.70585 0,0.38821 1.28572,0.91144 2.85715,1.16272 1.57143,0.25128 2.85714,0.73722 2.85714,1.07987 0,0.34264 0.80357,0.62299 1.78571,0.62299 0.98215,0 1.78572,0.32143 1.78572,0.71429 0,0.39285 1.44643,0.71428 3.21428,0.71428 1.76786,0 3.21429,0.30609 3.21429,0.6802 0,0.37412 2.00893,0.81556 4.46429,0.981 6.98029,0.47031 26.58047,-0.2572 26.84523,-0.99644 z m 67.26191,-19.95047 c 0,-0.39286 1.125,-0.71429 2.5,-0.71429 1.375,0 2.5,-0.32143 2.5,-0.71428 0,-0.39286 0.64286,-0.71429 1.42857,-0.71429 0.78571,0 1.42857,-0.30686 1.42857,-0.68192 0,-0.37505 1.07277,-0.88317 2.38392,-1.12914 1.31115,-0.24598 2.83793,-1.1035 3.39285,-1.9056 0.55492,-0.80211 1.41073,-1.87818 1.9018,-2.39127 0.49107,-0.51309 0.89286,-1.27727 0.89286,-1.69819 0,-0.42092 0.32143,-0.76531 0.71429,-0.76531 0.39285,0 0.71428,-0.61607 0.71428,-1.36905 0,-0.75297 0.40179,-1.5032 0.89286,-1.66717 1.21629,-0.40613 1.16536,-14.96818 -0.0538,-15.37456 -0.46148,-0.15383 -0.83907,-0.89577 -0.83907,-1.64874 0,-0.75298 -0.32143,-1.36905 -0.71428,-1.36905 -0.39286,0 -0.71429,-0.48214 -0.71429,-1.07143 0,-0.58928 -0.29977,-1.07143 -0.66615,-1.07143 -0.36639,0 -0.87438,-0.65606 -1.12888,-1.45791 -0.27468,-0.86544 -1.31021,-1.62742 -2.54813,-1.875 -1.14698,-0.2294 -2.08541,-0.69834 -2.08541,-1.04209 0,-0.34375 -2.41072,-0.625 -5.35714,-0.625 -2.94643,0 -5.35715,0.28125 -5.35715,0.625 0,0.34375 -0.9725,0.8195 -2.16112,1.05723 -2.14217,0.42843 -5.69602,3.33237 -5.69602,4.65435 0,0.37798 -0.37579,0.81249 -0.83507,0.96559 -0.51893,0.17298 -0.96175,2.6969 -1.16967,6.66667 -0.26526,5.06453 -0.61027,6.62769 -1.66493,7.54352 -0.89663,0.7786 -1.33033,2.11757 -1.33033,4.10714 0,1.62356 -0.28494,2.95193 -0.63319,2.95193 -0.34825,0 -0.85008,1.44643 -1.11519,3.21429 -0.26511,1.76786 -0.78374,3.21428 -1.15253,3.21428 -0.36878,0 -0.67052,0.48215 -0.67052,1.07143 0,0.58929 -0.32143,1.07143 -0.71428,1.07143 -0.39286,0 -0.71429,0.32143 -0.71429,0.71429 0,0.39285 0.80357,0.71428 1.78571,0.71428 0.98215,0 1.78572,0.32143 1.78572,0.71429 0,0.43084 2.97619,0.71428 7.5,0.71428 4.52381,0 7.5,-0.28344 7.5,-0.71428 z m -21.43674,-3.37303 c 0.79021,-0.6766 1.43674,-1.8016 1.43674,-2.5 0,-0.69841 0.32143,-1.26983 0.71428,-1.26983 0.39286,0 0.71429,-0.80357 0.71429,-1.78571 0,-0.98215 0.32143,-1.78572 0.71429,-1.78572 0.39285,0 0.71428,-1.125 0.71428,-2.5 0,-1.375 0.32143,-2.5 0.71429,-2.5 0.39285,0 0.71428,-1.125 0.71428,-2.5 0,-1.375 -0.32143,-2.5 -0.71428,-2.5 -0.39286,0 -0.71429,-1.44643 -0.71429,-3.21428 0,-1.76786 -0.32143,-3.21429 -0.71428,-3.21429 -0.39286,0 -0.71429,-0.80357 -0.71429,-1.78571 0,-0.98215 -0.30686,-1.78572 -0.68192,-1.78572 -0.37505,0 -0.89297,-1.125 -1.15092,-2.5 -0.25795,-1.375 -0.75466,-2.5 -1.1038,-2.5 -0.34913,0 -0.63479,-0.33604 -0.63479,-0.74675 0,-0.41072 -0.72321,-1.52024 -1.60714,-2.46561 -0.88393,-0.94537 -1.99354,-2.13612 -2.46579,-2.6461 -1.53708,-1.65989 -2.99428,-2.71297 -3.75406,-2.71297 -0.40944,0 -0.74444,-0.32142 -0.74444,-0.71428 0,-0.39286 -0.61607,-0.71429 -1.36905,-0.71429 -0.75297,0 -1.5033,-0.40178 -1.66738,-0.89285 -0.42858,-1.28264 -22.78626,-1.28264 -23.21367,0 -0.16363,0.49107 -0.91359,0.89285 -1.66656,0.89285 -0.75298,0 -1.36905,0.32143 -1.36905,0.71429 0,0.39286 -0.33499,0.71428 -0.74444,0.71428 -0.75505,0 -2.1943,1.03643 -3.75405,2.70336 -2.22,2.37254 -2.64437,2.96217 -2.64437,3.67419 0,0.42092 -0.32143,0.76531 -0.71428,0.76531 -0.39286,0 -0.71429,1.44643 -0.71429,3.21429 0,1.76785 -0.32143,3.21428 -0.71429,3.21428 -0.39285,0 -0.71428,0.80357 -0.71428,1.78572 0,0.98214 0.32143,1.78571 0.71428,1.78571 0.39286,0 0.71429,1.125 0.71429,2.5 0,1.375 0.32143,2.5 0.71429,2.5 0.39285,0 0.71428,0.64286 0.71428,1.42857 0,0.78572 0.32143,1.42857 0.71429,1.42857 0.39285,0 0.71428,0.46754 0.71428,1.03896 0,1.12788 3.23995,4.67533 4.27005,4.67533 0.34852,0 0.83772,0.64286 1.0871,1.42857 0.24937,0.78572 1.0746,1.42857 1.83385,1.42857 0.75923,0 1.38043,0.32143 1.38043,0.71429 0,0.39286 1.44643,0.71428 3.21429,0.71428 1.76785,0 3.21428,-0.32142 3.21428,-0.71428 0,-0.39286 -0.32143,-0.71429 -0.71428,-0.71429 -0.39286,0 -0.71429,-0.62119 -0.71429,-1.38043 0,-0.75925 -0.64286,-1.58448 -1.42857,-1.83385 -1.05962,-0.33631 -1.45436,-1.13277 -1.52841,-3.08385 -0.22735,-5.98964 0.23217,-8.18485 2.10495,-10.05594 1.73345,-1.73187 2.31111,-1.86021 8.37291,-1.86021 7.23685,0 8.36609,0.55086 9.2345,4.50475 0.27554,1.25453 0.79688,2.28096 1.15852,2.28096 0.36164,0 0.65753,1.76786 0.65753,3.92857 0,2.16072 -0.32143,3.92857 -0.71429,3.92857 -0.39285,0 -0.71428,0.46754 -0.71428,1.03896 0,1.34602 -3.32932,4.67533 -4.67532,4.67533 -0.57143,0 -1.03897,0.32143 -1.03897,0.71429 0,0.39285 -0.96428,0.71428 -2.14285,0.71428 -1.17858,0 -2.14286,0.32143 -2.14286,0.71429 0,0.39285 -0.48214,0.71428 -1.07143,0.71428 -1.6508,0 -1.26808,1.20926 0.53571,1.69266 0.88393,0.23688 3.9375,0.43508 6.78572,0.44045 2.96968,0.006 5.17857,0.31442 5.17857,0.72404 0,0.4126 2.25919,0.71428 5.34898,0.71428 4.02908,0 5.7035,-0.30355 6.78571,-1.23017 z"
       id="path3662"
       inkscape:connector-curvature="0" />
    <path
       style="fill:#ffffff"
       d="m 647.27592,528.46121 c 0,-0.39286 -0.98724,-0.71429 -2.19388,-0.71429 -1.20663,0 -2.6419,-0.40178 -3.18949,-0.89286 -0.54759,-0.49107 -1.48892,-1.30731 -2.09184,-1.81387 -0.60292,-0.50656 -1.09622,-1.5852 -1.09622,-2.39697 0,-1.32114 0.21737,-1.24326 2.0723,0.74245 1.9711,2.11007 5.07056,3.02948 5.07056,1.50411 0,-0.39286 -0.32143,-0.71429 -0.71429,-0.71429 -0.39285,0 -0.71428,-1.44643 -0.71428,-3.21428 0,-1.76786 0.32143,-3.21429 0.71428,-3.21429 0.39286,0 0.71429,-0.48214 0.71429,-1.07143 0,-0.59524 0.63492,-1.07143 1.42857,-1.07143 0.78572,0 1.42857,-0.32142 1.42857,-0.71428 0,-0.39286 1.125,-0.71429 2.5,-0.71429 1.375,0 2.5,0.32143 2.5,0.71429 0,0.39286 0.48215,0.71428 1.07143,0.71428 0.58929,0 1.07143,0.48215 1.07143,1.07143 0,0.58929 0.32143,1.07143 0.71429,1.07143 0.39285,0 0.71428,1.125 0.71428,2.5 0,1.375 -0.32143,2.5 -0.71428,2.5 -0.39286,0 -0.71429,0.48214 -0.71429,1.07143 0,0.58929 -0.64286,1.71429 -1.42857,2.5 -0.78572,0.78571 -1.91072,1.42857 -2.5,1.42857 -0.58929,0 -1.07143,0.32143 -1.07143,0.71429 0,0.39285 -0.80357,0.71428 -1.78571,0.71428 -0.98215,0 -1.78572,-0.32143 -1.78572,-0.71428 z"
       id="path3664"
       inkscape:connector-curvature="0" />
    <path
       style="fill:#ffffff"
       d="m 492.27592,522.11007 c 0,-0.35027 -0.80357,-0.83854 -1.78571,-1.08504 -1.63305,-0.40987 -1.78572,-0.78289 -1.78572,-4.36315 0,-2.15323 0.30687,-3.91496 0.68192,-3.91496 0.37506,0 0.89092,-1.11404 1.14636,-2.47565 0.28779,-1.53406 0.97927,-2.63905 1.81808,-2.90527 0.7445,-0.2363 1.35364,-0.7294 1.35364,-1.09578 0,-0.36639 0.48215,-0.66616 1.07143,-0.66616 0.58929,0 1.07143,-0.32142 1.07143,-0.71428 0,-0.39286 0.64286,-0.71429 1.42857,-0.71429 0.78572,0 1.42857,-0.32143 1.42857,-0.71428 0,-0.39286 0.80357,-0.71429 1.78572,-0.71429 0.98214,0 1.78571,0.32143 1.78571,0.71429 0,0.39285 0.80357,0.71428 1.78572,0.71428 0.98214,0 1.78571,0.32143 1.78571,0.71429 0,0.39286 0.50687,0.71428 1.12637,0.71428 1.26853,0 5.3022,3.76197 5.3022,4.94506 0,1.26193 -0.80027,0.89113 -2.96459,-1.37363 -1.12631,-1.17857 -2.52718,-2.14285 -3.11305,-2.14285 -0.58587,0 -1.06522,-0.32143 -1.06522,-0.71429 0,-0.39286 -1.76785,-0.71429 -3.92857,-0.71429 -2.16071,0 -3.92857,0.32143 -3.92857,0.71429 0,0.39286 -0.43296,0.71429 -0.96213,0.71429 -0.9517,0 -4.03787,2.32226 -4.03787,3.03839 0,0.20396 1.44643,0.58773 3.21429,0.85284 2.53848,0.38067 3.21428,0.77317 3.21428,1.86682 0,0.76164 0.32143,1.3848 0.71429,1.3848 0.39286,0 0.71428,1.45447 0.71428,3.23215 0,3.01984 -0.14075,3.26029 -2.14285,3.66071 -1.17857,0.23571 -2.14286,0.70982 -2.14286,1.05357 0,0.34375 -0.80357,0.625 -1.78571,0.625 -0.98215,0 -1.78572,-0.28658 -1.78572,-0.63685 z"
       id="path3666"
       inkscape:connector-curvature="0" />
    <path
       style="fill:#ffffff"
       d="m 513.70449,517.74692 c 0,-1.96428 0.32143,-3.57143 0.71429,-3.57143 0.39286,0 0.71428,1.60715 0.71428,3.57143 0,1.96429 -0.32142,3.57143 -0.71428,3.57143 -0.39286,0 -0.71429,-1.60714 -0.71429,-3.57143 z"
       id="path3668"
       inkscape:connector-curvature="0" />
    <path
       style="fill:#ffffff"
       d="m 508.70449,529.88978 c 0,-0.39286 0.32143,-0.71429 0.71429,-0.71429 0.39286,0 0.71428,0.32143 0.71428,0.71429 0,0.39286 -0.32142,0.71428 -0.71428,0.71428 -0.39286,0 -0.71429,-0.32142 -0.71429,-0.71428 z"
       id="path3670"
       inkscape:connector-curvature="0" />
    <path
       style="fill:#ffffff"
       d="m 351.56164,549.88978 c 0,-0.39286 -0.50511,-0.71429 -1.12245,-0.71429 -1.92223,0 -3.16327,-1.92273 -3.16327,-4.90084 0,-2.23271 0.31335,-2.95949 1.42857,-3.31344 0.78572,-0.24938 1.42857,-0.75318 1.42857,-1.11957 0,-0.36638 1.44643,-0.66615 3.21429,-0.66615 1.76786,0 3.21429,0.32143 3.21429,0.71429 0,0.39286 0.48214,0.71428 1.07142,0.71428 0.77381,0 1.07143,0.79365 1.07143,2.85715 0,1.57143 -0.32143,2.85714 -0.71428,2.85714 -0.39286,0 -0.71429,0.64286 -0.71429,1.42857 0,0.79365 -0.47619,1.42857 -1.07143,1.42857 -0.58928,0 -1.07143,0.32143 -1.07143,0.71429 0,0.39286 -0.80357,0.71428 -1.78571,0.71428 -0.98214,0 -1.78571,-0.32142 -1.78571,-0.71428 z"
       id="path3672"
       inkscape:connector-curvature="0" />
    <path
       style="fill:#ffffff"
       d="m 405.13306,549.88978 c 0,-0.39286 -0.60267,-0.71429 -1.33928,-0.71429 -0.92857,0 -1.47619,-0.68452 -1.78572,-2.23214 -0.77798,-3.88993 -0.5365,-6.33929 0.625,-6.33929 0.58929,0 1.07143,-0.32142 1.07143,-0.71428 0,-1.21292 5.58745,-0.80891 7.1347,0.51588 2.43276,2.083 1.83609,8.76983 -0.78255,8.76983 -0.74368,0 -1.35215,0.32143 -1.35215,0.71429 0,0.39286 -0.80357,0.71428 -1.78571,0.71428 -0.98214,0 -1.78572,-0.32142 -1.78572,-0.71428 z"
       id="path3674"
       inkscape:connector-curvature="0" />
    <path
       style="fill:#ffffff"
       d="m 352.27592,563.46121 c 0,-0.39286 -1.125,-0.71429 -2.5,-0.71429 -1.375,0 -2.5,-0.28035 -2.5,-0.62299 0,-0.34265 -1.20861,-0.81626 -2.68579,-1.05247 -1.49658,-0.23932 -3.14775,-1.07041 -3.72911,-1.87701 -0.57383,-0.79614 -1.45451,-1.44753 -1.95707,-1.44753 -1.13067,0 -3.77089,-2.56693 -3.77089,-3.66622 0,-0.44499 -0.71262,-1.42712 -1.5836,-2.18252 -1.42563,-1.23645 -1.59115,-2.08203 -1.65928,-8.47664 -0.0581,-5.45352 0.14379,-7.10319 0.86932,-7.10319 0.51974,0 0.94499,-0.32435 0.94499,-0.72079 0,-1.19496 3.99815,-4.9935 5.25591,-4.9935 0.64496,0 1.17266,-0.32142 1.17266,-0.71428 0,-0.41667 2.38096,-0.71429 5.71429,-0.71429 3.33333,0 5.71429,0.29762 5.71429,0.71429 0,0.40759 -2.12886,0.71428 -4.95799,0.71428 -4.91598,0 -4.98558,0.0272 -8.21429,3.2102 -2.14508,2.11471 -3.2563,3.82097 -3.2563,5 0,0.98439 -0.32142,1.7898 -0.71428,1.7898 -0.39683,0 -0.71429,1.90477 -0.71429,4.28572 0,2.38095 0.31746,4.28571 0.71429,4.28571 0.39286,0 0.71428,0.48215 0.71428,1.07143 0,0.58929 0.28125,1.07143 0.625,1.07143 0.34375,0 0.81786,0.96429 1.05358,2.14286 0.30068,1.50344 0.84495,2.14285 1.82398,2.14285 0.76747,0 1.87755,0.48215 2.46683,1.07143 0.58929,0.58929 1.29776,1.07143 1.57438,1.07143 0.27663,0 1.1302,0.72322 1.89682,1.60714 1.31027,1.51075 1.94359,1.60715 10.55941,1.60715 8.61582,0 9.24915,-0.0964 10.55942,-1.60715 0.76662,-0.88392 1.6108,-1.60714 1.87594,-1.60714 0.52676,0 2.14061,-1.25392 3.49171,-2.71296 0.47226,-0.50999 1.58186,-1.70074 2.46579,-2.64611 0.88393,-0.94537 1.60714,-2.0281 1.60714,-2.40608 0,-0.37798 0.32729,-0.79633 0.72731,-0.92966 0.40002,-0.13334 0.92693,-1.92799 1.17092,-3.9881 0.24399,-2.06011 0.72028,-3.74566 1.05841,-3.74566 0.33814,0 0.61479,-1.60714 0.61479,-3.57143 0,-1.96428 -0.27665,-3.57143 -0.61479,-3.57143 -0.33813,0 -0.81442,-1.68554 -1.05841,-3.74566 -0.24399,-2.06011 -0.7709,-3.85475 -1.17092,-3.98809 -0.40002,-0.13334 -0.72731,-0.56492 -0.72731,-0.95907 0,-0.39415 -1.76785,-2.44262 -3.92857,-4.55215 -2.16071,-2.10953 -3.92857,-4.01026 -3.92857,-4.22384 0,-1.04271 2.66893,-0.20483 3.59232,1.12776 1.31546,1.89842 2.26816,2.85484 4.11959,4.13571 0.80211,0.55492 1.65963,2.0817 1.9056,3.39286 0.24597,1.31115 0.75409,2.38391 1.12914,2.38391 0.37506,0 0.68192,0.64286 0.68192,1.42857 0,0.92432 0.47619,1.42857 1.34908,1.42857 0.97628,0 1.47868,-0.69084 1.81808,-2.5 0.25795,-1.375 0.77587,-2.5 1.15092,-2.5 0.37506,0 0.68192,-0.4779 0.68192,-1.062 0,-0.5841 1.60293,-2.67339 3.56206,-4.64286 3.4181,-3.43614 5.00937,-4.35704 5.00937,-2.89903 0,0.603 -0.70711,1.37233 -4.42989,4.81968 -1.65989,1.53708 -2.71297,2.99428 -2.71297,3.75407 0,0.40943 -0.32142,0.74443 -0.71428,0.74443 -0.39286,0 -0.71429,0.61607 -0.71429,1.36905 0,0.75297 -0.39214,1.49976 -0.87143,1.65952 -0.61748,0.20583 -0.87142,2.65366 -0.87142,8.4 0,5.74635 0.25394,8.19417 0.87142,8.4 0.47929,0.15976 0.87143,0.90655 0.87143,1.65952 0,0.75298 0.32143,1.36905 0.71429,1.36905 0.39286,0 0.71428,0.335 0.71428,0.74444 0,0.40943 0.40179,1.22848 0.89286,1.8201 2.20164,2.65243 4.2232,4.57832 4.80576,4.57832 0.34853,0 0.83772,0.64286 1.0871,1.42857 0.24937,0.78572 1.04782,1.42857 1.77432,1.42857 0.72651,0 1.43655,0.3469 1.57788,0.77089 0.33539,1.00618 10.68063,1.70204 15.79823,1.06263 3.06256,-0.38264 4.10013,-0.82254 4.436,-1.88077 0.24113,-0.75973 1.0596,-1.38132 1.81885,-1.38132 0.75923,0 1.38043,-0.29977 1.38043,-0.66615 0,-0.36638 0.70822,-0.89093 1.57383,-1.16567 2.00435,-0.63615 3.42617,-2.05325 3.42617,-3.41478 0,-0.58461 0.40179,-1.19824 0.89286,-1.36364 1.24805,-0.42034 1.15915,-14.25338 -0.0943,-14.67119 -0.81857,-0.27286 -2.75405,-2.1384 -4.93387,-4.75561 -0.66973,-0.80411 -2.27753,-1.10582 -5.89286,-1.10582 -2.83837,0 -4.97184,-0.3065 -4.97184,-0.71428 0,-0.41667 2.38095,-0.71429 5.71429,-0.71429 3.33333,0 5.71428,0.29762 5.71428,0.71429 0,0.39286 0.46754,0.71428 1.03897,0.71428 1.34601,0 4.67532,3.32932 4.67532,4.67533 0,0.57143 0.64286,1.03896 1.42857,1.03896 0.78572,0 1.42857,0.32143 1.42857,0.71429 0,0.39285 -0.32143,0.71428 -0.71428,0.71428 -0.39286,0 -0.71429,0.80357 -0.71429,1.78572 0,0.98214 0.32143,1.78571 0.71429,1.78571 0.39285,0 0.71428,1.44643 0.71428,3.21429 0,1.76785 -0.32143,3.21428 -0.71428,3.21428 -0.39286,0 -0.71429,0.66582 -0.71429,1.47959 0,0.81378 -0.48214,1.96174 -1.07143,2.55102 -0.58928,0.58929 -1.07143,1.66967 -1.07143,2.40085 0,0.73118 -0.64285,1.53345 -1.42857,1.78283 -0.78571,0.24937 -1.42857,0.75318 -1.42857,1.11956 0,0.36638 -0.41118,0.66615 -0.91374,0.66615 -0.50256,0 -1.36977,0.63271 -1.92714,1.40601 -0.6057,0.84037 -2.24963,1.5914 -4.08626,1.86682 -1.69007,0.25344 -3.07286,0.74574 -3.07286,1.09399 0,0.34825 -1.125,0.63318 -2.5,0.63318 -1.375,0 -2.5,0.32143 -2.5,0.71429 0,0.39285 -1.60714,0.71428 -3.57143,0.71428 -1.96428,0 -3.57143,-0.32143 -3.57143,-0.71428 0,-0.39286 -0.80357,-0.71429 -1.78571,-0.71429 -0.98214,0 -1.78571,-0.28566 -1.78571,-0.63479 0,-0.34914 -1.05509,-0.83273 -2.34464,-1.07465 -1.28955,-0.24192 -2.80694,-1.08126 -3.37197,-1.86521 -0.56503,-0.78394 -1.43852,-1.42535 -1.94108,-1.42535 -0.50256,0 -1.5566,-0.64286 -2.34231,-1.42857 -0.78572,-0.78571 -1.42858,-1.83976 -1.42858,-2.34232 0,-0.50255 -0.65138,-1.38323 -1.44753,-1.95706 -0.80659,-0.58136 -1.63769,-2.23253 -1.877,-3.72911 -0.3191,-1.99556 -0.77315,-2.6858 -1.76676,-2.6858 -0.95024,0 -1.33728,0.51683 -1.33728,1.78572 0,0.98214 -0.28658,1.78571 -0.63685,1.78571 -0.35027,0 -0.83853,0.80357 -1.08504,1.78572 -0.2465,0.98214 -0.76349,1.78571 -1.14886,1.78571 -0.38537,0 -0.70068,0.6212 -0.70068,1.38044 0,0.75924 -0.64285,1.58447 -1.42857,1.83385 -0.78571,0.24937 -1.42857,0.75318 -1.42857,1.11956 0,0.36638 -0.41118,0.66615 -0.91374,0.66615 -0.50256,0 -1.37605,0.64141 -1.94108,1.42535 -0.56503,0.78395 -2.08242,1.62329 -3.37197,1.86521 -1.28955,0.24192 -2.34464,0.72551 -2.34464,1.07465 0,0.34913 -0.80357,0.63479 -1.78571,0.63479 -0.98214,0 -1.78572,0.32143 -1.78572,0.71429 0,0.39285 -1.76785,0.71428 -3.92857,0.71428 -2.16071,0 -3.92857,-0.32143 -3.92857,-0.71428 z"
       id="path3676"
       inkscape:connector-curvature="0" />
    <path
       style="fill:#ffffff"
       d="m 263.70449,522.11007 c 0,-0.35027 -0.80357,-0.83854 -1.78571,-1.08504 -1.57241,-0.39465 -1.78572,-0.83051 -1.78572,-3.64886 0,-1.76037 0.32143,-3.20068 0.71429,-3.20068 0.39286,0 0.71429,-0.60537 0.71429,-1.34526 0,-1.37054 1.80016,-2.19808 4.82142,-2.21641 0.88393,-0.005 1.60715,-0.35414 1.60715,-0.77506 0,-0.42092 0.48214,-0.28317 1.07143,0.30612 0.58928,0.58929 1.07142,1.41582 1.07142,1.83673 0,0.42092 0.32143,0.76531 0.71429,0.76531 0.39286,0 0.71429,1.76173 0.71429,3.91496 0,3.58026 -0.15267,3.95328 -1.78572,4.36315 -0.98214,0.2465 -1.78571,0.73477 -1.78571,1.08504 0,0.35027 -0.96429,0.63685 -2.14286,0.63685 -1.17857,0 -2.14286,-0.28658 -2.14286,-0.63685 z"
       id="path3678"
       inkscape:connector-curvature="0" />
    <path
       style="fill:#ffffff"
       d="m 246.56164,517.74692 c 0,-0.78571 0.32142,-1.42857 0.71428,-1.42857 0.39286,0 0.71429,0.64286 0.71429,1.42857 0,0.78572 -0.32143,1.42857 -0.71429,1.42857 -0.39286,0 -0.71428,-0.64285 -0.71428,-1.42857 z"
       id="path3680"
       inkscape:connector-curvature="0" />
    <path
       style="fill:#ffffff"
       d="m 245.13306,517.74692 c 0,-1.96428 0.32143,-3.57143 0.71429,-3.57143 0.39286,0 0.71429,1.60715 0.71429,3.57143 0,1.96429 -0.32143,3.57143 -0.71429,3.57143 -0.39286,0 -0.71429,-1.60714 -0.71429,-3.57143 z"
       id="path3682"
       inkscape:connector-curvature="0" />
    <path
       style="fill:#ffffff"
       d="m 246.56164,519.88978 c 0,-0.39286 0.32142,-0.71429 0.71428,-0.71429 0.39286,0 0.71429,0.32143 0.71429,0.71429 0,0.39286 -0.32143,0.71428 -0.71429,0.71428 -0.39286,0 -0.71428,-0.32142 -0.71428,-0.71428 z"
       id="path3684"
       inkscape:connector-curvature="0" />
    <path
       style="fill:#ffffff"
       d="m 246.56164,522.74692 c 0,-0.78571 0.32142,-1.42857 0.71428,-1.42857 0.39286,0 0.71429,0.64286 0.71429,1.42857 0,0.78572 -0.32143,1.42857 -0.71429,1.42857 -0.39286,0 -0.71428,-0.64285 -0.71428,-1.42857 z"
       id="path3686"
       inkscape:connector-curvature="0" />
    <path
       style="fill:#ffffff"
       d="m 260.13306,506.31835 c 0,-0.39286 0.32143,-0.71429 0.71429,-0.71429 0.39286,0 0.71429,0.32143 0.71429,0.71429 0,0.39286 -0.32143,0.71429 -0.71429,0.71429 -0.39286,0 -0.71429,-0.32143 -0.71429,-0.71429 z"
       id="path3688"
       inkscape:connector-curvature="0" />
    <path
       style="fill:#ffffff"
       d="m 255.13306,506.31835 c 0,-0.39286 0.32143,-0.71429 0.71429,-0.71429 0.39286,0 0.71429,0.32143 0.71429,0.71429 0,0.39286 -0.32143,0.71429 -0.71429,0.71429 -0.39286,0 -0.71429,-0.32143 -0.71429,-0.71429 z"
       id="path3690"
       inkscape:connector-curvature="0" />
    <path
       style="fill:#ffffff"
       d="m 247.99021,510.29794 c 0,-0.56122 0.47099,-1.44515 1.04664,-1.96428 2.38557,-2.15135 3.21667,-2.7296 3.92321,-2.7296 0.40944,0 0.74443,-0.32142 0.74443,-0.71428 0,-0.39286 0.96429,-0.71429 2.14286,-0.71429 1.17857,0 2.14286,-0.32143 2.14286,-0.71428 0,-0.39286 0.80357,-0.71429 1.78571,-0.71429 0.98214,0 1.78572,0.32143 1.78572,0.71429 0,0.39285 0.48214,0.71428 1.07142,0.71428 0.58929,0 1.07143,0.32143 1.07143,0.71429 0,0.39286 0.50511,0.71428 1.12245,0.71428 1.28285,0 3.16327,1.66811 3.16327,2.80613 0,0.42091 -0.32143,0.7653 -0.71429,0.7653 -0.39286,0 -0.71428,-0.3153 -0.71428,-0.70067 0,-0.38538 -0.80358,-0.90237 -1.78572,-1.14887 -0.98214,-0.2465 -1.78571,-0.73477 -1.78571,-1.08503 0,-0.35027 -1.76786,-0.63686 -3.92857,-0.63686 -2.16072,0 -3.92858,0.32143 -3.92858,0.71429 0,0.39286 -0.44815,0.71429 -0.99588,0.71429 -0.54774,0 -2.02816,0.96428 -3.28983,2.14285 -2.61108,2.43912 -2.85714,2.53579 -2.85714,1.12245 z"
       id="path3692"
       inkscape:connector-curvature="0" />
    <path
       style="fill:#ffffff"
       d="m 250.13306,528.46121 c 0,-0.39286 0.32143,-0.71429 0.71429,-0.71429 0.39286,0 0.71429,0.32143 0.71429,0.71429 0,0.39285 -0.32143,0.71428 -0.71429,0.71428 -0.39286,0 -0.71429,-0.32143 -0.71429,-0.71428 z"
       id="path3694"
       inkscape:connector-curvature="0" />
    <path
       style="fill:#ffffff"
       d="m 253.70449,532.03264 c 0,-0.39286 0.64286,-0.71429 1.42857,-0.71429 0.78572,0 1.42858,0.32143 1.42858,0.71429 0,0.39285 -0.64286,0.71428 -1.42858,0.71428 -0.78571,0 -1.42857,-0.32143 -1.42857,-0.71428 z"
       id="path3696"
       inkscape:connector-curvature="0" />
    <path
       style="fill:#000000"
       d="m 510.84735,527.03264 c 0,-0.39286 0.32143,-0.71429 0.71429,-0.71429 0.39285,0 0.71428,0.32143 0.71428,0.71429 0,0.39285 -0.32143,0.71428 -0.71428,0.71428 -0.39286,0 -0.71429,-0.32143 -0.71429,-0.71428 z"
       id="path3698"
       inkscape:connector-curvature="0" />
    <path
       style="fill:#000000"
       d="m 150.38029,510.74133 c 2.2e-4,-0.14732 2.29058,-0.24084 5.08969,-0.20782 5.46097,0.0644 4.95351,0.2174 -1.2504,0.37694 -2.11183,0.0543 -3.83951,-0.0218 -3.83929,-0.16912 z"
       id="path3700"
       inkscape:connector-curvature="0" />
    <path
       style="fill:#000000"
       d="m 152.78063,510.56964 c 0.8289,-0.0749 2.27532,-0.0758 3.21429,-0.002 0.93896,0.0738 0.26077,0.1351 -1.50708,0.13619 -1.76786,0.001 -2.5361,-0.0593 -1.70721,-0.13421 z"
       id="path3702"
       inkscape:connector-curvature="0" />
    <path
       style="fill:#000000"
       d="m 158.95212,509.75919 c 0,-0.47619 0.2381,-0.71429 0.71429,-0.71429 0.47619,0 0.71428,0.2381 0.71428,0.71429 0,0.47619 -0.23809,0.71428 -0.71428,0.71428 -0.47619,0 -0.71429,-0.23809 -0.71429,-0.71428 z"
       id="path3704"
       inkscape:connector-curvature="0" />
    <path
       style="fill:#000000"
       d="m 156.45212,509.75919 c 0,-0.47619 0.2381,-0.71429 0.71429,-0.71429 0.47619,0 0.71428,0.2381 0.71428,0.71429 0,0.47619 -0.23809,0.71428 -0.71428,0.71428 -0.47619,0 -0.71429,-0.23809 -0.71429,-0.71428 z"
       id="path3706"
       inkscape:connector-curvature="0" />
    <path
       style="fill:#000000"
       d="m 152.88069,509.75919 c 0,-0.39683 0.2381,-0.71429 0.53572,-0.71429 0.29762,0 0.53571,0.31746 0.53571,0.71429 0,0.39682 -0.23809,0.71428 -0.53571,0.71428 -0.29762,0 -0.53572,-0.31746 -0.53572,-0.71428 z"
       id="path3708"
       inkscape:connector-curvature="0" />
    <path
       style="fill:#000000"
       d="m 150.83456,510.61484 c 0.11868,-0.11867 0.42671,-0.13136 0.68453,-0.0282 0.2849,0.11401 0.20027,0.19863 -0.21578,0.21577 -0.37649,0.0155 -0.58742,-0.0689 -0.46875,-0.18758 z"
       id="path3710"
       inkscape:connector-curvature="0" />
    <path
       style="fill:#000000"
       d="m 270.02355,542.25919 c 0,-0.47619 0.2381,-0.71429 0.71429,-0.71429 0.47619,0 0.71428,0.2381 0.71428,0.71429 0,0.47619 -0.23809,0.71428 -0.71428,0.71428 -0.47619,0 -0.71429,-0.23809 -0.71429,-0.71428 z"
       id="path3712"
       inkscape:connector-curvature="0" />
    <path
       style="fill:#000000"
       d="m 272.52355,542.25919 c 0,-0.57823 0.2381,-0.71429 1.25,-0.71429 1.01191,0 1.25,0.13606 1.25,0.71429 0,0.57823 -0.23809,0.71428 -1.25,0.71428 -1.0119,0 -1.25,-0.13605 -1.25,-0.71428 z"
       id="path3714"
       inkscape:connector-curvature="0" />
    <path
       style="fill:#000000"
       d="m 271.62866,544.10239 c -0.5786,-0.5786 -0.0553,-1.12892 1.07346,-1.12892 1.57689,0 1.71862,0.92158 0.17654,1.14791 -0.5904,0.0866 -1.1529,0.0781 -1.25,-0.019 z"
       id="path3716"
       inkscape:connector-curvature="0" />
    <path
       style="fill:#000000"
       d="m 509.66641,528.50919 c 0,-0.29762 0.31746,-0.53572 0.71428,-0.53572 0.39683,0 0.71429,0.2381 0.71429,0.53572 0,0.29762 -0.31746,0.53571 -0.71429,0.53571 -0.39682,0 -0.71428,-0.23809 -0.71428,-0.53571 z"
       id="path3718"
       inkscape:connector-curvature="0" />
  </g>
</svg>
